<svg xmlns="http://www.w3.org/2000/svg" viewBox="0 0 564.17 607.55"><defs><style>.cls-1{fill:#ea6416;}</style></defs><title>activar</title><g id="Capa_2" data-name="Capa 2"><g id="Capa_1-2" data-name="Capa 1"><path class="cls-1" d="M361.38,54.72a10.85,10.85,0,0,0-6.09,20.82c110.18,32.2,187.16,135,187.16,249.93,0,143.56-116.8,260.36-260.36,260.36S21.72,469,21.72,325.47c0-115.11,77.07-217.88,187.42-250a10.84,10.84,0,1,0-6-20.83C83.54,89.42,0,200.77,0,325.47,0,481,126.55,607.55,282.09,607.55S564.17,481,564.17,325.47c0-124.55-83.39-235.84-202.79-270.75Z"/><path class="cls-1" d="M282.09,293A10.88,10.88,0,0,0,293,282.09V10.86a10.87,10.87,0,0,0-21.73,0V282.09A10.88,10.88,0,0,0,282.09,293Z"/></g></g></svg>