<?xml version="1.0" encoding="utf-8"?>
<!-- Generator: Adobe Illustrator 21.0.2, SVG Export Plug-In . SVG Version: 6.00 Build 0)  -->
<svg version="1.1" id="Layer_1" xmlns="http://www.w3.org/2000/svg" xmlns:xlink="http://www.w3.org/1999/xlink" x="0px" y="0px"
	 viewBox="0 0 291.6 266" style="enable-background:new 0 0 291.6 266;" xml:space="preserve">
<style type="text/css">
	.st0{fill:#EA6416;}
	.st1{fill:none;stroke:#CBD2DA;stroke-width:2;stroke-miterlimit:10;}
	.st2{fill:#E46416;}
	.st3{fill:#424242;}
	.st4{fill:#FFFFFF;}
	.st5{fill:#E66416;}
	.st6{fill:none;stroke:#EA6416;stroke-linecap:round;stroke-miterlimit:10;}
	.st7{fill:#CBD2DA;stroke:#CBD2DA;stroke-width:2;stroke-miterlimit:10;}
	.st8{fill:none;stroke:#AB6416;stroke-width:3;stroke-miterlimit:10;}
	.st9{fill:none;stroke:#AB6416;stroke-width:5;stroke-miterlimit:10;}
	.st10{fill:none;stroke:#AB6416;stroke-miterlimit:10;}
	.st11{fill:none;stroke:#424242;stroke-width:2;stroke-linecap:round;stroke-linejoin:round;stroke-miterlimit:10;}
	.st12{fill:none;stroke:#424242;stroke-width:2;stroke-miterlimit:10;}
	.st13{fill:none;stroke:#424242;stroke-miterlimit:10;}
	.st14{opacity:0.6;fill:#CBD2DA;stroke:#CBD2DA;stroke-width:2;stroke-miterlimit:10;}
	.st15{opacity:0.6;}
	.st16{fill:none;stroke:#E46416;stroke-width:3;stroke-linecap:round;stroke-linejoin:round;stroke-miterlimit:10;}
	.st17{fill:#FFFFFF;stroke:#E46416;stroke-width:3;stroke-linecap:round;stroke-linejoin:round;stroke-miterlimit:10;}
	.st18{fill:#C7CED6;}
	.st19{fill:#CBD2DA;}
	.st20{fill:none;stroke:#E46416;stroke-linecap:round;stroke-miterlimit:10;}
	.st21{fill:#E6E6E6;}
	.st22{fill:#CCCCCC;}
	.st23{fill:#B96416;}
	.st24{fill:#863E02;}
	.st25{fill:#718080;}
	.st26{fill:none;stroke:#EA6416;stroke-width:2;stroke-linecap:round;stroke-miterlimit:10;}
	.st27{fill:none;stroke:#EA6416;stroke-width:2;stroke-miterlimit:10;stroke-dasharray:9;}
	.st28{fill:none;stroke:#EA6416;stroke-width:2;stroke-miterlimit:10;stroke-dasharray:8.8334,8.8334;}
	.st29{fill:none;stroke:#424242;stroke-width:3;stroke-linecap:round;stroke-linejoin:round;stroke-miterlimit:10;}
	.st30{fill:#CBD2DA;stroke:#424242;stroke-width:3;stroke-linecap:round;stroke-linejoin:round;stroke-miterlimit:10;}
	.st31{fill:none;stroke:#E46416;stroke-width:2;stroke-miterlimit:10;}
	.st32{opacity:0.52;fill:#EA6416;}
	.st33{fill:#FFFFFF;stroke:#EA6416;stroke-miterlimit:10;}
	.st34{fill:#424242;stroke:#424242;stroke-linecap:round;stroke-linejoin:round;stroke-miterlimit:10;}
	.st35{fill:#CBD1D9;stroke:#424242;stroke-linecap:round;stroke-linejoin:round;stroke-miterlimit:10;}
	.st36{fill:#B9C0C6;stroke:#424242;stroke-linecap:round;stroke-linejoin:round;stroke-miterlimit:10;}
	.st37{fill:#E96415;stroke:#424242;stroke-linecap:round;stroke-linejoin:round;stroke-miterlimit:10;}
	.st38{fill:#5B6976;}
	.st39{fill:#FFFFFF;stroke:#424242;stroke-miterlimit:10;}
	.st40{opacity:0.51;fill:#464747;stroke:#424242;stroke-linecap:round;stroke-linejoin:round;stroke-miterlimit:10;}
	.st41{fill:#FFFFFF;stroke:#E46416;stroke-width:2;stroke-miterlimit:10;}
	.st42{fill:#EA6416;stroke:#E46416;stroke-width:2;stroke-miterlimit:10;}
	.st43{fill:none;stroke:#E46416;stroke-width:2;stroke-linecap:round;stroke-linejoin:round;stroke-miterlimit:10;}
	.st44{fill:none;stroke:#E46416;stroke-linecap:round;stroke-linejoin:round;stroke-miterlimit:10;}
	.st45{fill:#FFFFFF;stroke:#424242;stroke-width:2;stroke-miterlimit:10;}
	.st46{fill:#FFFFFF;stroke:#EA6416;stroke-width:2;stroke-miterlimit:10;}
	.st47{fill:#3E424B;}
	.st48{fill:none;stroke:#424242;stroke-linecap:round;stroke-linejoin:round;stroke-miterlimit:10;}
	.st49{fill:#E66417;}
	.st50{fill:none;stroke:#EA6416;stroke-width:2;stroke-miterlimit:10;}
	.st51{fill:#FFFFFF;stroke:#E46416;stroke-width:4;stroke-miterlimit:10;}
	.st52{fill:none;stroke:#FFFFFF;stroke-width:2;stroke-miterlimit:10;}
	.st53{fill:#FFFFFF;stroke:#DE6416;stroke-width:2;stroke-miterlimit:10;}
	.st54{fill:#AE6416;}
	.st55{fill:none;stroke:#000000;stroke-miterlimit:10;}
	.st56{opacity:0.4;fill:#E46416;}
	.st57{opacity:0.34;}
	.st58{fill:none;stroke:#E46416;stroke-width:2;stroke-miterlimit:10;stroke-dasharray:12.0239,12.0239;}
	.st59{fill:none;stroke:#CBD2DA;stroke-width:2;stroke-linecap:round;stroke-linejoin:round;stroke-miterlimit:10;}
	.st60{fill:none;stroke:#E46416;stroke-width:2;stroke-linecap:round;stroke-miterlimit:10;}
	.st61{opacity:0.41;}
	.st62{fill:none;stroke:#EA6416;stroke-miterlimit:10;}
	.st63{fill:#EA6416;stroke:#EA6416;stroke-width:2;stroke-miterlimit:10;}
	.st64{fill:none;stroke:#424242;stroke-width:2;stroke-linecap:round;stroke-miterlimit:10;}
	.st65{fill:none;stroke:#E46416;stroke-width:2;stroke-miterlimit:10;stroke-dasharray:12.0574,12.0574;}
	.st66{fill:none;stroke:#E66416;stroke-width:2;stroke-linecap:round;stroke-linejoin:round;stroke-miterlimit:10;}
	.st67{fill:#E66416;stroke:#E66416;stroke-width:4;stroke-linecap:round;stroke-miterlimit:10;}
	.st68{fill:#333333;stroke:#424242;stroke-miterlimit:10;}
	.st69{fill:#424242;stroke:#424242;stroke-miterlimit:10;}
	.st70{fill:#697784;stroke:#424242;stroke-miterlimit:10;}
	.st71{fill:#718091;stroke:#424242;stroke-miterlimit:10;}
	.st72{fill:#D15518;stroke:#424242;stroke-miterlimit:10;}
	.st73{fill:#EA6416;stroke:#424242;stroke-miterlimit:10;}
	.st74{opacity:0.5;}
	.st75{opacity:0.5;fill:#424242;}
	.st76{fill:none;stroke:#E66416;stroke-miterlimit:10;}
	.st77{fill-rule:evenodd;clip-rule:evenodd;fill:none;stroke:#424242;stroke-width:3;stroke-miterlimit:10;}
	.st78{fill-rule:evenodd;clip-rule:evenodd;fill:#424242;}
	.st79{fill:none;stroke:#E66416;stroke-width:3;stroke-miterlimit:10;}
	.st80{fill:none;stroke:#71808D;stroke-width:3;stroke-miterlimit:10;}
	.st81{fill:none;stroke:#838384;stroke-width:5;stroke-linecap:round;stroke-linejoin:round;stroke-miterlimit:10;}
	.st82{fill:#838384;}
	.st83{fill:#DBDBDB;}
	.st84{fill:none;stroke:#424242;stroke-width:0.5;stroke-miterlimit:10;}
	.st85{fill:none;stroke:#E56413;stroke-linecap:round;stroke-linejoin:round;stroke-miterlimit:10;}
	.st86{fill:none;stroke:#E56412;stroke-miterlimit:10;}
	.st87{fill:none;stroke:#E56412;stroke-width:2;stroke-miterlimit:10;}
	.st88{fill:#E56412;}
	.st89{fill:#FFFFFF;stroke:#E56413;stroke-linecap:round;stroke-linejoin:round;stroke-miterlimit:10;}
	.st90{fill:#E56413;}
	.st91{fill:#72808C;stroke:#72808C;stroke-width:2;stroke-linecap:round;stroke-linejoin:round;stroke-miterlimit:10;}
	.st92{fill:none;stroke:#E56415;stroke-width:2;stroke-miterlimit:10;}
	.st93{fill:none;stroke:#E56413;stroke-width:2;stroke-miterlimit:10;}
	.st94{fill:#FFFFFF;stroke:#72808C;stroke-width:2;stroke-linecap:round;stroke-linejoin:round;stroke-miterlimit:10;}
	.st95{fill:none;stroke:#72808C;stroke-width:2;stroke-miterlimit:10;}
	.st96{fill:none;stroke:#73808C;stroke-width:2;stroke-miterlimit:10;}
	.st97{fill:none;stroke:#424242;stroke-width:0.75;stroke-miterlimit:10;}
	.st98{fill:none;stroke:#E56413;stroke-miterlimit:10;}
	.st99{fill:#424242;stroke:#6E6E6E;stroke-width:0.5;stroke-linecap:round;stroke-linejoin:round;stroke-miterlimit:10;}
	.st100{fill:#424242;stroke:#6E6E6E;stroke-width:0.5;stroke-linejoin:round;stroke-miterlimit:10;}
	.st101{fill:#FFFFFF;stroke:#72808C;stroke-width:0.75;stroke-miterlimit:10;}
	.st102{fill:#E56415;}
	.st103{fill:#FFFFFF;stroke:#72808C;stroke-miterlimit:10;}
	.st104{fill:#FFFFFF;stroke:#72808C;stroke-linecap:round;stroke-linejoin:round;stroke-miterlimit:10;}
	.st105{fill:none;stroke:#72808C;stroke-width:0.75;stroke-linecap:round;stroke-linejoin:round;stroke-miterlimit:10;}
	.st106{fill:#FFFFFF;stroke:#E56415;stroke-width:2;stroke-miterlimit:10;}
	.st107{fill:#FFFFFF;stroke:#72808C;stroke-width:2;stroke-miterlimit:10;}
	.st108{fill:#424242;stroke:#424242;stroke-width:0.75;stroke-linecap:round;stroke-linejoin:round;stroke-miterlimit:10;}
	.st109{fill:#72808C;}
	.st110{fill:none;stroke:#C6CDD5;stroke-width:0.25;stroke-miterlimit:10;}
	.st111{fill:#73808C;}
	.st112{fill:none;stroke:#73808C;stroke-width:2;stroke-linecap:round;stroke-linejoin:round;stroke-miterlimit:10;}
	.st113{fill:none;stroke:#72808C;stroke-width:2;stroke-linecap:round;stroke-linejoin:round;stroke-miterlimit:10;}
	.st114{fill:#FFFFFF;stroke:#E66416;stroke-width:2;stroke-linecap:round;stroke-linejoin:round;stroke-miterlimit:10;}
	.st115{fill:none;stroke:#EA6416;stroke-width:3;stroke-linecap:round;stroke-linejoin:round;stroke-miterlimit:10;}
	.st116{fill:none;stroke:#E66416;stroke-width:3;stroke-linecap:round;stroke-linejoin:round;stroke-miterlimit:10;}
	.st117{fill:#FFFFFF;stroke:#E66416;stroke-width:3;stroke-linecap:round;stroke-linejoin:round;stroke-miterlimit:10;}
	.st118{fill:none;stroke:#E66416;stroke-width:2;stroke-miterlimit:10;}
</style>
<path class="st68" d="M256,243.5H26.8c-2.8,0-5.1-2.3-5.1-5.1v-4.5c0-2.8,2.3-5.1,5.1-5.1H256c2.8,0,5.1,2.3,5.1,5.1v4.5
	C261,241.2,258.8,243.5,256,243.5z"/>
<path class="st69" d="M241.2,243.5H26.8c-2.8,0-5.1-2.3-5.1-5.1v-4.5c0-2.8,2.3-5.1,5.1-5.1h214.4c2.8,0,5.1,2.3,5.1,5.1v4.5
	C246.3,241.2,244,243.5,241.2,243.5z"/>
<path class="st70" d="M208.8,228.4h-135v-22.9c0-3.3,2.7-6,6-6h123.1c3.3,0,6,2.7,6,6V228.4z"/>
<path class="st71" d="M193.7,228.4H73.9v-22.9c0-3.3,2.7-6,6-6h113.8V228.4z"/>
<path class="st68" d="M105.1,217.6H87.4c-1.3,0-2.4-1.1-2.4-2.4v-2.1c0-1.3,1.1-2.4,2.4-2.4h17.7c1.3,0,2.4,1.1,2.4,2.4v2.1
	C107.5,216.5,106.4,217.6,105.1,217.6z"/>
<path class="st72" d="M141.6,67.1h-1.3c-28.6,0-52.1,23.4-52.1,52.1v80.4h105.4v-80.4C193.7,90.5,170.2,67.1,141.6,67.1z"/>
<path class="st73" d="M134.8,73H132c-24.1,0-43.8,19.7-43.8,43.8v82.8h90.3v-82.8C178.5,92.7,158.8,73,134.8,73z"/>
<path class="st39" d="M136,154.1h-4.2c-2.6,0-4.8-2.2-4.8-4.8v-47.1c0-2.6,2.2-4.8,4.8-4.8h4.2c2.6,0,4.8,2.2,4.8,4.8v47.1
	C140.8,151.9,138.6,154.1,136,154.1z"/>
<circle class="st39" cx="133.9" cy="169" r="7.1"/>
<path class="st73" d="M243.9,129.2h-20.1c-1.3,0-2.4-1.1-2.4-2.4v-2.1c0-1.3,1.1-2.4,2.4-2.4h20.1c1.3,0,2.4,1.1,2.4,2.4v2.1
	C246.3,128.1,245.2,129.2,243.9,129.2z"/>
<path class="st73" d="M231.8,77.1l-17.4,10c-1.2,0.7-2.6,0.3-3.3-0.9l-1.1-1.9c-0.7-1.2-0.3-2.6,0.9-3.3l17.4-10
	c1.2-0.7,2.6-0.3,3.3,0.9l1.1,1.9C233.4,75,233,76.5,231.8,77.1z"/>
<path class="st73" d="M195.5,38.6l-10,17.4c-0.7,1.2-2.1,1.5-3.3,0.9l-1.9-1.1c-1.2-0.7-1.5-2.1-0.9-3.3l10-17.4
	c0.7-1.2,2.1-1.5,3.3-0.9l1.9,1.1C195.7,36,196.1,37.4,195.5,38.6z"/>
<path class="st73" d="M144.5,23.8v20.1c0,1.3-1.1,2.4-2.4,2.4h-2.1c-1.3,0-2.4-1.1-2.4-2.4V23.8c0-1.3,1.1-2.4,2.4-2.4h2.1
	C143.4,21.4,144.5,22.5,144.5,23.8z"/>
<path class="st73" d="M92.8,35.8l10,17.4c0.7,1.2,0.3,2.6-0.9,3.3l-1.9,1.1c-1.2,0.7-2.6,0.3-3.3-0.9l-10-17.4
	c-0.7-1.2-0.3-2.6,0.9-3.3l1.9-1.1C90.7,34.3,92.2,34.7,92.8,35.8z"/>
<path class="st73" d="M54.1,71.6l17.4,10c1.2,0.7,1.5,2.1,0.9,3.3l-1.1,1.9c-0.7,1.2-2.1,1.5-3.3,0.9l-17.4-10
	c-1.2-0.7-1.5-2.1-0.9-3.3l1.1-1.9C51.5,71.3,53,70.9,54.1,71.6z"/>
<path class="st73" d="M38.6,122.2h20.1c1.3,0,2.4,1.1,2.4,2.4v2.1c0,1.3-1.1,2.4-2.4,2.4H38.6c-1.3,0-2.4-1.1-2.4-2.4v-2.1
	C36.2,123.3,37.3,122.2,38.6,122.2z"/>
</svg>
