<svg xmlns="http://www.w3.org/2000/svg" viewBox="0 0 129.48 130"><defs><style>.cls-1{fill:#424242;}.cls-2{fill:none;stroke:#424242;stroke-linecap:round;stroke-linejoin:round;stroke-width:2px;}</style></defs><title>alimentos_1</title><g id="Capa_2" data-name="Capa 2"><g id="Capa_1-2" data-name="Capa 1"><path class="cls-1" d="M15.28,32.47,9.77,33.61a1.93,1.93,0,0,0,.39,3.83,2.72,2.72,0,0,0,.39,0l5.51-1.14a1.93,1.93,0,1,0-.78-3.79Z"/><path class="cls-1" d="M27.93,39.41l-5.51,1.14a1.93,1.93,0,0,0,.38,3.82,1.72,1.72,0,0,0,.39,0l5.52-1.13a1.93,1.93,0,0,0-.78-3.79Z"/><polyline class="cls-2" points="33.91 129 1 129 1 51.16 128.48 51.16 128.48 129 43.32 129"/><polyline class="cls-2" points="98.7 51.68 98.7 129 113.33 115.24 127.95 129"/><line class="cls-2" x1="113.33" y1="51.68" x2="113.33" y2="129"/><path class="cls-2" d="M4.76,50.6,1.41,36.06C1.41,20.41,23.77,13.71,31.59,26a53,53,0,0,1,5.22,25.16H4.86"/><line class="cls-2" x1="7" y1="13.71" x2="15.21" y2="19.97"/><polyline class="cls-2" points="20.41 11.47 15.24 20 12.59 7"/><line class="cls-2" x1="9.88" y1="36" x2="15.11" y2="34.96"/><line class="cls-2" x1="23.47" y1="42.27" x2="28.69" y2="41.23"/><path class="cls-2" d="M75.12,22.42H84.6A1.56,1.56,0,0,1,86.16,24v7.33a1.56,1.56,0,0,1-1.56,1.56H40.7a1.56,1.56,0,0,1-1.56-1.56V24a1.56,1.56,0,0,1,1.56-1.56H66"/><rect class="cls-2" x="46.45" y="43.32" width="32.39" height="7.31" rx="1.27" ry="1.27"/><polyline class="cls-2" points="36.79 51.16 37.05 42.27 42.27 32.87"/><polyline class="cls-2" points="82.85 32.87 87.2 41.23 87.55 51.16"/><path class="cls-2" d="M88.25,50.63V42.27s9-10.27,9.4-14.63v-9.4h18.81s-.29,8.76-.29,9.69C116.24,33,125.24,43,125.24,43l-.42,7.63Z"/><rect class="cls-2" x="94.24" y="1" width="25.63" height="16.72" rx="1.56" ry="1.56"/></g></g></svg>