<svg xmlns="http://www.w3.org/2000/svg" viewBox="0 0 152 157"><defs><style>.cls-1,.cls-2{fill:none;stroke:#424242;stroke-linecap:round;stroke-linejoin:round;}.cls-1{stroke-width:2px;}.cls-3{fill:#424242;}</style></defs><title>autopartes</title><g id="Capa_2" data-name="Capa 2"><g id="Capa_1-2" data-name="Capa 1"><circle class="cls-1" cx="112.5" cy="27.5" r="26.5"/><circle class="cls-1" cx="40.5" cy="27.5" r="26.5"/><circle class="cls-2" cx="41" cy="28" r="16"/><circle class="cls-2" cx="112" cy="28" r="16"/><circle class="cls-1" cx="41" cy="28" r="12"/><circle class="cls-1" cx="112" cy="28" r="12"/><polyline class="cls-1" points="3 61 77 61 115 94"/><path class="cls-1" d="M3,95l117-1s22,1,28,18l3,8v31H106c5-54-70-54-66,0H1"/><line class="cls-1" x1="1" y1="120" x2="49" y2="120"/><line class="cls-1" x1="97" y1="120" x2="142" y2="120"/><path class="cls-1" d="M124,94.5s1,21.5,24,17.5"/><path class="cls-1" d="M151,128c-10,0-10,19.1,0,19.1"/><line class="cls-1" x1="31.09" y1="94.09" x2="46.36" y2="61"/><line class="cls-1" x1="38.27" y1="94.5" x2="54.84" y2="61"/><polyline class="cls-1" points="52 67 72 67 96.5 87.5 41.79 87.39"/><line class="cls-1" x1="46.87" y1="77.12" x2="67" y2="77"/><line class="cls-1" x1="17" y1="104" x2="35" y2="104"/><path class="cls-1" d="M69,151V131h9v20Z"/><line class="cls-1" x1="73" y1="113" x2="73" y2="131"/><line class="cls-1" x1="69" y1="112" x2="78" y2="112"/><line class="cls-1" x1="74" y1="145" x2="55" y2="135"/><rect class="cls-1" x="65" y="151" width="18" height="5"/><circle class="cls-3" cx="32" cy="27" r="1"/><circle class="cls-3" cx="35" cy="21" r="1"/><circle class="cls-3" cx="41" cy="19" r="1"/><circle class="cls-3" cx="48" cy="22" r="1"/><circle class="cls-3" cx="50" cy="28" r="1"/><circle class="cls-3" cx="48" cy="34" r="1"/><circle class="cls-3" cx="41" cy="37" r="1"/><circle class="cls-3" cx="34" cy="34" r="1"/><circle class="cls-3" cx="103" cy="27" r="1"/><circle class="cls-3" cx="106" cy="21" r="1"/><circle class="cls-3" cx="112" cy="19" r="1"/><circle class="cls-3" cx="119" cy="22" r="1"/><circle class="cls-3" cx="121" cy="28" r="1"/><circle class="cls-3" cx="119" cy="34" r="1"/><circle class="cls-3" cx="112" cy="37" r="1"/><circle class="cls-3" cx="105" cy="34" r="1"/></g></g></svg>