<svg xmlns="http://www.w3.org/2000/svg" viewBox="0 0 99.68 129"><defs><style>.cls-1,.cls-2{fill:none;stroke:#fff;stroke-width:2px;}.cls-1{stroke-linecap:round;stroke-linejoin:round;}.cls-2{stroke-miterlimit:10;}.cls-3{fill:#fff;}</style></defs><title>automotrizblanco</title><g id="Capa_2" data-name="Capa 2"><g id="Capa_1-2" data-name="Capa 1"><path class="cls-1" d="M50,1A48.69,48.69,0,0,0,10.24,77.77,12.72,12.72,0,0,0,1.32,89.9v25.4A12.71,12.71,0,0,0,14,128H86a12.71,12.71,0,0,0,12.7-12.7V89.9a12.72,12.72,0,0,0-8.92-12.13A48.69,48.69,0,0,0,50,1Z"/><path class="cls-2" d="M39.05,77.2a29.63,29.63,0,1,1,21.9,0Z"/><path class="cls-2" d="M69.44,66a25.33,25.33,0,0,0,4.33-7.46h0a.58.58,0,0,0,.06-.17,24.93,24.93,0,0,0,0-17.36.49.49,0,0,0-.06-.17A25.42,25.42,0,0,0,54.25,24.67h0a23.58,23.58,0,0,0-8.46,0h0A25.42,25.42,0,0,0,26.23,40.83a.49.49,0,0,0-.06.17,24.93,24.93,0,0,0,0,17.36.58.58,0,0,0,.06.17h0A25.33,25.33,0,0,0,30.56,66a2,2,0,0,0,.37.4,25.34,25.34,0,0,0,14.81,8.3h0a23.58,23.58,0,0,0,8.46,0h0a25.34,25.34,0,0,0,14.82-8.3,2,2,0,0,0,.37-.4Z"/><path class="cls-3" d="M41.53,11.58a2.12,2.12,0,1,1-2.11-2.11,2.11,2.11,0,0,1,2.11,2.11Z"/><path class="cls-1" d="M18,27s5-9,14-12"/><line class="cls-1" x1="10" y1="78" x2="90" y2="78"/><line class="cls-1" x1="54" y1="25" x2="54" y2="45"/><circle class="cls-2" cx="50" cy="50" r="6"/><line class="cls-1" x1="54" y1="45.53" x2="71.17" y2="35.71"/><polyline class="cls-1" points="73.17 41.71 56 51.53 72.68 61.05"/><polyline class="cls-1" points="29.32 35 46 45 46 25"/><line class="cls-1" x1="44" y1="51" x2="26.53" y2="41.05"/><polyline class="cls-1" points="69 66 52.78 55.32 53 74"/><line class="cls-1" x1="44.17" y1="51.38" x2="27" y2="60"/><polyline class="cls-1" points="30.91 65.09 47 56 46.26 74.78"/><line class="cls-1" x1="2" y1="90" x2="24" y2="90"/><line class="cls-1" x1="29" y1="90" x2="98" y2="90"/><line class="cls-1" x1="1.32" y1="98.33" x2="98" y2="98"/><line class="cls-1" x1="1.32" y1="106.81" x2="98" y2="107"/><line class="cls-1" x1="1" y1="115" x2="67" y2="115"/><line class="cls-1" x1="73" y1="115" x2="98" y2="115"/></g></g></svg>