<svg xmlns="http://www.w3.org/2000/svg" viewBox="0 0 46.82 49.23"><defs><style>.cls-1{fill:#e76416;}</style></defs><title>card_naranja</title><g id="Capa_2" data-name="Capa 2"><g id="Layer_1" data-name="Layer 1"><path class="cls-1" d="M45.54,23.08,23.75,1.29a4.38,4.38,0,0,0-6.21,0L5.61,13.22a4.45,4.45,0,0,0,0,6.27l2,2h4.57L7.89,17.21a1.21,1.21,0,0,1-.34-.86,1.18,1.18,0,0,1,.34-.84L9.46,14,17,21.52h7.19L13.05,10.39l6.77-6.8a1.23,1.23,0,0,1,.83-.35,1.18,1.18,0,0,1,.83.34L43.27,25.36a1.21,1.21,0,0,1,.34.83,1.26,1.26,0,0,1-.38.83L42,28.22v4.56l3.52-3.48a4.4,4.4,0,0,0,0-6.22Z"/><path class="cls-1" d="M35.32,23.56H4.5A4.48,4.48,0,0,0,0,28V39.6H39.66V28a4.34,4.34,0,0,0-4.34-4.39ZM10.77,35.63a3.17,3.17,0,0,1-2.21-.89,3.2,3.2,0,1,1,0-4.61,3.2,3.2,0,1,1,2.21,5.5Z"/><path class="cls-1" d="M0,44.82a4.5,4.5,0,0,0,4.5,4.41H35.32a4.36,4.36,0,0,0,4.34-4.41v-.26H0Z"/></g></g></svg>