<svg xmlns="http://www.w3.org/2000/svg" viewBox="0 0 79.63 79.73"><defs><style>.cls-1{fill:#e6e6e6;}.cls-2{fill:#ccc;}.cls-3{fill:#b76416;}.cls-4{fill:#843e02;}.cls-5{fill:#718080;}.cls-6{fill:#424242;}</style></defs><title>carrito</title><g id="Capa_2" data-name="Capa 2"><g id="Layer_1" data-name="Layer 1"><path class="cls-1" d="M62.93,66.09H30.7A10.61,10.61,0,0,1,20.26,57.4L11.42,9.69A2.67,2.67,0,0,0,8.79,7.5H4.34a3.16,3.16,0,0,1,0-6.32H8.79a9,9,0,0,1,8.84,7.36l8.84,47.71a4.31,4.31,0,0,0,4.23,3.52H62.93a3.16,3.16,0,1,1,0,6.32Z"/><path class="cls-2" d="M23.14,57.4,14.3,9.69A2.67,2.67,0,0,0,11.67,7.5H8.79a2.67,2.67,0,0,1,2.63,2.19L20.26,57.4A10.61,10.61,0,0,0,30.7,66.09h2.88A10.62,10.62,0,0,1,23.14,57.4Z"/><path class="cls-3" d="M19.07,16.3H76.4a2,2,0,0,0,0-4.08H18.31"/><path class="cls-3" d="M17.84,9.69H11.42A2.67,2.67,0,0,0,8.79,7.5H4.34a3.16,3.16,0,0,1,0-6.32H8.79a9,9,0,0,1,8.84,7.36Z"/><path class="cls-4" d="M4.06,4.34A3.17,3.17,0,0,1,7.22,1.18H4.34a3.16,3.16,0,0,0,0,6.32H7.22A3.16,3.16,0,0,1,4.06,4.34Z"/><path class="cls-5" d="M37,73.88a4.67,4.67,0,1,1-4.67-4.67A4.67,4.67,0,0,1,37,73.88Z"/><path class="cls-5" d="M61.48,73.88a4.67,4.67,0,1,1-4.66-4.67,4.67,4.67,0,0,1,4.66,4.67Z"/><path class="cls-6" d="M32.29,68a5.85,5.85,0,1,0,5.85,5.85A5.86,5.86,0,0,0,32.29,68Zm0,9.34a3.49,3.49,0,1,1,3.48-3.49,3.5,3.5,0,0,1-3.48,3.49Z"/><path class="cls-6" d="M56.82,68a5.85,5.85,0,1,0,5.85,5.85A5.86,5.86,0,0,0,56.82,68Zm0,9.34a3.49,3.49,0,1,1,3.48-3.49,3.49,3.49,0,0,1-3.48,3.49Z"/><path class="cls-6" d="M76.4,11H65.59a1.19,1.19,0,0,0,0,2.37H76.4a.86.86,0,0,1,0,1.72H20.05l-.31-1.72H60.86a1.19,1.19,0,0,0,0-2.37H19.3l-.5-2.7A10.19,10.19,0,0,0,8.79,0H4.34a4.34,4.34,0,0,0,0,8.68H8.79a1.5,1.5,0,0,1,1.47,1.23h0v0L16,40.86a1.19,1.19,0,0,0,2.33-.44L12.85,10.88h4l8.45,45.59A5.49,5.49,0,0,0,30.7,61H62.93a2,2,0,1,1,0,3.94H30.7a9.42,9.42,0,0,1-9.27-7.71L19.28,45.6A1.18,1.18,0,0,0,17,46L19.1,57.62a11.79,11.79,0,0,0,11.6,9.65H62.93a4.34,4.34,0,0,0,0-8.68H30.7A3.11,3.11,0,0,1,27.64,56l-.83-4.45H65.12a5.31,5.31,0,0,0,5.23-4.35l2.53-13.65,3-16.11h.53a3.23,3.23,0,1,0,0-6.45ZM60.55,32.17h-7.2l.57-14.68h8.24ZM20.49,17.49h8.86L31,32.17H23.21Zm11.25,0H40l.57,14.68H33.35Zm10.6,0h9.21L51,32.17H42.91ZM8.79,6.32H4.34a2,2,0,0,1,0-3.95H8.79a7.82,7.82,0,0,1,7.63,6.14H12.27A3.85,3.85,0,0,0,8.79,6.32ZM23.65,34.54h7.57l1.61,14.68H26.37Zm10,0h7l.57,14.68h-6Zm10,14.68L43,34.54h7.89l-.57,14.68Zm9.12,0,.57-14.68h7L58.68,49.22ZM68,46.81a2.93,2.93,0,0,1-2.89,2.41H61.06l1.61-14.68H70.3Zm2.72-14.64H62.93l1.61-14.68h8.92Z"/><path d="M57.91,73.43a1.2,1.2,0,0,0-2.19,0,1.21,1.21,0,0,0,.34,1.37,1.19,1.19,0,0,0,1.85-1.37Z"/><path d="M33.38,73.43a1.18,1.18,0,0,0-2.2,0,1.18,1.18,0,1,0,2.2,0Z"/></g></g></svg>