<svg xmlns="http://www.w3.org/2000/svg" viewBox="0 0 155 155"><defs><style>.cls-1{fill:#424242;}.cls-2{fill:none;stroke:#424242;stroke-linecap:round;stroke-linejoin:round;stroke-width:2px;}</style></defs><title>cauchos</title><g id="Capa_2" data-name="Capa 2"><g id="Capa_1-2" data-name="Capa 1"><path class="cls-1" d="M62,15.68a2.6,2.6,0,1,1-2.6-2.6,2.6,2.6,0,0,1,2.6,2.6Z"/><circle class="cls-2" cx="77.5" cy="77.5" r="76.5"/><circle class="cls-2" cx="77.5" cy="78" r="47"/><circle class="cls-2" cx="78" cy="77.5" r="20.5"/><path class="cls-2" d="M17.5,52s8-21,34-34"/><polyline class="cls-2" points="48.45 42.05 62.91 63 72.5 57.25 60.73 35"/><polyline class="cls-2" points="94.41 34.91 83.5 57.34 92.14 62 107.49 42"/><path class="cls-2" d="M123.81,69.92C123.52,70,98.5,73,98.5,73V83l25.31,3.07"/><polyline class="cls-2" points="106.65 113.85 92.14 93 83.5 97.68 94.51 121"/><polyline class="cls-2" points="60.6 121.9 71.5 97.43 62.71 92 47.79 114.49"/><polyline class="cls-2" points="31.21 86.14 57.5 82.29 57.5 72.72 31.19 69.92"/><circle class="cls-2" cx="77.5" cy="78" r="8"/><path class="cls-2" d="M95.5,140s31-7,41-36"/></g></g></svg>