<svg xmlns="http://www.w3.org/2000/svg" viewBox="0 0 149 61.17"><defs><style>.cls-1{fill:#424242;}</style></defs><title>codigo</title><g id="Capa_2" data-name="Capa 2"><g id="Layer_1" data-name="Layer 1"><path class="cls-1" d="M30.09,15.06a3.41,3.41,0,1,0,3.41,3.41,3.41,3.41,0,0,0-3.41-3.41Zm0,3.64a.23.23,0,1,1,0-.45.22.22,0,0,1,.22.22.22.22,0,0,1-.22.23Z"/><path class="cls-1" d="M46.24,15.06a3.41,3.41,0,1,0,3.41,3.41,3.41,3.41,0,0,0-3.41-3.41Zm0,3.64a.23.23,0,1,1,0-.45.22.22,0,0,1,.22.22.22.22,0,0,1-.22.23Z"/><path class="cls-1" d="M62.39,15.06a3.41,3.41,0,1,0,3.41,3.41,3.41,3.41,0,0,0-3.41-3.41Zm0,3.64a.23.23,0,1,1,0-.45.22.22,0,0,1,.22.22.22.22,0,0,1-.22.23Z"/><path class="cls-1" d="M78.54,15.06A3.41,3.41,0,1,0,82,18.47a3.42,3.42,0,0,0-3.41-3.41Zm0,3.64a.23.23,0,1,1,0-.45.22.22,0,0,1,.22.22.22.22,0,0,1-.22.23Z"/><path class="cls-1" d="M98.1,18.47a3.42,3.42,0,1,0-3.41,3.41,3.41,3.41,0,0,0,3.41-3.41Zm-3.64,0a.22.22,0,0,1,.23-.22.22.22,0,0,1,.22.22.23.23,0,1,1-.45,0Z"/><path class="cls-1" d="M13.94,15.06a3.41,3.41,0,1,0,3.41,3.41,3.41,3.41,0,0,0-3.41-3.41Zm0,3.64a.23.23,0,1,1,0-.45.22.22,0,0,1,.22.22.22.22,0,0,1-.22.23Z"/><path class="cls-1" d="M124.77,9.16V4.85A4.85,4.85,0,0,0,119.93,0H4.85A4.85,4.85,0,0,0,0,4.85V32.1A4.85,4.85,0,0,0,4.85,37H97A26,26,0,1,0,124.77,9.16ZM3.63,32.1V4.85A1.22,1.22,0,0,1,4.85,3.63H119.93a1.22,1.22,0,0,1,1.21,1.22V9.16A26.07,26.07,0,0,0,97,33.31H4.85A1.22,1.22,0,0,1,3.63,32.1ZM123,57.54a22.41,22.41,0,1,1,22.41-22.41A22.41,22.41,0,0,1,123,57.54Z"/><path class="cls-1" d="M131.87,27.34,120.15,39.06,114,33a1.82,1.82,0,1,0-2.57,2.57l7.4,7.4a1.82,1.82,0,0,0,2.57,0l13-13a1.82,1.82,0,0,0-2.57-2.57Z"/></g></g></svg>