<svg xmlns="http://www.w3.org/2000/svg" viewBox="0 0 172.51 220"><defs><style>.cls-1{fill:#e66416;}</style></defs><title>comprar</title><g id="Capa_2" data-name="Capa 2"><g id="Layer_1" data-name="Layer 1"><path class="cls-1" d="M31.18,220H141.32a31.78,31.78,0,0,0,23.77-10.48,28.52,28.52,0,0,0,7.23-22.47L158.78,69.54a3.51,3.51,0,0,0-3.56-3.09h-7V3.59A3.41,3.41,0,0,0,144.84,0H94.56a3.8,3.8,0,0,0-3.82,3.59V23.8H73.68v-9a3.41,3.41,0,0,0-3.37-3.6H27.66a3.8,3.8,0,0,0-3.82,3.6V66.45H17.29a3.52,3.52,0,0,0-3.57,3.09L.19,187.1a28.47,28.47,0,0,0,7.23,22.45A31.75,31.75,0,0,0,31.18,220ZM97.93,7.18H141V66.45H106.46V27.39a3.41,3.41,0,0,0-3.37-3.59H97.93Zm1.34,59.27H60.21V31H99.27ZM31,18.41H66.5V23.8H56.84A3.78,3.78,0,0,0,53,27.39V66.45H31ZM7.33,188,20.49,73.63H152L165.18,188a21.36,21.36,0,0,1-5.45,16.82,24.59,24.59,0,0,1-18.41,8H31.18a24.53,24.53,0,0,1-18.4-8A21.28,21.28,0,0,1,7.33,188Z"/><path class="cls-1" d="M87.6,167.33c24.46,0,44.45-18.92,44.45-42.18V88a3.59,3.59,0,1,0-7.18,0v37.15c0,19.3-16.77,35-37.27,35s-37.27-15.7-37.27-35V88a3.59,3.59,0,1,0-7.18,0v37.15c0,23.26,20,42.18,44.45,42.18Z"/></g></g></svg>