<svg xmlns="http://www.w3.org/2000/svg" viewBox="0 0 67 65"><defs><style>.cls-1{fill:#ea6416;}</style></defs><title>comprasnaranja</title><g id="Capa_2" data-name="Capa 2"><g id="Layer_1" data-name="Layer 1"><path class="cls-1" d="M25.86,56.89a2.44,2.44,0,1,0,2.44,2.44,2.43,2.43,0,0,0-2.44-2.44Zm0,2.91a.47.47,0,1,1,.48-.47.48.48,0,0,1-.48.47Zm22.4-2.91a2.44,2.44,0,1,0,2.44,2.44,2.43,2.43,0,0,0-2.44-2.44Zm0,2.91a.47.47,0,0,1,0-.94.47.47,0,1,1,0,.94ZM67,17.52a3.73,3.73,0,0,0-3.73-3.73H17.87L16.19,3.05a3.59,3.59,0,0,0-3.57-3h-9a3.61,3.61,0,1,0,0,7.21H9.54l5.81,37a3.51,3.51,0,0,0,.24.84,6.41,6.41,0,0,0,4.67,10.59h1.32a5.67,5.67,0,1,0,8.57,0H44a5.67,5.67,0,1,0,8.57,0h1.62a3.28,3.28,0,0,0,0-6.56h-31l37.29-4.18A3.25,3.25,0,0,0,61,38.54,7.87,7.87,0,0,0,63.31,33v0h0V21.24A3.75,3.75,0,0,0,67,17.52ZM25.86,63a3.7,3.7,0,1,1,3.7-3.69A3.69,3.69,0,0,1,25.86,63Zm22.4,0A3.7,3.7,0,1,1,52,59.33,3.69,3.69,0,0,1,48.26,63ZM35.38,21.24V25.5H28.3V21.24Zm9,0V25.5H37.35V21.24Zm9,0V25.5H46.4V21.24Zm7.87,0V25.5h-5.9V21.24Zm-35,20.89-3.91.43-1.36-8.64h5.27Zm2-8.21h7.08v7.2l-7.08.79Zm9.05,7v-7h7.08v6.2l-4.84.54Zm9-1v-6h7.08v5.2Zm0-7.95V27.46h7.08V32Zm-2,0H37.35V27.46h7.08Zm-9,0H28.3V27.46h7.08Zm-9,0H20.76l-.71-4.49h6.29ZM56,38.83l-.59.07v-5h5.81A6,6,0,0,1,56,38.83ZM55.45,32V27.46h5.9V32ZM26.34,25.5H19.75l-.67-4.26h7.26Zm-15-19.42a1,1,0,0,0-1-.83H9.66V3.84a1,1,0,0,0-2,0V5.25H6.27V3.84a1,1,0,0,0-2,0V5.25H3.61A1.64,1.64,0,0,1,3.61,2h9a1.63,1.63,0,0,1,1.62,1.38l1.85,11.79L16.38,17l4.06,25.82-.7.08a4.58,4.58,0,0,0-.63.1l-.19,0-.42.11-.2.07-.39.15-.19.09-.39.2-.07,0ZM60.21,42.94l-40,4.48A1.82,1.82,0,0,0,20.34,51H54.17a1.31,1.31,0,0,1,0,2.62H20.31a4.44,4.44,0,0,1-2.84-7.73h0a4.54,4.54,0,0,1,1.11-.73l.08,0a4.3,4.3,0,0,1,.57-.2l.11,0a6.18,6.18,0,0,1,.62-.12l40-4.43h.15a1.28,1.28,0,0,1,1.28,1.28,1.29,1.29,0,0,1-1.14,1.28Zm3.07-23.67H18.74l0-.17-.52-3.34H63.28a1.76,1.76,0,0,1,0,3.51Z"/></g></g></svg>