<svg xmlns="http://www.w3.org/2000/svg" viewBox="0 0 173.01 191.73"><defs><style>.cls-1{fill:#fff;}</style></defs><title>comprador_1</title><g id="Capa_2" data-name="Capa 2"><g id="Layer_1" data-name="Layer 1"><path class="cls-1" d="M35,43c-12.41,0-22.51-9.64-22.51-21.49S22.58,0,35,0,57.51,9.64,57.51,21.48,47.41,43,35,43ZM35,10.3A11.47,11.47,0,0,0,23.28,21.48,11.46,11.46,0,0,0,35,32.66,11.47,11.47,0,0,0,46.71,21.48,11.48,11.48,0,0,0,35,10.3ZM45.82,189.84l.1.1a2.73,2.73,0,0,0,.23.25l.14.12.22.2.17.13.23.16.19.12.23.13.2.1a1.92,1.92,0,0,0,.25.12l.2.08.28.1.19.06.34.08.15,0a3.47,3.47,0,0,0,.45.06h.06a4.89,4.89,0,0,0,.54,0h14.6a5.16,5.16,0,1,0,0-10.31H54.74L40.35,76.8a5.37,5.37,0,0,0-6.06-4.44,5.2,5.2,0,0,0-4.65,5.78l15,109.11c0,.06,0,.11,0,.17a1.09,1.09,0,0,0,0,.26,1.41,1.41,0,0,0,.06.22,2.5,2.5,0,0,0,.07.26l.09.24.08.21c.06.13.13.26.2.38l0,0a3.62,3.62,0,0,0,.27.41l0,.06a3.75,3.75,0,0,0,.26.33ZM79.17,95.23c-5.87-10.76-12.51-23-13.4-24.69-4.36-8.49-9.45-16.51-17-17.71-3.16-.49-19.2-.68-25.5-.39a5.16,5.16,0,1,0,.51,10.29c7-.32,21.35,0,23.24.27,1.17.19,3.93,2,9.11,12.08.87,1.7,6.15,11.4,13.51,24.9a5.42,5.42,0,0,0,4.79,2.78,5.67,5.67,0,0,0,2.49-.58,5,5,0,0,0,2.3-7ZM1.52,190.15l.16.16a1.92,1.92,0,0,0,.22.18c.06.06.12.1.18.15l.23.16.21.13.22.13.28.14.19.08.33.13.12.05h0l.23.06.28.07.18,0,.37.05h.1l.53,0H20a5.16,5.16,0,1,0,0-10.31H12.93l17-47.74a5.11,5.11,0,0,0-3.38-6.53,5.47,5.47,0,0,0-6.85,3.22L.28,184.92v0c-.05.13-.08.25-.12.38l0,.13c0,.11,0,.21-.06.32A1.52,1.52,0,0,0,0,186a2,2,0,0,0,0,.25,2.46,2.46,0,0,0,0,.28v.06s0,.11,0,.16A2.81,2.81,0,0,0,0,187a1.87,1.87,0,0,0,0,.25l0,.24c0,.1,0,.19.07.29s0,.12,0,.19.07.2.11.3a.76.76,0,0,0,.06.16c0,.1.09.2.14.3l.07.16.16.27.1.16.18.24.14.18a1.54,1.54,0,0,0,.17.19,1.07,1.07,0,0,0,.18.19ZM78.24,120l20.14,51.39a5.41,5.41,0,0,0,5.06,3.35h53.8a5.36,5.36,0,0,0,5.28-4.07L172.88,125a5,5,0,0,0-1.07-4.32,5.5,5.5,0,0,0-4.2-1.92H108.75a5.16,5.16,0,1,0,0,10.31h52.16l-8,35.37h-45.7L87,113.06l0-.08c0-.09-.08-.19-.12-.28l-.1-.2c0-.08-.09-.15-.14-.23l-.14-.22a1.09,1.09,0,0,0-.13-.17l-.18-.25-.12-.13-.23-.24-.13-.12-.25-.21a1.67,1.67,0,0,0-.16-.12l-.25-.18-.2-.13-.23-.12-.25-.13-.21-.09-.27-.11-.22-.07-.26-.08-.25-.06-.23,0-.32,0h-.18l-.37,0H65.93a5.16,5.16,0,1,0,0,10.3Zm63,65.3v1.26a5.41,5.41,0,0,0,10.8,0v-1.26a5.41,5.41,0,0,0-10.8,0Zm-32.33,0v1.26a5.41,5.41,0,0,0,10.8,0v-1.26a5.41,5.41,0,0,0-10.8,0Z"/></g></g></svg>