<svg xmlns="http://www.w3.org/2000/svg" viewBox="0 0 139.54 130.15"><defs><style>.cls-1{fill:#424242;}.cls-2,.cls-3{fill:none;stroke:#424242;stroke-width:2px;}.cls-2{stroke-miterlimit:10;}.cls-3{stroke-linecap:round;stroke-linejoin:round;}</style></defs><title>construccion_2</title><g id="Capa_2" data-name="Capa 2"><g id="Capa_1-2" data-name="Capa 1"><path class="cls-1" d="M83.33,2A6.65,6.65,0,0,1,90,7.4c23.66,7.74,39.82,28.32,40.68,51.82h.09a6.57,6.57,0,0,1,6.77,6.35v4.24a6.58,6.58,0,0,1-6.77,6.36H8.78A6.58,6.58,0,0,1,2,69.81V65.57a6.57,6.57,0,0,1,6.78-6.35h.09c.85-23.5,17-44.08,40.67-51.82A6.66,6.66,0,0,1,56.22,2H83.33m0-2H56.22a8.69,8.69,0,0,0-8.35,5.85A62.25,62.25,0,0,0,19.08,26.16,56.58,56.58,0,0,0,7,57.4a8.48,8.48,0,0,0-7,8.17v4.24a8.59,8.59,0,0,0,8.78,8.36h122a8.58,8.58,0,0,0,8.77-8.36V65.57a8.47,8.47,0,0,0-7-8.17,56.5,56.5,0,0,0-12.12-31.24A62.27,62.27,0,0,0,91.68,5.85,8.7,8.7,0,0,0,83.33,0Z"/><path class="cls-2" d="M135.29,95.24H126A11.17,11.17,0,0,0,115,86.76H24.59c-6.23,0-11.29,4.75-11.29,10.6h-9A2.19,2.19,0,0,0,2,99.48v17a2.19,2.19,0,0,0,2.26,2.12l9.22.46c2,6.28,8.64,10.12,15.63,10.14H42.66a30,30,0,0,0,25.23-13.44,2.31,2.31,0,0,1,3.06-.66,2.1,2.1,0,0,1,.7.66,30,30,0,0,0,25.23,13.44h13.56c7.85,0,14.51-5.43,15.63-12.72h9.22a2.19,2.19,0,0,0,2.25-2.12v-17a2.19,2.19,0,0,0-2.25-2.12Z"/><line class="cls-3" x1="8.82" y1="58.32" x2="130.72" y2="58.32"/><line class="cls-3" x1="48.85" y1="7.12" x2="48.85" y2="49.69"/><line class="cls-3" x1="90.7" y1="6.27" x2="90.7" y2="48.84"/><line class="cls-3" x1="69.77" y1="1.15" x2="69.77" y2="54.91"/><line class="cls-2" x1="126.17" y1="95.01" x2="126.17" y2="116.35"/><line class="cls-3" x1="13.37" y1="96.72" x2="13.37" y2="118.05"/><line class="cls-2" x1="126.17" y1="101.84" x2="137.54" y2="101.84"/><line class="cls-2" x1="1.54" y1="103.55" x2="12.92" y2="103.55"/><path class="cls-3" d="M24.29,110.37v-8.53s0-4.27,6.37-4.27H58"/><line class="cls-3" x1="67.04" y1="97.57" x2="72.5" y2="97.57"/></g></g></svg>