<svg xmlns="http://www.w3.org/2000/svg" viewBox="0 0 95.38 109"><defs><style>.cls-1{fill:#424242;}</style></defs><title>contrasena</title><g id="Capa_2" data-name="Capa 2"><g id="Layer_1" data-name="Layer 1"><path class="cls-1" d="M30.65,40H64.71V25c0-9.1-7.64-16.49-17-16.49s-17,7.39-17,16.49V40ZM86.86,72.81V57.05a8.52,8.52,0,0,0-8.52-8.51H17a8.52,8.52,0,0,0-8.51,8.51V92A8.52,8.52,0,0,0,17,100.48H78.34A8.52,8.52,0,0,0,86.86,92a4.26,4.26,0,1,1,8.52,0,17.06,17.06,0,0,1-17,17H17A17,17,0,0,1,0,92V57.05A17,17,0,0,1,17,40h5.1V25c0-13.79,11.46-25,25.55-25S73.23,11.22,73.23,25V40h5.11a17.06,17.06,0,0,1,17,17V72.81a4.26,4.26,0,1,1-8.52,0Zm-19.16.85h0a4.26,4.26,0,1,0,8.51,0h0a4.26,4.26,0,1,0-8.51,0Zm-16.18,0h0a4.26,4.26,0,0,0,8.52,0h0a4.26,4.26,0,0,0-8.52,0Zm-16,0h0a4.26,4.26,0,1,0,8.52,0h0a4.26,4.26,0,1,0-8.52,0ZM23.84,69.4a4.26,4.26,0,0,1,4.26,4.26h0a4.26,4.26,0,1,1-8.51,0h0a4.25,4.25,0,0,1,4.25-4.26Z"/></g></g></svg>