<svg xmlns="http://www.w3.org/2000/svg" viewBox="0 0 75.86 57.73"><defs><style>.cls-1{fill:#e66416;}</style></defs><title>correo_5</title><g id="Capa_2" data-name="Capa 2"><g id="Layer_1" data-name="Layer 1"><path class="cls-1" d="M66.6,0H9.28A9.29,9.29,0,0,0,0,9.28V48.45a9.29,9.29,0,0,0,9.28,9.28h57.3a9.29,9.29,0,0,0,9.28-9.28V9.29A9.28,9.28,0,0,0,66.6,0Zm5,48.45a5,5,0,0,1-5,5H9.28a5,5,0,0,1-5-5V9.29a5,5,0,0,1,5-5h57.3a5,5,0,0,1,5,5V48.45Z"/><path class="cls-1" d="M47.84,28.38,66.39,11.74a2.12,2.12,0,1,0-2.84-3.15L38,31.55l-5-4.46s0,0,0-.05a3.17,3.17,0,0,0-.35-.29L12.29,8.57a2.12,2.12,0,0,0-2.83,3.17L28.24,28.52,9.54,46A2.12,2.12,0,0,0,11,49.69a2.16,2.16,0,0,0,1.45-.56l19-17.75L36.57,36a2.08,2.08,0,0,0,1.41.54A2.13,2.13,0,0,0,39.4,36l5.29-4.74L63.55,49.14a2.07,2.07,0,0,0,1.46.58,2.12,2.12,0,0,0,1.46-3.65Z"/></g></g></svg>