<svg xmlns="http://www.w3.org/2000/svg" viewBox="0 0 39 39"><defs><style>.cls-1{fill:#e66416;}</style></defs><title>correo</title><g id="Capa_2" data-name="Capa 2"><g id="Layer_1" data-name="Layer 1"><path class="cls-1" d="M2,36,.22,37.7a.78.78,0,0,0,0,1.08A.76.76,0,0,0,.76,39a.75.75,0,0,0,.54-.22L3.05,37a.76.76,0,0,0,0-1.08A.75.75,0,0,0,2,36Z"/><path class="cls-1" d="M10.33,37.43a.74.74,0,0,0-.54.23.75.75,0,0,0-.22.53.77.77,0,0,0,.22.54.78.78,0,0,0,.54.23.8.8,0,0,0,.54-.23.77.77,0,0,0,.22-.54.75.75,0,0,0-.22-.53.76.76,0,0,0-.54-.23Z"/><path class="cls-1" d="M22.51,25.09l15-21.61V29.67l-15-4.58Zm-.46,6.24V26.54l3.73,1.14-3.73,3.65ZM32,8.77,20.66,25.08a.75.75,0,0,0-.13.43v4.66L17.19,24.1,32,8.77ZM38.62.1a.76.76,0,0,0-.77,0l-14,8.25a.76.76,0,1,0,.78,1.31l10-5.92L16,23.11,6.75,20.27l12.11-7.16a.78.78,0,0,0,.27-1,.77.77,0,0,0-1.05-.26l-13.59,8a.77.77,0,0,0-.37.75.75.75,0,0,0,.53.64l11.08,3.39,4.89,8.9,0,0a.71.71,0,0,0,.35.31.8.8,0,0,0,.3.06.73.73,0,0,0,.53-.22l5.62-5.49L38,31.43a.78.78,0,0,0,.22,0A.77.77,0,0,0,39,30.7V.76A.78.78,0,0,0,38.62.1Z"/><path class="cls-1" d="M12.52,26.48a.75.75,0,0,0-1.07,0L4.34,33.59a.75.75,0,0,0,0,1.07.74.74,0,0,0,1.07,0l7.11-7.11a.75.75,0,0,0,0-1.07Z"/><path class="cls-1" d="M15.46,32l-3.77,3.76a.76.76,0,0,0,0,1.08.75.75,0,0,0,.54.22.76.76,0,0,0,.54-.22l3.76-3.77A.76.76,0,1,0,15.46,32Z"/><path class="cls-1" d="M28.46,31.7l-3.78,3.78a.75.75,0,0,0,0,1.07.76.76,0,0,0,.54.23.78.78,0,0,0,.54-.23l3.77-3.77a.76.76,0,0,0,0-1.08.75.75,0,0,0-1.07,0Z"/><path class="cls-1" d="M21.06,11.68a.75.75,0,0,0,.53-.22.75.75,0,0,0,0-1.08.75.75,0,0,0-.53-.22.77.77,0,0,0-.54.22.75.75,0,0,0,0,1.08.77.77,0,0,0,.54.22Z"/></g></g></svg>