<svg xmlns="http://www.w3.org/2000/svg" viewBox="0 0 83 83"><defs><style>.cls-1{fill:#fff;}</style></defs><title>correo_4</title><g id="Capa_2" data-name="Capa 2"><g id="Layer_1" data-name="Layer 1"><path class="cls-1" d="M4.2,76.5.47,80.23a1.64,1.64,0,0,0,0,2.3A1.66,1.66,0,0,0,1.62,83a1.64,1.64,0,0,0,1.15-.47L6.5,78.8a1.63,1.63,0,0,0-2.3-2.3Z"/><path class="cls-1" d="M22,79.66a1.62,1.62,0,1,0,0,3.24,1.62,1.62,0,0,0,0-3.24Z"/><path class="cls-1" d="M47.9,53.39l31.86-46V63.14L47.9,53.39Zm-1,13.29V56.49l7.94,2.43-7.94,7.76ZM68,18.66,44,53.37a1.66,1.66,0,0,0-.28.92v9.92L36.58,51.28,68,18.66ZM82.18.21a1.61,1.61,0,0,0-1.63,0L50.85,17.79a1.62,1.62,0,1,0,1.65,2.79L73.81,8,34.11,49.17l-19.75-6L40.13,27.89a1.62,1.62,0,1,0-1.65-2.79L9.55,42.21a1.63,1.63,0,0,0,.35,2.95l23.58,7.21L43.89,71.31l0,0a1.63,1.63,0,0,0,1.39.79,1.63,1.63,0,0,0,1.13-.46L58.4,60l22.5,6.88A1.63,1.63,0,0,0,83,65.33V1.62A1.62,1.62,0,0,0,82.18.21Z"/><path class="cls-1" d="M26.65,56.35a1.61,1.61,0,0,0-2.29,0L9.23,71.48a1.63,1.63,0,0,0,1.15,2.77,1.61,1.61,0,0,0,1.14-.48L26.65,58.64a1.61,1.61,0,0,0,0-2.29Z"/><path class="cls-1" d="M32.89,68.08l-8,8a1.62,1.62,0,1,0,2.29,2.29l8-8a1.62,1.62,0,1,0-2.3-2.29Z"/><path class="cls-1" d="M60.56,67.46l-8,8a1.63,1.63,0,0,0,1.15,2.77,1.59,1.59,0,0,0,1.14-.48l8-8a1.62,1.62,0,1,0-2.29-2.29Z"/><path class="cls-1" d="M44.81,24.86a1.62,1.62,0,1,0-1.14-2.76,1.61,1.61,0,0,0,0,2.29,1.63,1.63,0,0,0,1.14.47Z"/></g></g></svg>