<?xml version="1.0" encoding="utf-8"?>
<!-- Generator: Adobe Illustrator 21.0.2, SVG Export Plug-In . SVG Version: 6.00 Build 0)  -->
<svg version="1.1" id="Layer_1" xmlns="http://www.w3.org/2000/svg" xmlns:xlink="http://www.w3.org/1999/xlink" x="0px" y="0px"
	 viewBox="0 0 268.5 266" style="enable-background:new 0 0 268.5 266;" xml:space="preserve">
<style type="text/css">
	.st0{fill:#EA6416;}
	.st1{fill:none;stroke:#CBD2DA;stroke-width:2;stroke-miterlimit:10;}
	.st2{fill:#E46416;}
	.st3{fill:#424242;}
	.st4{fill:#FFFFFF;}
	.st5{fill:#E66416;}
	.st6{fill:none;stroke:#EA6416;stroke-linecap:round;stroke-miterlimit:10;}
	.st7{fill:#CBD2DA;stroke:#CBD2DA;stroke-width:2;stroke-miterlimit:10;}
	.st8{fill:none;stroke:#AB6416;stroke-width:3;stroke-miterlimit:10;}
	.st9{fill:none;stroke:#AB6416;stroke-width:5;stroke-miterlimit:10;}
	.st10{fill:none;stroke:#AB6416;stroke-miterlimit:10;}
	.st11{fill:none;stroke:#424242;stroke-width:2;stroke-linecap:round;stroke-linejoin:round;stroke-miterlimit:10;}
	.st12{fill:none;stroke:#424242;stroke-width:2;stroke-miterlimit:10;}
	.st13{fill:none;stroke:#424242;stroke-miterlimit:10;}
	.st14{opacity:0.6;fill:#CBD2DA;stroke:#CBD2DA;stroke-width:2;stroke-miterlimit:10;}
	.st15{opacity:0.6;}
	.st16{fill:none;stroke:#E46416;stroke-width:3;stroke-linecap:round;stroke-linejoin:round;stroke-miterlimit:10;}
	.st17{fill:#FFFFFF;stroke:#E46416;stroke-width:3;stroke-linecap:round;stroke-linejoin:round;stroke-miterlimit:10;}
	.st18{fill:#C7CED6;}
	.st19{fill:#CBD2DA;}
	.st20{fill:none;stroke:#E46416;stroke-linecap:round;stroke-miterlimit:10;}
	.st21{fill:#E6E6E6;}
	.st22{fill:#CCCCCC;}
	.st23{fill:#B96416;}
	.st24{fill:#863E02;}
	.st25{fill:#718080;}
	.st26{fill:none;stroke:#EA6416;stroke-width:2;stroke-linecap:round;stroke-miterlimit:10;}
	.st27{fill:none;stroke:#EA6416;stroke-width:2;stroke-miterlimit:10;stroke-dasharray:9;}
	.st28{fill:none;stroke:#EA6416;stroke-width:2;stroke-miterlimit:10;stroke-dasharray:8.8334,8.8334;}
	.st29{fill:none;stroke:#424242;stroke-width:3;stroke-linecap:round;stroke-linejoin:round;stroke-miterlimit:10;}
	.st30{fill:#CBD2DA;stroke:#424242;stroke-width:3;stroke-linecap:round;stroke-linejoin:round;stroke-miterlimit:10;}
	.st31{fill:none;stroke:#E46416;stroke-width:2;stroke-miterlimit:10;}
	.st32{opacity:0.52;fill:#EA6416;}
	.st33{fill:#FFFFFF;stroke:#EA6416;stroke-miterlimit:10;}
	.st34{fill:#424242;stroke:#424242;stroke-linecap:round;stroke-linejoin:round;stroke-miterlimit:10;}
	.st35{fill:#CBD1D9;stroke:#424242;stroke-linecap:round;stroke-linejoin:round;stroke-miterlimit:10;}
	.st36{fill:#B9C0C6;stroke:#424242;stroke-linecap:round;stroke-linejoin:round;stroke-miterlimit:10;}
	.st37{fill:#E96415;stroke:#424242;stroke-linecap:round;stroke-linejoin:round;stroke-miterlimit:10;}
	.st38{fill:#5B6976;}
	.st39{fill:#FFFFFF;stroke:#424242;stroke-miterlimit:10;}
	.st40{opacity:0.51;fill:#464747;stroke:#424242;stroke-linecap:round;stroke-linejoin:round;stroke-miterlimit:10;}
	.st41{fill:#FFFFFF;stroke:#E46416;stroke-width:2;stroke-miterlimit:10;}
	.st42{fill:#EA6416;stroke:#E46416;stroke-width:2;stroke-miterlimit:10;}
	.st43{fill:none;stroke:#E46416;stroke-width:2;stroke-linecap:round;stroke-linejoin:round;stroke-miterlimit:10;}
	.st44{fill:none;stroke:#E46416;stroke-linecap:round;stroke-linejoin:round;stroke-miterlimit:10;}
	.st45{fill:#FFFFFF;stroke:#424242;stroke-width:2;stroke-miterlimit:10;}
	.st46{fill:#FFFFFF;stroke:#EA6416;stroke-width:2;stroke-miterlimit:10;}
	.st47{fill:#3E424B;}
	.st48{fill:none;stroke:#424242;stroke-linecap:round;stroke-linejoin:round;stroke-miterlimit:10;}
	.st49{fill:#E66417;}
	.st50{fill:none;stroke:#EA6416;stroke-width:2;stroke-miterlimit:10;}
	.st51{fill:#FFFFFF;stroke:#E46416;stroke-width:4;stroke-miterlimit:10;}
	.st52{fill:none;stroke:#FFFFFF;stroke-width:2;stroke-miterlimit:10;}
	.st53{fill:#FFFFFF;stroke:#DE6416;stroke-width:2;stroke-miterlimit:10;}
	.st54{fill:#AE6416;}
	.st55{fill:none;stroke:#000000;stroke-miterlimit:10;}
	.st56{opacity:0.4;fill:#E46416;}
	.st57{opacity:0.34;}
	.st58{fill:none;stroke:#E46416;stroke-width:2;stroke-miterlimit:10;stroke-dasharray:12.0239,12.0239;}
	.st59{fill:none;stroke:#CBD2DA;stroke-width:2;stroke-linecap:round;stroke-linejoin:round;stroke-miterlimit:10;}
	.st60{fill:none;stroke:#E46416;stroke-width:2;stroke-linecap:round;stroke-miterlimit:10;}
	.st61{opacity:0.41;}
	.st62{fill:none;stroke:#EA6416;stroke-miterlimit:10;}
	.st63{fill:#EA6416;stroke:#EA6416;stroke-width:2;stroke-miterlimit:10;}
	.st64{fill:none;stroke:#424242;stroke-width:2;stroke-linecap:round;stroke-miterlimit:10;}
	.st65{fill:none;stroke:#E46416;stroke-width:2;stroke-miterlimit:10;stroke-dasharray:12.0574,12.0574;}
	.st66{fill:none;stroke:#E66416;stroke-width:2;stroke-linecap:round;stroke-linejoin:round;stroke-miterlimit:10;}
	.st67{fill:#E66416;stroke:#E66416;stroke-width:4;stroke-linecap:round;stroke-miterlimit:10;}
	.st68{fill:#333333;stroke:#424242;stroke-miterlimit:10;}
	.st69{fill:#424242;stroke:#424242;stroke-miterlimit:10;}
	.st70{fill:#697784;stroke:#424242;stroke-miterlimit:10;}
	.st71{fill:#718091;stroke:#424242;stroke-miterlimit:10;}
	.st72{fill:#D15518;stroke:#424242;stroke-miterlimit:10;}
	.st73{fill:#EA6416;stroke:#424242;stroke-miterlimit:10;}
	.st74{opacity:0.5;}
	.st75{opacity:0.5;fill:#424242;}
	.st76{fill:none;stroke:#E66416;stroke-miterlimit:10;}
	.st77{fill-rule:evenodd;clip-rule:evenodd;fill:none;stroke:#424242;stroke-width:3;stroke-miterlimit:10;}
	.st78{fill-rule:evenodd;clip-rule:evenodd;fill:#424242;}
	.st79{fill:none;stroke:#E66416;stroke-width:3;stroke-miterlimit:10;}
	.st80{fill:none;stroke:#71808D;stroke-width:3;stroke-miterlimit:10;}
	.st81{fill:none;stroke:#838384;stroke-width:5;stroke-linecap:round;stroke-linejoin:round;stroke-miterlimit:10;}
	.st82{fill:#838384;}
	.st83{fill:#DBDBDB;}
	.st84{fill:none;stroke:#424242;stroke-width:0.5;stroke-miterlimit:10;}
	.st85{fill:none;stroke:#E56413;stroke-linecap:round;stroke-linejoin:round;stroke-miterlimit:10;}
	.st86{fill:none;stroke:#E56412;stroke-miterlimit:10;}
	.st87{fill:none;stroke:#E56412;stroke-width:2;stroke-miterlimit:10;}
	.st88{fill:#E56412;}
	.st89{fill:#FFFFFF;stroke:#E56413;stroke-linecap:round;stroke-linejoin:round;stroke-miterlimit:10;}
	.st90{fill:#E56413;}
	.st91{fill:#72808C;stroke:#72808C;stroke-width:2;stroke-linecap:round;stroke-linejoin:round;stroke-miterlimit:10;}
	.st92{fill:none;stroke:#E56415;stroke-width:2;stroke-miterlimit:10;}
	.st93{fill:none;stroke:#E56413;stroke-width:2;stroke-miterlimit:10;}
	.st94{fill:#FFFFFF;stroke:#72808C;stroke-width:2;stroke-linecap:round;stroke-linejoin:round;stroke-miterlimit:10;}
	.st95{fill:none;stroke:#72808C;stroke-width:2;stroke-miterlimit:10;}
	.st96{fill:none;stroke:#73808C;stroke-width:2;stroke-miterlimit:10;}
	.st97{fill:none;stroke:#424242;stroke-width:0.75;stroke-miterlimit:10;}
	.st98{fill:none;stroke:#E56413;stroke-miterlimit:10;}
	.st99{fill:#424242;stroke:#6E6E6E;stroke-width:0.5;stroke-linecap:round;stroke-linejoin:round;stroke-miterlimit:10;}
	.st100{fill:#424242;stroke:#6E6E6E;stroke-width:0.5;stroke-linejoin:round;stroke-miterlimit:10;}
	.st101{fill:#FFFFFF;stroke:#72808C;stroke-width:0.75;stroke-miterlimit:10;}
	.st102{fill:#E56415;}
	.st103{fill:#FFFFFF;stroke:#72808C;stroke-miterlimit:10;}
	.st104{fill:#FFFFFF;stroke:#72808C;stroke-linecap:round;stroke-linejoin:round;stroke-miterlimit:10;}
	.st105{fill:none;stroke:#72808C;stroke-width:0.75;stroke-linecap:round;stroke-linejoin:round;stroke-miterlimit:10;}
	.st106{fill:#FFFFFF;stroke:#E56415;stroke-width:2;stroke-miterlimit:10;}
	.st107{fill:#FFFFFF;stroke:#72808C;stroke-width:2;stroke-miterlimit:10;}
	.st108{fill:#424242;stroke:#424242;stroke-width:0.75;stroke-linecap:round;stroke-linejoin:round;stroke-miterlimit:10;}
	.st109{fill:#72808C;}
	.st110{fill:none;stroke:#C6CDD5;stroke-width:0.25;stroke-miterlimit:10;}
	.st111{fill:#73808C;}
	.st112{fill:none;stroke:#73808C;stroke-width:2;stroke-linecap:round;stroke-linejoin:round;stroke-miterlimit:10;}
	.st113{fill:none;stroke:#72808C;stroke-width:2;stroke-linecap:round;stroke-linejoin:round;stroke-miterlimit:10;}
	.st114{fill:#FFFFFF;stroke:#E66416;stroke-width:2;stroke-linecap:round;stroke-linejoin:round;stroke-miterlimit:10;}
	.st115{fill:none;stroke:#EA6416;stroke-width:3;stroke-linecap:round;stroke-linejoin:round;stroke-miterlimit:10;}
	.st116{fill:none;stroke:#E66416;stroke-width:3;stroke-linecap:round;stroke-linejoin:round;stroke-miterlimit:10;}
	.st117{fill:#FFFFFF;stroke:#E66416;stroke-width:3;stroke-linecap:round;stroke-linejoin:round;stroke-miterlimit:10;}
	.st118{fill:none;stroke:#E66416;stroke-width:2;stroke-miterlimit:10;}
	.st119{fill:none;}
	.st120{font-family:'ProximaNova-Regular';}
	.st121{font-size:38.5378px;}
</style>
<path class="st5" d="M203.6,217c-57,0-114.1,0-171.1,0c-1.1-1-1.5-2.2-1.5-3.7c0.1-2,0-4,0-5.9c0-3,1.3-5.4,3.8-7.1
	c0.6-0.4,1-1.3,1.1-1.9c0.1-3.3,0-6.6,0.1-9.9c0.1-2.7,1.4-4.8,3.9-6c0.8-0.4,1.7-0.6,2.6-0.9c0-21.2,0-42.5,0-63.7
	c-5.2-1.7-6.5-3.5-6.5-9c0-2.6,0.1-5.3,0-7.9c0-0.6-0.4-1.5-0.9-1.9c-2.8-1.8-4-4.3-4-7.5c0-2.5,0-5,0-7.5c-1.7-0.1-2.9-0.7-3.2-2.3
	c-0.2-1.7,0.8-2.5,2.1-3.1c11.3-5.9,22.7-11.9,34-17.8c17.2-9,34.3-18,51.5-27.1c1.8-0.9,3.4-1,5.1,0c0.6,0.3,1.2,0.6,1.7,0.9
	c24.8,13.1,49.7,26.1,74.5,39.2c3.2,1.7,6.4,3.4,9.7,5.1c1.2,0.6,2.1,1.5,1.9,3c-0.2,1.4-1.2,2.1-2.6,2.3c-0.2,0-0.4,0.1-0.7,0.2
	c0,2.6,0,5.2,0,7.8c0,2.9-1.2,5.3-3.7,6.7c-1,0.6-1.2,1.3-1.2,2.3c0,3.2,0,6.5,0,9.7c0,2.5-1.2,4.4-3.3,5.6c-1,0.6-2.1,0.9-3.2,1.4
	c0,21.2,0,42.4,0,63.6c4.9,1.3,6.5,3.4,6.5,8.4c0,2.8-0.1,5.6,0.1,8.4c0,0.7,0.5,1.6,1.1,1.9c2.6,1.7,3.8,4.1,3.8,7.1
	c0,2-0.1,4,0,5.9C205.1,214.8,204.7,216,203.6,217z M167.7,118c-5.5-2-6.7-3.6-6.7-9.5c0-2.7,0-5.5,0-8.2c-7.9,0-15.6,0-23.5,0
	c0,3.6,0,7,0,10.4c0,2-0.7,3.8-2.2,5.1c-1.2,1-2.7,1.6-4.3,2.5c0,21,0,42.2,0,63.4c5.2,1.7,6.5,3.5,6.5,8.8c0,2.1,0,4.2,0,6.3
	c0,0.9,0,1.7,0,2.6c8,0,15.6,0,23.2,0c0.1-0.2,0.2-0.3,0.2-0.4c0-3.2,0-6.5,0.1-9.7c0-3.3,1.8-6.1,4.7-6.9c1.6-0.4,2-1.1,2-2.7
	c-0.1-19.9,0-39.8,0-59.7C167.7,119.2,167.7,118.6,167.7,118z M75.1,100.2c0,3.4,0,6.8,0,10.1c0,2.2-0.7,4.1-2.3,5.4
	c-1.2,1-2.7,1.6-4.3,2.5c0,0.1-0.1,0.4-0.1,0.8c0,20.4,0,40.8,0,61.3c0,1,0.3,1.4,1.3,1.8c3.6,1.1,5.4,3.6,5.4,7.3
	c0,2.6,0,5.3,0,7.9c0,0.7,0.1,1.4,0.1,2c7.9,0,15.5,0,23.3,0c0-3.6,0-7,0-10.5c0-3.1,1.9-5.7,4.8-6.6c0.6-0.2,1.1-0.3,1.7-0.5
	c0-21.3,0-42.5,0-63.7c-5.4-1.9-6.5-3.5-6.5-9.3c0-2.8,0-5.6,0-8.5C90.6,100.2,83,100.2,75.1,100.2z M44.9,77.1
	c48.9,0,97.3,0,145.8,0c-0.4-0.6-0.9-1-1.5-1.2c-23.1-12.2-46.3-24.3-69.4-36.5c-1.2-0.6-2.1-0.7-3.3-0.1
	C93.1,51.5,69.8,63.8,46.4,76.1C46,76.3,45.7,76.6,44.9,77.1z M118,94.8c22.2,0,44.4,0,66.7,0c4.1,0,8.1,0,12.2,0
	c1.9,0,2.7-0.8,2.8-2.7c0-2.3,0-4.6,0-6.8c0-1.7-0.9-2.5-2.5-2.6c-0.5,0-1.1,0-1.6,0c-51.7,0-103.4,0-155.1,0c-0.5,0-1.1,0-1.6,0
	c-1.6,0.1-2.5,1-2.5,2.7c0,1.9,0,3.8,0,5.7c0,3.4,0.4,3.8,3.9,3.8C66.2,94.8,92.1,94.8,118,94.8z M199.7,211.8c0-1.1,0-2,0-2.9
	c0-3.8-0.5-4.2-4.2-4.2c-51.7,0-103.4,0-155,0c-0.6,0-1.3-0.2-1.8,0.1c-0.8,0.5-2,1.2-2.2,2c-0.3,1.6-0.1,3.3-0.1,5.1
	C90.9,211.8,145.2,211.8,199.7,211.8z M48,181.8c4.4,0,8.5,0,12.7,0c2.4,0,2.4,0,2.4-2.3c0-19.8,0-39.5,0-59.3c0-0.5,0.1-1,0-1.4
	c-0.1-0.4-0.5-0.9-0.8-0.9c-4.7-0.1-9.4,0-14.2,0C48,139.2,48,160.3,48,181.8z M125.5,181.6c0.1-0.5,0.1-0.9,0.1-1.3
	c0-20.3,0-40.7,0-61c0-1.3-0.5-1.6-1.7-1.6c-3.8,0.1-7.7,0.1-11.5,0c-1.6-0.1-2.1,0.4-2.1,2.1c0.1,20,0,40,0,60
	c0,0.6,0.1,1.3,0.1,1.9C115.7,181.6,120.5,181.6,125.5,181.6z M188.1,117.8c-4.5,0-8.9,0.1-13.2,0c-1.7,0-2,0.5-2,2.1
	c0,20,0,40,0,60c0,0.6,0.1,1.3,0.1,1.9c5.1,0,10.1,0,15.1,0C188.1,160.3,188.1,139.2,188.1,117.8z M69.7,195.9c-9.5,0-18.8,0-28.3,0
	c0,1.2,0,2.3,0,3.3c9.5,0,18.9,0,28.3,0C69.7,198.1,69.7,197.1,69.7,195.9z M194.7,196c-9.5,0-18.9,0-28.3,0c0,1.2,0,2.2,0,3.3
	c9.5,0,18.8,0,28.3,0C194.7,198.1,194.7,197.1,194.7,196z M132.2,196c-9.5,0-18.8,0-28.3,0c0,1.1,0,2.2,0,3.3c9.5,0,18.8,0,28.3,0
	C132.2,198.1,132.2,197.1,132.2,196z M41.5,108.9c-0.5,2.9,0,3.5,2.7,3.5c7.5,0,15.1,0,22.6,0c0.4,0,0.8,0,1.3,0
	c1.5-0.2,1.8-1.2,1.7-2.5c0-1.4-1.1-1-1.8-1c-7.6,0-15.2,0-22.8,0C44,108.9,42.8,108.9,41.5,108.9z M104.1,109
	c-0.7,2.6-0.1,3.4,2.5,3.4c7.7,0,15.3-0.1,23,0.1c2.2,0,3.4-1.3,2.4-3.5C122.7,109,113.4,109,104.1,109z M180.5,108.9
	c-4.3,0-8.5,0-12.8,0c-1.3,0-1.6,0.5-1.5,1.6c0.1,1.6,1.2,2,2.6,2c7.8,0,15.6,0,23.4,0c0.4,0,0.7,0,1.1-0.1c1.4-0.3,1.5-1.4,1.4-2.5
	c0-1.3-1-1-1.7-1C188.9,108.9,184.7,108.9,180.5,108.9z M132.2,100.2c-9.4,0-18.8,0-28.2,0c0,1.1,0,2.2,0,3.2c9.5,0,18.8,0,28.2,0
	C132.2,102.2,132.2,101.3,132.2,100.2z M166.4,103.4c9.5,0,18.9,0,28.3,0c0-1.2,0-2.1,0-3.2c-9.5,0-18.8,0-28.3,0
	C166.4,101.3,166.4,102.3,166.4,103.4z M41.4,103.4c9.5,0,18.9,0,28.3,0c0-1.2,0-2.2,0-3.2c-9.5,0-18.8,0-28.3,0
	C41.4,101.3,41.4,102.3,41.4,103.4z M69.7,190.4c0.2-2.8-0.3-3.3-2.9-3.3c-7.6,0-15.2,0-22.8,0c-2.5,0-3,0.7-2.5,3.3
	C50.8,190.4,60.2,190.4,69.7,190.4z M132,190.4c0.5-2.7,0-3.3-2.5-3.3c-7.7,0-15.4,0-23.2,0c-2.4,0-3,0.9-2.2,3.3
	C113.4,190.4,122.8,190.4,132,190.4z M166.5,190.4c9.5,0,18.8,0,28.2,0c0.3-2.8-0.2-3.3-2.7-3.3c-7.6,0-15.2,0-22.8,0
	C166.7,187.1,166.1,187.8,166.5,190.4z"/>
<g>
	<circle class="st5" cx="208.4" cy="189" r="36.4"/>
	<rect x="187.6" y="174.9" class="st119" width="46.5" height="26.3"/>
	<text transform="matrix(1 0 0 1 187.5695 200.6442)" class="st4 st120 st121">Bs</text>
</g>
</svg>
