<svg xmlns="http://www.w3.org/2000/svg" viewBox="0 0 44.43 45.34"><defs><style>.cls-1{fill:#e36416;}</style></defs><title>debit_naranja</title><g id="Capa_2" data-name="Capa 2"><g id="Layer_1" data-name="Layer 1"><path class="cls-1" d="M.83,12.52a2.45,2.45,0,0,0,0,.27v1.87A1.85,1.85,0,0,0,2,16.39v2.74a1.72,1.72,0,0,0,1.64,1.72V36.7A1.72,1.72,0,0,0,2,38.42v2.73A1.86,1.86,0,0,0,.81,42.9v1.82a.61.61,0,0,0,.61.62H43a.62.62,0,0,0,.62-.62V42.9a1.88,1.88,0,0,0-1.2-1.75V38.4a1.73,1.73,0,0,0-1.64-1.72V20.85a1.73,1.73,0,0,0,1.64-1.72V16.39a1.85,1.85,0,0,0,1.2-1.73V12.81a1.24,1.24,0,0,0,0-.27.62.62,0,0,0,.81-.32.61.61,0,0,0-.31-.81L22.49.07a.66.66,0,0,0-.58,0L.33,11.4a.61.61,0,0,0,.5,1.12Zm2.41,4.93V16.5h7.11v.95Zm15.82,3.4V36.7a1.73,1.73,0,0,0-1.64,1.72V41H11.57V38.42A1.73,1.73,0,0,0,9.93,36.7V20.85a1.73,1.73,0,0,0,1.64-1.72V16.5h5.84v2.63a1.73,1.73,0,0,0,1.64,1.72Zm-.41-3.4V16.5h7.11v.95Zm15.83,3.4V36.7a1.74,1.74,0,0,0-1.65,1.72V41H27V38.42a1.72,1.72,0,0,0-1.64-1.72V20.85A1.72,1.72,0,0,0,27,19.13V16.5h5.85v2.63a1.72,1.72,0,0,0,1.64,1.72Zm-.41-3.4V16.5h7.1v.95Zm7.1,22.65V41H34.06V40.1Zm-15.41,0V41H18.64V40.1ZM19.67,19.63h-.53a.5.5,0,0,1-.5-.5v-.44h7.11v.44a.49.49,0,0,1-.49.5Zm4.44,1.23V36.69H20.29V20.86ZM19.67,37.93h5.59a.49.49,0,0,1,.49.49v.45H18.64v-.45a.49.49,0,0,1,.5-.49ZM10.34,40.1V41H3.23V40.1Zm-7.11-21v-.46h7.11v.44a.5.5,0,0,1-.5.5H3.71a.5.5,0,0,1-.48-.5Zm5.46,1.72V36.69H4.87V20.86ZM3.23,38.43a.49.49,0,0,1,.49-.49H9.84a.49.49,0,0,1,.5.49v.45H3.23Zm39.14,4.49v1.21H2V42.92a.64.64,0,0,1,.64-.64H41.73a.64.64,0,0,1,.64.63Zm-1.2-4.49v.45H34.06v-.45a.49.49,0,0,1,.49-.49h6.14a.49.49,0,0,1,.48.48ZM35.7,36.71V20.86h3.83V36.69Zm5.47-17.56a.49.49,0,0,1-.5.49H34.56a.49.49,0,0,1-.5-.49v-.46h7.11ZM22.2,1.3,40.55,11H3.85ZM2,12.81a.62.62,0,0,1,.62-.62h39.1a.62.62,0,0,1,.62.62v1.86a.62.62,0,0,1-.62.62H2.65A.62.62,0,0,1,2,14.67Z"/></g></g></svg>