<svg xmlns="http://www.w3.org/2000/svg" viewBox="0 0 40 40"><defs><style>.cls-1{fill:#e26416;}</style></defs><title>delete</title><g id="Capa_2" data-name="Capa 2"><g id="Layer_1" data-name="Layer 1"><path class="cls-1" d="M20,0A20,20,0,1,0,40,20,20,20,0,0,0,20,0Zm0,36.57A16.57,16.57,0,1,1,36.57,20,16.58,16.58,0,0,1,20,36.57Z"/><path class="cls-1" d="M27.74,12.26a1.71,1.71,0,0,0-2.42,0L20,17.58l-5.31-5.32a1.72,1.72,0,0,0-2.43,2.43L17.58,20l-5.32,5.32a1.71,1.71,0,0,0,0,2.42,1.69,1.69,0,0,0,1.21.5,1.71,1.71,0,0,0,1.22-.5L20,22.43l5.32,5.31a1.71,1.71,0,0,0,2.42,0,1.71,1.71,0,0,0,0-2.42L22.42,20l5.32-5.31a1.72,1.72,0,0,0,0-2.43Z"/></g></g></svg>