<svg xmlns="http://www.w3.org/2000/svg" viewBox="0 0 43.59 62"><defs><style>.cls-1{fill:#424242;}</style></defs><title>direccion</title><g id="Capa_2" data-name="Capa 2"><g id="Layer_1" data-name="Layer 1"><path class="cls-1" d="M37.4,31.1,22.07,56.69,6.34,31.34A18.17,18.17,0,1,1,37.4,31.1ZM21.8,0A21.81,21.81,0,0,0,3.25,33.26L20.56,61.14A1.79,1.79,0,0,0,22.1,62h0a1.82,1.82,0,0,0,1.55-.88L40.52,33A21.8,21.8,0,0,0,21.8,0Z"/><path class="cls-1" d="M21.8,29.09a7.29,7.29,0,1,1,7.27-7.29,7.3,7.3,0,0,1-7.27,7.29Zm0-18.19A10.9,10.9,0,1,0,32.7,21.8,10.91,10.91,0,0,0,21.8,10.9Z"/></g></g></svg>