<svg xmlns="http://www.w3.org/2000/svg" viewBox="0 0 126 127"><defs><style>.cls-1{fill:#fff;}.cls-2{fill:none;stroke:#fff;stroke-linecap:round;stroke-linejoin:round;stroke-width:2px;}</style></defs><title>electrodomesticosblanco</title><g id="Capa_2" data-name="Capa 2"><g id="Capa_1-2" data-name="Capa 1"><rect class="cls-1" x="114.61" y="16.52" width="4.13" height="4.13"/><rect class="cls-1" x="114.61" y="8.26" width="4.13" height="4.13"/><rect class="cls-1" x="106.35" y="16.52" width="4.13" height="4.13"/><rect class="cls-1" x="106.35" y="8.26" width="4.13" height="4.13"/><rect class="cls-1" x="98.1" y="16.52" width="4.13" height="4.13"/><rect class="cls-1" x="98.1" y="8.26" width="4.13" height="4.13"/><rect class="cls-1" x="89.84" y="16.52" width="4.13" height="4.13"/><rect class="cls-1" x="89.84" y="8.26" width="4.13" height="4.13"/><polyline class="cls-2" points="22 82.15 22 1 125 1 125 126 22 126"/><path class="cls-2" d="M39.07,87.38a37.46,37.46,0,1,1,18.54,19.1"/><path class="cls-2" d="M48.94,89.06A27.62,27.62,0,0,1,44,72.5a29.48,29.48,0,1,1,19.28,27.68"/><rect class="cls-2" x="1" y="97" width="62" height="9"/><path class="cls-2" d="M22,126H17.59A12.59,12.59,0,0,1,5,113.41V106H22"/><path class="cls-2" d="M22,106H59v7.41A12.59,12.59,0,0,1,46.41,126H22"/><path class="cls-2" d="M5,97s0-5,4-7c0,0,2-16,16-6,0,0,7-4,12,3a7.89,7.89,0,0,1,7,5s11-9,15,5"/><path class="cls-2" d="M44.26,76.39S48,78,53,75c0,0,3-5,9,0,0,0,3,3,6,0,0,0,5-5,10,0,0,0,2,4,7,0,0,0,4-5,10,0a10.37,10.37,0,0,0,7.69,1.82"/><circle class="cls-2" cx="34.5" cy="14.5" r="4.5"/><circle class="cls-2" cx="50.5" cy="14.5" r="4.5"/><circle class="cls-2" cx="67.5" cy="14.5" r="4.5"/></g></g></svg>