<svg xmlns="http://www.w3.org/2000/svg" viewBox="0 0 1773.45 310.52"><defs><style>.cls-1{fill:#ea6416;}</style></defs><title>estrellas</title><g id="Capa_2" data-name="Capa 2"><g id="Capa_1-2" data-name="Capa 1"><polygon class="cls-1" points="162.73 1 213.01 102.89 325.45 119.23 244.09 198.54 263.3 310.52 162.73 257.65 62.16 310.52 81.36 198.54 0 119.23 112.44 102.89 162.73 1"/><polygon class="cls-1" points="522.73 1 573.01 102.89 685.45 119.23 604.09 198.54 623.3 310.52 522.73 257.65 422.16 310.52 441.36 198.54 360 119.23 472.44 102.89 522.73 1"/><polygon class="cls-1" points="888.73 0 939.01 101.89 1051.45 118.23 970.09 197.54 989.3 309.52 888.73 256.65 788.16 309.52 807.36 197.54 726 118.23 838.44 101.89 888.73 0"/><polygon class="cls-1" points="1248.73 0 1299.01 101.89 1411.45 118.23 1330.09 197.54 1349.3 309.52 1248.73 256.65 1148.16 309.52 1167.36 197.54 1086 118.23 1198.44 101.89 1248.73 0"/><polygon class="cls-1" points="1610.73 0 1661.01 101.89 1773.45 118.23 1692.09 197.54 1711.3 309.52 1610.73 256.65 1510.16 309.52 1529.36 197.54 1448 118.23 1560.44 101.89 1610.73 0"/></g></g></svg>