<svg xmlns="http://www.w3.org/2000/svg" viewBox="0 0 1773.45 310.52"><defs><style>.cls-1{fill:#ea6416;}</style></defs><title>estrellas2_1</title><g id="Capa_2" data-name="Capa 2"><g id="Capa_1-2" data-name="Capa 1"><path class="cls-1" d="M162.73,23.6,204,107.31l2.33,4.72,5.2.76L304,126.21l-66.85,65.17-3.76,3.67.88,5.18,15.79,92L167.38,248.8l-4.65-2.45-4.66,2.45L75.44,292.24l15.78-92,.89-5.18-3.77-3.67L21.49,126.21l92.39-13.42,5.2-.76,2.33-4.72L162.73,23.6m0-22.6L112.44,102.89,0,119.23l81.36,79.31-19.2,112,100.57-52.87L263.3,310.52l-19.21-112,81.36-79.31L213,102.89,162.73,1Z"/><path class="cls-1" d="M522.73,23.6,564,107.31l2.33,4.72,5.2.76L664,126.21l-66.85,65.17-3.76,3.67.88,5.18,15.79,92L527.38,248.8l-4.65-2.45-4.66,2.45-82.63,43.44,15.78-92,.89-5.18-3.77-3.67-66.85-65.17,92.39-13.42,5.2-.76,2.33-4.72L522.73,23.6m0-22.6L472.44,102.89,360,119.23l81.36,79.31-19.2,112,100.57-52.87L623.3,310.52l-19.21-112,81.36-79.31L573,102.89,522.73,1Z"/><path class="cls-1" d="M888.73,22.6,930,106.31l2.33,4.72,5.2.76L1030,125.21l-66.85,65.17-3.76,3.67.88,5.18,15.79,92L893.38,247.8l-4.65-2.45-4.66,2.45-82.63,43.44,15.78-92,.89-5.18-3.77-3.67-66.85-65.17,92.39-13.42,5.2-.76,2.33-4.72L888.73,22.6m0-22.6L838.44,101.89,726,118.23l81.36,79.31-19.2,112,100.57-52.87L989.3,309.52l-19.21-112,81.36-79.31L939,101.89,888.73,0Z"/><path class="cls-1" d="M1248.73,22.6,1290,106.31l2.33,4.72,5.2.76L1390,125.21l-66.85,65.17-3.76,3.67.88,5.18,15.79,92-82.64-43.44-4.65-2.45-4.66,2.45-82.63,43.44,15.78-92,.89-5.18-3.77-3.67-66.85-65.17,92.39-13.42,5.2-.76,2.33-4.72,41.32-83.71m0-22.6-50.29,101.89L1086,118.23l81.36,79.31-19.2,112,100.57-52.87,100.57,52.87-19.21-112,81.36-79.31L1299,101.89,1248.73,0Z"/><path class="cls-1" d="M1610.73,22.6,1652,106.31l2.33,4.72,5.2.76L1752,125.21l-66.85,65.17-3.76,3.67.88,5.18,15.79,92-82.64-43.44-4.65-2.45-4.66,2.45-82.63,43.44,15.78-92,.89-5.18-3.77-3.67-66.85-65.17,92.39-13.42,5.2-.76,2.33-4.72,41.32-83.71m0-22.6-50.29,101.89L1448,118.23l81.36,79.31-19.2,112,100.57-52.87,100.57,52.87-19.21-112,81.36-79.31L1661,101.89,1610.73,0Z"/></g></g></svg>