<svg xmlns="http://www.w3.org/2000/svg" viewBox="0 0 1773.45 310.52"><defs><style>.cls-1{fill:#ea6416;}</style></defs><title>estrellas2</title><g id="Capa_2" data-name="Capa 2"><g id="Capa_1-2" data-name="Capa 1"><path class="cls-1" d="M162.73,7.78l47.59,96.44.7,1.41,1.56.23L319,121.32l-77,75.07-1.13,1.1.26,1.55,18.18,106-95.19-50-1.39-.74-1.4.74L66.14,305,84.32,199l.27-1.55-1.13-1.1-77-75.07,106.42-15.46,1.56-.23.7-1.41,47.6-96.44m0-6.78L112.44,102.89,0,119.23l81.36,79.31-19.2,112,100.57-52.87L263.3,310.52l-19.21-112,81.36-79.31L213,102.89,162.73,1Z"/><path class="cls-1" d="M522.73,7.78l47.59,96.44.7,1.41,1.56.23L679,121.32l-77,75.07-1.13,1.1.26,1.55,18.18,106-95.19-50-1.39-.74-1.4.74-95.19,50,18.18-106,.27-1.55-1.13-1.1-77-75.07,106.42-15.46,1.56-.23.7-1.41,47.6-96.44m0-6.78L472.44,102.89,360,119.23l81.36,79.31-19.2,112,100.57-52.87L623.3,310.52l-19.21-112,81.36-79.31L573,102.89,522.73,1Z"/><path class="cls-1" d="M888.73,6.78l47.59,96.44.7,1.41,1.56.23L1045,120.32l-77,75.07-1.13,1.1.26,1.55,18.18,106-95.19-50-1.39-.74-1.4.74-95.19,50,18.18-106,.27-1.55-1.13-1.1-77-75.07,106.42-15.46,1.56-.23.7-1.41,47.6-96.44m0-6.78L838.44,101.89,726,118.23l81.36,79.31-19.2,112,100.57-52.87L989.3,309.52l-19.21-112,81.36-79.31L939,101.89,888.73,0Z"/><path class="cls-1" d="M1248.73,6.78l47.59,96.44.7,1.41,1.56.23L1405,120.32l-77,75.07-1.13,1.1.26,1.55,18.18,106-95.19-50-1.39-.74-1.4.74-95.19,50,18.18-106,.27-1.55-1.13-1.1-77-75.07,106.42-15.46,1.56-.23.7-1.41,47.6-96.44m0-6.78-50.29,101.89L1086,118.23l81.36,79.31-19.2,112,100.57-52.87,100.57,52.87-19.21-112,81.36-79.31L1299,101.89,1248.73,0Z"/><path class="cls-1" d="M1610.73,6.78l47.59,96.44.7,1.41,1.56.23L1767,120.32l-77,75.07-1.13,1.1.26,1.55,18.18,106-95.19-50-1.39-.74-1.4.74-95.19,50,18.18-106,.27-1.55-1.13-1.1-77-75.07,106.42-15.46,1.56-.23.7-1.41,47.6-96.44m0-6.78-50.29,101.89L1448,118.23l81.36,79.31-19.2,112,100.57-52.87,100.57,52.87-19.21-112,81.36-79.31L1661,101.89,1610.73,0Z"/></g></g></svg>