<svg xmlns="http://www.w3.org/2000/svg" viewBox="0 0 37.69 36.34"><defs><style>.cls-1{fill:#e46416;}</style></defs><title>estrellita</title><g id="Capa_2" data-name="Capa 2"><g id="Layer_1" data-name="Layer 1"><path class="cls-1" d="M10.48,22l-5,12.5a1.35,1.35,0,0,0,2,1.61l11.37-7.57,11.36,7.58a1.37,1.37,0,0,0,1.6-.08,1.35,1.35,0,0,0,.4-1.54l-5-12.5,9.94-7.46A1.34,1.34,0,0,0,37.62,13a1.36,1.36,0,0,0-1.27-.92H24L20.12.91a1.35,1.35,0,0,0-2.55,0L13.84,12.11H1.35a1.35,1.35,0,0,0-.81,2.43Zm4.33-7.19a1.33,1.33,0,0,0,1.27-.92l2.78-8.35,2.87,8.35A1.37,1.37,0,0,0,23,14.8h9.3l-7.54,5.65A1.34,1.34,0,0,0,24.33,22l3.77,9.43-8.51-5.67a1.35,1.35,0,0,0-1.49,0L9.59,31.46,13.37,22a1.35,1.35,0,0,0-.45-1.57L5.38,14.81Z"/></g></g></svg>