<svg xmlns="http://www.w3.org/2000/svg" viewBox="0 0 247 181.26"><defs><style>.cls-1{fill:#e66416;}</style></defs><title>fabricantes_1</title><g id="Capa_2" data-name="Capa 2"><g id="Layer_1" data-name="Layer 1"><path class="cls-1" d="M18.84,142.58h.25a3.62,3.62,0,0,0,0-7.24,4.12,4.12,0,1,1,0-8.23H47.53l-.19,8.23H34.56a3.62,3.62,0,1,0,0,7.24H47.18L46.49,174H18.84V142.58ZM57.43,7.24H73.56l2.16,97.17H69.36a11.35,11.35,0,0,0-7.49,19.88V174H53.72L57.43,7.24ZM103.7,49.77h8.67l3.41,54.64h-15.5l3.42-54.64Zm38.67,0H151l3.41,54.64H139l3.42-54.64Zm38.67,0h8.67l3.41,54.64h-15.5L181,49.77Zm47.12,66a4.11,4.11,0,0,1-4.11,4.11h-7.74a3.62,3.62,0,0,0,0,7.24h8V174H69.11V127.11H200.85a3.62,3.62,0,0,0,0-7.24H69.36a4.12,4.12,0,1,1,0-8.23H224.05a4.12,4.12,0,0,1,4.11,4.12ZM243.38,174H231.53V124.29a11.35,11.35,0,0,0-7.48-19.88H200.38l-3.66-58.48a3.61,3.61,0,0,0-3.61-3.39H177.64A3.61,3.61,0,0,0,174,45.93l-3.66,58.48H161.7l-3.65-58.48a3.61,3.61,0,0,0-3.61-3.39H139a3.61,3.61,0,0,0-3.61,3.39l-3.66,58.48H123l-3.65-58.48a3.61,3.61,0,0,0-3.61-3.39H100.3a3.61,3.61,0,0,0-3.61,3.39L93,104.41H83L80.71,3.54A3.62,3.62,0,0,0,77.09,0H53.89a3.62,3.62,0,0,0-3.62,3.54L47.69,119.88H19.09a11.35,11.35,0,0,0-7.49,19.88V174h-8a3.62,3.62,0,0,0,0,7.24H243.38a3.62,3.62,0,1,0,0-7.24Z"/><path class="cls-1" d="M92.56,135.35A3.62,3.62,0,0,0,88.94,139v7.73a3.62,3.62,0,0,0,7.24,0V139a3.62,3.62,0,0,0-3.62-3.62Z"/><path class="cls-1" d="M108,135.35a3.62,3.62,0,0,0-3.62,3.62v7.73a3.62,3.62,0,0,0,7.24,0V139a3.62,3.62,0,0,0-3.62-3.62Z"/><path class="cls-1" d="M123.5,135.35a3.62,3.62,0,0,0-3.62,3.62v7.73a3.62,3.62,0,0,0,7.24,0V139a3.62,3.62,0,0,0-3.62-3.62Z"/><path class="cls-1" d="M139,135.35a3.62,3.62,0,0,0-3.62,3.62v7.73a3.62,3.62,0,0,0,7.24,0V139a3.62,3.62,0,0,0-3.62-3.62Z"/><path class="cls-1" d="M154.44,135.35a3.62,3.62,0,0,0-3.62,3.62v7.73a3.62,3.62,0,0,0,7.24,0V139a3.62,3.62,0,0,0-3.62-3.62Z"/><path class="cls-1" d="M169.91,135.35a3.62,3.62,0,0,0-3.62,3.62v7.73a3.62,3.62,0,1,0,7.23,0V139a3.62,3.62,0,0,0-3.61-3.62Z"/><path class="cls-1" d="M185.37,135.35a3.62,3.62,0,0,0-3.61,3.62v7.73a3.62,3.62,0,1,0,7.23,0V139a3.62,3.62,0,0,0-3.62-3.62Z"/><path class="cls-1" d="M200.84,135.35a3.62,3.62,0,0,0-3.61,3.62v7.73a3.62,3.62,0,1,0,7.23,0V139a3.62,3.62,0,0,0-3.62-3.62Z"/></g></g></svg>