<svg xmlns="http://www.w3.org/2000/svg" viewBox="0 0 278.84 204.62"><defs><style>.cls-1{fill:#fff;}</style></defs><title>fabricantes-blanco</title><g id="Capa_2" data-name="Capa 2"><g id="Layer_1" data-name="Layer 1"><path class="cls-1" d="M21.27,161h.28a4.08,4.08,0,0,0,0-8.16,4.65,4.65,0,0,1,0-9.3h32.1l-.2,9.3H39A4.08,4.08,0,0,0,39,161H53.27l-.79,35.49H21.27V161ZM64.83,8.17H83l2.43,109.7H78.3a12.81,12.81,0,0,0-8.45,22.44v56.14h-9.2L64.83,8.17Zm52.23,48h9.79l3.85,61.68H113.21l3.85-61.68Zm43.66,0h9.79l3.85,61.68h-17.5l3.86-61.68Zm43.65,0h9.79L218,117.87h-17.5l3.85-61.68Zm53.2,74.5a4.65,4.65,0,0,1-4.65,4.64h-8.73a4.09,4.09,0,0,0,0,8.17h9v53H78v-53H226.73a4.09,4.09,0,1,0,0-8.17H78.3a4.65,4.65,0,1,1,0-9.29H252.92a4.65,4.65,0,0,1,4.65,4.65Zm17.18,65.76H261.37V140.31a12.81,12.81,0,0,0-8.45-22.44H226.2l-4.13-66A4.08,4.08,0,0,0,218,48H200.54a4.08,4.08,0,0,0-4.08,3.83l-4.13,66h-9.78l-4.13-66A4.09,4.09,0,0,0,174.34,48H156.88a4.09,4.09,0,0,0-4.08,3.83l-4.12,66h-9.79l-4.13-66A4.08,4.08,0,0,0,130.69,48H113.22a4.08,4.08,0,0,0-4.07,3.83l-4.13,66H93.65L91.11,4A4.07,4.07,0,0,0,87,0H60.84a4.09,4.09,0,0,0-4.09,4L53.84,135.33H21.55a12.81,12.81,0,0,0-8.45,22.44v38.68h-9a4.09,4.09,0,0,0,0,8.17H274.75a4.09,4.09,0,1,0,0-8.17Z"/><path class="cls-1" d="M104.49,152.8a4.08,4.08,0,0,0-4.08,4.08v8.73a4.09,4.09,0,1,0,8.17,0v-8.73a4.08,4.08,0,0,0-4.09-4.08Z"/><path class="cls-1" d="M122,152.8a4.08,4.08,0,0,0-4.09,4.08v8.73a4.09,4.09,0,1,0,8.17,0v-8.73A4.08,4.08,0,0,0,122,152.8Z"/><path class="cls-1" d="M139.42,152.8a4.08,4.08,0,0,0-4.09,4.08v8.73a4.09,4.09,0,1,0,8.17,0v-8.73a4.08,4.08,0,0,0-4.08-4.08Z"/><path class="cls-1" d="M156.88,152.8a4.07,4.07,0,0,0-4.08,4.08v8.73a4.08,4.08,0,1,0,8.16,0v-8.73a4.07,4.07,0,0,0-4.08-4.08Z"/><path class="cls-1" d="M174.34,152.8a4.08,4.08,0,0,0-4.08,4.08v8.73a4.09,4.09,0,1,0,8.17,0v-8.73a4.08,4.08,0,0,0-4.09-4.08Z"/><path class="cls-1" d="M191.8,152.8a4.08,4.08,0,0,0-4.08,4.08v8.73a4.09,4.09,0,1,0,8.17,0v-8.73a4.08,4.08,0,0,0-4.09-4.08Z"/><path class="cls-1" d="M209.27,152.8a4.08,4.08,0,0,0-4.09,4.08v8.73a4.09,4.09,0,1,0,8.17,0v-8.73a4.08,4.08,0,0,0-4.08-4.08Z"/><path class="cls-1" d="M226.73,152.8a4.07,4.07,0,0,0-4.08,4.08v8.73a4.08,4.08,0,1,0,8.16,0v-8.73a4.07,4.07,0,0,0-4.08-4.08Z"/></g></g></svg>