<svg xmlns="http://www.w3.org/2000/svg" viewBox="0 0 96.06 70.49"><defs><style>.cls-1{fill:#e46416;}</style></defs><title>fabricantenaranja</title><g id="Capa_2" data-name="Capa 2"><g id="Layer_1" data-name="Layer 1"><path class="cls-1" d="M7.33,55.45h.09a1.41,1.41,0,1,0,0-2.81,1.61,1.61,0,0,1,0-3.21H18.48l-.07,3.21h-5a1.41,1.41,0,1,0,0,2.81h4.91l-.27,12.23H7.33V55.45Zm15-52.64H28.6l.84,37.8H27a4.41,4.41,0,0,0-2.91,7.72V67.68H20.89L22.33,2.81Zm18,16.55H43.7L45,40.61H39l1.33-21.25Zm15,0h3.37l1.33,21.25H54l1.33-21.25Zm15,0h3.38L75.1,40.61h-6L70.4,19.36ZM88.73,45a1.6,1.6,0,0,1-1.6,1.6h-3a1.41,1.41,0,1,0,0,2.81h3.11V67.68H26.88V49.43H78.11a1.41,1.41,0,0,0,0-2.81H27a1.6,1.6,0,0,1,0-3.2H87.13a1.6,1.6,0,0,1,1.6,1.6Zm5.92,22.66H90V48.33a4.41,4.41,0,0,0-2.91-7.72H77.92L76.5,17.86a1.4,1.4,0,0,0-1.4-1.32h-6a1.4,1.4,0,0,0-1.4,1.32L66.26,40.61H62.88L61.46,17.86a1.4,1.4,0,0,0-1.4-1.32H54a1.41,1.41,0,0,0-1.4,1.32L51.22,40.61H47.85L46.42,17.86A1.4,1.4,0,0,0,45,16.54H39a1.41,1.41,0,0,0-1.4,1.32L36.18,40.61H32.26L31.39,1.38A1.41,1.41,0,0,0,30,0H21a1.41,1.41,0,0,0-1.41,1.38l-1,45.24H7.42a4.41,4.41,0,0,0-2.91,7.73V67.68H1.41a1.41,1.41,0,1,0,0,2.81H94.65a1.41,1.41,0,1,0,0-2.81Z"/><path class="cls-1" d="M36,52.64A1.41,1.41,0,0,0,34.59,54v3a1.41,1.41,0,1,0,2.81,0V54a1.4,1.4,0,0,0-1.4-1.4Z"/><path class="cls-1" d="M42,52.64a1.4,1.4,0,0,0-1.4,1.4v3a1.41,1.41,0,1,0,2.81,0V54A1.41,1.41,0,0,0,42,52.64Z"/><path class="cls-1" d="M48,52.64A1.41,1.41,0,0,0,46.62,54v3a1.41,1.41,0,1,0,2.81,0V54a1.4,1.4,0,0,0-1.4-1.4Z"/><path class="cls-1" d="M54,52.64a1.4,1.4,0,0,0-1.4,1.4v3a1.41,1.41,0,1,0,2.81,0V54A1.41,1.41,0,0,0,54,52.64Z"/><path class="cls-1" d="M60.06,52.64A1.41,1.41,0,0,0,58.65,54v3a1.41,1.41,0,1,0,2.82,0V54a1.41,1.41,0,0,0-1.41-1.4Z"/><path class="cls-1" d="M66.07,52.64a1.4,1.4,0,0,0-1.4,1.4v3a1.41,1.41,0,1,0,2.81,0V54a1.41,1.41,0,0,0-1.41-1.4Z"/><path class="cls-1" d="M72.09,52.64A1.41,1.41,0,0,0,70.68,54v3a1.41,1.41,0,0,0,2.82,0V54a1.41,1.41,0,0,0-1.41-1.4Z"/><path class="cls-1" d="M78.11,52.64A1.41,1.41,0,0,0,76.7,54v3a1.41,1.41,0,1,0,2.81,0V54a1.4,1.4,0,0,0-1.4-1.4Z"/></g></g></svg>