<svg xmlns="http://www.w3.org/2000/svg" viewBox="0 0 134.81 127"><defs><style>.cls-1{fill:#ea6416;stroke:#fff;stroke-linecap:round;stroke-linejoin:round;stroke-width:2px;}.cls-2{fill:#cbd2da;}</style></defs><title>fabricantes3_1</title><g id="Capa_2" data-name="Capa 2"><g id="Layer_1" data-name="Layer 1"><polygon class="cls-1" points="71.31 71.27 71.31 126 133.81 126 133.81 115.05 127.12 115.05 127.12 69.08 71.31 69.08 71.31 71.27"/><polygon class="cls-1" points="75.78 18.86 73.55 43.41 93.63 34.48 93.63 65.73 107.03 65.73 102.56 18.86 75.78 18.86"/><polygon class="cls-1" points="81.01 1 78.78 14.39 103.33 14.39 101.1 1 81.01 1"/><rect class="cls-2" x="92.58" y="74" width="30" height="12"/><polygon class="cls-1" points="6.3 113.72 1 113.72 1 124.88 66.85 126 66.85 65.73 89.17 65.73 89.17 41.18 64.62 52.34 64.62 41.18 40.06 52.34 40.06 38.95 6.58 56.8 6.3 113.72"/><rect class="cls-2" x="9.58" y="92.55" width="16.19" height="15.45"/><rect class="cls-2" x="27.39" y="92.55" width="16.19" height="15.45"/><rect class="cls-2" x="9.58" y="76" width="16.19" height="15.45"/><rect class="cls-2" x="27.39" y="76" width="16.19" height="15.45"/></g></g></svg>