<svg xmlns="http://www.w3.org/2000/svg" viewBox="0 0 61 61"><defs><style>.cls-1{fill:#424242;}</style></defs><title>facturas</title><g id="Capa_2" data-name="Capa 2"><g id="Layer_1" data-name="Layer 1"><path class="cls-1" d="M57.19,32.17a1.19,1.19,0,0,0-.84.35,1.18,1.18,0,0,0,0,1.68,1.19,1.19,0,0,0,.84.35,1.19,1.19,0,0,0,0-2.38Z"/><path class="cls-1" d="M55,11.44a1.19,1.19,0,1,0,0,2.38h4.83A1.19,1.19,0,0,0,61,12.63V6A6,6,0,0,0,55.6,0a1.07,1.07,0,0,0-.25,0h-41a6,6,0,0,0-6,6v11a6,6,0,0,0-5.72,5.95V51H1.19A1.19,1.19,0,0,0,0,52.2v2.6A6.21,6.21,0,0,0,6.2,61H54.8A6.21,6.21,0,0,0,61,54.8V52.2A1.19,1.19,0,0,0,59.81,51H58.38V38.64a1.19,1.19,0,0,0-2.38,0V51H51.35V19.3h1.07A3.59,3.59,0,0,1,56,22.88v5.28a1.19,1.19,0,0,0,2.38,0V22.88a6,6,0,0,0-6-6H51.35V6a3.58,3.58,0,0,1,3.57-3.58H55A3.59,3.59,0,0,1,58.62,6v5.48ZM5,22.88a3.58,3.58,0,0,1,3.34-3.57V51H5ZM58.62,54.8a3.82,3.82,0,0,1-3.82,3.82H6.2A3.82,3.82,0,0,1,2.38,54.8V53.39H58.62ZM49,6V51H10.72V6A3.59,3.59,0,0,1,14.3,2.38H50.16A5.94,5.94,0,0,0,49,6Z"/><path class="cls-1" d="M16,26h5.72a1.19,1.19,0,0,0,1.19-1.19V19.06a1.19,1.19,0,0,0-1.19-1.19H16a1.19,1.19,0,0,0-1.19,1.19v5.72A1.19,1.19,0,0,0,16,26Zm1.19-5.72h3.34v3.34H17.15Z"/><path class="cls-1" d="M30.42,21.92a1.19,1.19,0,0,0,1.19,1.19H43.73a1.19,1.19,0,1,0,0-2.38H31.61a1.19,1.19,0,0,0-1.19,1.19Z"/><path class="cls-1" d="M16,37.41h5.72a1.19,1.19,0,0,0,1.19-1.19V30.5a1.19,1.19,0,0,0-1.19-1.19H16a1.19,1.19,0,0,0-1.19,1.19v5.72A1.19,1.19,0,0,0,16,37.41Zm1.19-5.72h3.34V35H17.15Z"/><path class="cls-1" d="M43.73,32.17H26.48a1.19,1.19,0,0,0,0,2.38H43.73a1.19,1.19,0,1,0,0-2.38Z"/><path class="cls-1" d="M16,48.84h5.72a1.19,1.19,0,0,0,1.19-1.19V41.93a1.19,1.19,0,0,0-1.19-1.19H16a1.19,1.19,0,0,0-1.19,1.19v5.72A1.19,1.19,0,0,0,16,48.84Zm1.19-5.72h3.34v3.33H17.15Z"/><path class="cls-1" d="M43.73,43.6H26.48a1.19,1.19,0,0,0,0,2.38H43.73a1.19,1.19,0,1,0,0-2.38Z"/><path class="cls-1" d="M18.45,7.15h.88v6.43a1.2,1.2,0,0,0,2.39,0V7.15h.88a1.19,1.19,0,1,0,0-2.38H18.45a1.19,1.19,0,0,0,0,2.38Z"/><path class="cls-1" d="M25,14.68A1.2,1.2,0,0,0,26.6,14l.18-.44h3.74l.18.44a1.2,1.2,0,0,0,1.56.64,1.19,1.19,0,0,0,.64-1.56L29.75,5.56a1.19,1.19,0,0,0-2.2,0L24.4,13.12A1.2,1.2,0,0,0,25,14.68Zm3.61-5.57.88,2.11H27.78Z"/><path class="cls-1" d="M35.86,14.58a1.2,1.2,0,0,0,1.65-.35L39,12l1.48,2.27a1.19,1.19,0,0,0,2-1.3L40.41,9.77l2.06-3.16a1.19,1.19,0,0,0-2-1.3L39,7.58,37.51,5.31a1.19,1.19,0,1,0-2,1.3l2.06,3.16-2.06,3.16a1.19,1.19,0,0,0,.35,1.65Z"/></g></g></svg>