<svg xmlns="http://www.w3.org/2000/svg" viewBox="0 0 89.72 127"><defs><style>.cls-1{fill:none;stroke:#424242;stroke-linecap:round;stroke-linejoin:round;stroke-width:2px;}.cls-2{fill:#424242;}</style></defs><title>farmaceuticos_1</title><g id="Capa_2" data-name="Capa 2"><g id="Capa_1-2" data-name="Capa 1"><path class="cls-1" d="M87.82,109.3l-26-64.43a29.9,29.9,0,0,1-2.17-11.21v-17a6.89,6.89,0,0,1,2-4.86A8.36,8.36,0,0,0,64,5.85V3.44A2.42,2.42,0,0,0,61.63,1H28.09a2.42,2.42,0,0,0-2.4,2.44V5.85a8.36,8.36,0,0,0,2.41,5.92,6.89,6.89,0,0,1,2,4.86v17A29.71,29.71,0,0,1,27.9,44.87l-7.14,17.7v0L1.89,109.3A12.28,12.28,0,0,0,3,120.64a11.85,11.85,0,0,0,9.9,5.36H76.8a11.85,11.85,0,0,0,9.9-5.36,12.28,12.28,0,0,0,1.12-11.34Z"/><path class="cls-2" d="M76,109.45a2.38,2.38,0,0,0-3.13-1.33,2.45,2.45,0,0,0-1.32,3.18l0,0a2.39,2.39,0,0,0,2.22,1.52A2.42,2.42,0,0,0,76,109.48Z"/><line class="cls-1" x1="61.86" y1="80.27" x2="69.86" y2="100.59"/><line class="cls-1" x1="20.86" y1="62.99" x2="68.86" y2="62.99"/><line class="cls-1" x1="5.33" y1="102.25" x2="14.86" y2="102.63"/><line class="cls-1" x1="8.33" y1="94.12" x2="17.86" y2="94.5"/><line class="cls-1" x1="12.33" y1="84.98" x2="21.86" y2="85.35"/><line class="cls-1" x1="15.33" y1="76.85" x2="24.86" y2="77.22"/></g></g></svg>