<svg xmlns="http://www.w3.org/2000/svg" viewBox="0 0 71.37 66.84"><defs><style>.cls-1{fill:#ea6416;}</style></defs><title>gestionnaranja</title><g id="Capa_2" data-name="Capa 2"><g id="Layer_1" data-name="Layer 1"><path class="cls-1" d="M70.32,56.55a1,1,0,0,0-1,1v7a.18.18,0,0,1-.18.17h-4V49.48a1,1,0,1,0-2.09,0V64.75H55.36l2.08-2.28a1.67,1.67,0,0,0,.4-1.34v0L55.5,47.3l.43-.65.11.08a1.65,1.65,0,0,0,2.42-.6h0l2.37-4.77,5.43,2.1a5.23,5.23,0,0,1,3,4.72v4.53a1,1,0,1,0,2.1,0V48.18a7.28,7.28,0,0,0-4.32-6.65h0l-9.24-3.58V36a7.69,7.69,0,0,0,2.76-4.74,3.61,3.61,0,0,0,2.38-5.86V22.62A10,10,0,0,0,46.42,15a3.59,3.59,0,0,0-.81-2.18V10a10,10,0,1,0-20,0v2.9A3.33,3.33,0,0,0,24.78,15a10,10,0,0,0-3.94-2.07,1.06,1.06,0,0,0-1.28.75A1,1,0,0,0,20.3,15a7.91,7.91,0,0,1,5.9,7.66v1.56l-.19,0a1.24,1.24,0,0,0-.25-.7c-.27-.39-.75-.87-2.3-2.53a1.66,1.66,0,0,0-2.12-.26,15,15,0,0,1-8.85,2.44,1.65,1.65,0,0,0-1.83,1.07l-.3.06v-1.6A8,8,0,0,1,16,15a1,1,0,1,0-.6-2,10.12,10.12,0,0,0-5.11,3.56,10,10,0,0,0-2,6v2.89a3.38,3.38,0,0,0-.81,2.2,3.62,3.62,0,0,0,3.19,3.59,7.71,7.71,0,0,0,2.92,4.86v1.78L4.33,41.52h0A7.29,7.29,0,0,0,0,48.18v16.4a2.27,2.27,0,0,0,2.27,2.26H34.46a2.21,2.21,0,0,0,1.22-.36,2.24,2.24,0,0,0,1.22.36H69.1a2.27,2.27,0,0,0,2.27-2.26v-7A1,1,0,0,0,70.32,56.55ZM10.55,29.14a1.52,1.52,0,0,1-1-1.43,1.54,1.54,0,0,1,1-1.36ZM58.87,40.6l-2,4.12-2.31-1.65,2.57-3.16Zm-5.87,1-2.7-3.34v-1a8.45,8.45,0,0,0,2.71.44h0a7.59,7.59,0,0,0,2.69-.49v1.06Zm1.23,3.82-.39.58H52.16l-.39-.58L53,44.57ZM35.68,29,33,25.68v-1a8.2,8.2,0,0,0,2.71.45h0a7.82,7.82,0,0,0,2.69-.49v1.05Zm1.23,3.82-.39.58H34.84l-.39-.58L35.68,32ZM27.45,18.59a3,3,0,0,0,.52.1,7.73,7.73,0,0,0,2.92,4.87v1.78l-2.14.82a3.39,3.39,0,0,0-.46-.72V22.62A10.1,10.1,0,0,0,27.45,18.59Zm13.79-1.1a5.64,5.64,0,0,1-11.28,0v-4.9A17.21,17.21,0,0,0,39.5,10c.94,1,1.5,1.6,1.74,1.87Zm2,1.2a3,3,0,0,0,.52-.1,10,10,0,0,0-.84,4v2.89a3.49,3.49,0,0,0-.42.61l-2-.78V23.43A7.61,7.61,0,0,0,43.23,18.69ZM31.6,27.31l2.57,3.16-1.75,1.25h0l-.55.39L29.81,28Zm6.49,2.06,1.67-2.07,1.8.7L39.5,32.11,39,31.72h0l-1.76-1.25Zm.52,4.68.12.07a1.64,1.64,0,0,0,1.34.26,1.68,1.68,0,0,0,1.07-.86h0L42.9,30a3.68,3.68,0,0,0,2.39,1.31,7.63,7.63,0,0,0,2.91,4.86v1.78l-8.88,3.45-1.14-6.7Zm10.31,5.86,2.56,3.17-2.3,1.64L47.12,40.6Zm9.63-9.82a5.64,5.64,0,0,1-11.27,0v-4.9a17.08,17.08,0,0,0,9.53-2.59c.95,1,1.51,1.6,1.74,1.87Zm3.1-2.38a1.52,1.52,0,0,1-1,1.43V26.29A1.51,1.51,0,0,1,61.65,27.71ZM45,22.62a7.92,7.92,0,1,1,15.84,0v1.56l-.2,0a1.17,1.17,0,0,0-.25-.7c-.27-.4-.75-.87-2.29-2.53A1.66,1.66,0,0,0,56,20.65a14.94,14.94,0,0,1-8.93,2.44,1.63,1.63,0,0,0-1.76,1.07l-.29.06v-1.6Zm.19,3.73v2.79a1.51,1.51,0,0,1-1-1.43A1.54,1.54,0,0,1,45.19,26.35Zm-.86-11.24a1.5,1.5,0,0,1-.52,1.14,1.55,1.55,0,0,1-.48.28V13.69A1.51,1.51,0,0,1,44.33,15.11Zm-8.73-13A7.93,7.93,0,0,1,43.52,10v1.57l-.2,0a1.2,1.2,0,0,0-.29-.77c-.28-.38-.8-.9-2.25-2.46a1.66,1.66,0,0,0-2.12-.26,14.94,14.94,0,0,1-9,2.43A1.66,1.66,0,0,0,28,11.56l-.29.06V10h0A7.93,7.93,0,0,1,35.6,2.09ZM27.87,13.75v2.78a1.51,1.51,0,0,1-1-1.42A1.54,1.54,0,0,1,27.87,13.75ZM26,26.29a1.51,1.51,0,0,1,0,2.85Zm-.1,5a3.67,3.67,0,0,0,2.49-1.44l1.82,3.66h0a1.68,1.68,0,0,0,1.07.86,1.63,1.63,0,0,0,1.35-.26l.11-.07.43.64L32,41.39l-8.89-3.45V36h0A7.67,7.67,0,0,0,25.91,31.3ZM18.36,41.62l-2.7-3.34v-1a8.45,8.45,0,0,0,2.71.44h0a7.68,7.68,0,0,0,2.68-.49v1.06Zm1.23,3.82L19.2,46H17.52l-.39-.58,1.23-.87Zm2.85-5.53,1.8.69-2.06,4.12-.55-.4h0l-1.76-1.25Zm-9.8-9.82v-4.9a17.12,17.12,0,0,0,9.54-2.59c.93,1,1.5,1.6,1.74,1.87v5.62a5.64,5.64,0,0,1-11.28,0Zm1.64,9.82,2.57,3.17L15.1,44.32h0l-.55.4-2-4.12ZM8.33,64.75V49.48a1,1,0,1,0-2.09,0V64.75h-4a.18.18,0,0,1-.18-.17V48.18a5.18,5.18,0,0,1,3-4.71l5.43-2.11,2.38,4.77h0a1.64,1.64,0,0,0,2.41.6l.11-.08.43.65L13.52,61.09v0a1.67,1.67,0,0,0,.4,1.34L16,64.75Zm7.29-3.52,2.22-13.12h1L21.1,61.23l-2.74,3Zm19,3.35a.18.18,0,0,1-.18.17h-4V49.48a1,1,0,1,0-2.09,0V64.75H20.72l2.08-2.28a1.72,1.72,0,0,0,.41-1.34v0L20.86,47.3l.43-.65.12.08a1.62,1.62,0,0,0,.94.3,1.63,1.63,0,0,0,1.47-.9h0l2.37-4.77,5.43,2.1a5.19,5.19,0,0,1,3,4.72v16.4Zm1-20.2A7.56,7.56,0,0,0,34,42.49l1.18-7h1l1.18,7A7.67,7.67,0,0,0,35.68,44.38ZM43,64.75h0V49.48a1,1,0,1,0-2.09,0V64.75h-4a.18.18,0,0,1-.17-.17V48.18A5,5,0,0,1,38,44.83a5.54,5.54,0,0,1,1.79-1.36l5.43-2.11,2.37,4.77h0a1.66,1.66,0,0,0,1.07.85A1.6,1.6,0,0,0,50,46.73l.12-.08.43.65L48.16,61.09v0a1.67,1.67,0,0,0,.4,1.34l2.08,2.28Zm7.29-3.52,2.22-13.12h1l2.22,13.12-2.74,3Z"/></g></g></svg>