<svg xmlns="http://www.w3.org/2000/svg" viewBox="0 0 129.53 125"><defs><style>.cls-1{fill:none;stroke:#fff;stroke-linecap:round;stroke-linejoin:round;stroke-width:2px;}.cls-2{fill:#fff;}</style></defs><title>higieneblanco</title><g id="Capa_2" data-name="Capa 2"><g id="Capa_1-2" data-name="Capa 1"><line class="cls-1" x1="25.87" y1="1" x2="26.03" y2="24"/><line class="cls-1" x1="14.05" y1="13.39" x2="37.69" y2="13.39"/><line class="cls-1" x1="96.87" y1="16" x2="97.03" y2="39"/><line class="cls-1" x1="85.05" y1="28.39" x2="108.69" y2="28.39"/><circle class="cls-2" cx="49.53" cy="28.5" r="4.5"/><circle class="cls-2" cx="73.53" cy="12.5" r="4.5"/><polygon class="cls-1" points="9.03 98 9.03 116 79.03 116 97.03 124 128.53 123.5 128.53 107.5 99.53 107.5 80.53 98.5 9.03 98"/><path class="cls-1" d="M23.49,66.5h4.57a6,6,0,0,1,6,6v25a0,0,0,0,1,0,0H17.53a0,0,0,0,1,0,0v-25A6,6,0,0,1,23.49,66.5Z"/><path class="cls-1" d="M40,66.5h4.07a6,6,0,0,1,6,6v25a0,0,0,0,1,0,0H34a0,0,0,0,1,0,0v-25A6,6,0,0,1,40,66.5Z"/><path class="cls-1" d="M56,66.5h3.57a6,6,0,0,1,6,6v25a0,0,0,0,1,0,0H50a0,0,0,0,1,0,0v-25A6,6,0,0,1,56,66.5Z"/><path class="cls-1" d="M71.49,66.5h5.07a6,6,0,0,1,6,6v25a0,0,0,0,1,0,0h-17a0,0,0,0,1,0,0v-25a6,6,0,0,1,6-6Z"/><path class="cls-1" d="M17.53,74.88s-20-8.38-16-31.38l55,1s27,.76,26,30.38"/></g></g></svg>