<svg xmlns="http://www.w3.org/2000/svg" viewBox="0 0 83.98 64.69"><defs><style>.cls-1{fill:#e46416;}</style></defs><title>identidad</title><g id="Capa_2" data-name="Capa 2"><g id="Layer_1" data-name="Layer 1"><path class="cls-1" d="M77.74,0H6.25A6.21,6.21,0,0,0,0,6.25V58.44a6.21,6.21,0,0,0,6.25,6.25H77.73A6.35,6.35,0,0,0,84,58.27v-52A6.19,6.19,0,0,0,77.74,0ZM80.6,58.25a2.82,2.82,0,0,1-2.86,2.85H6.25A2.81,2.81,0,0,1,3.4,58.25v-52A2.82,2.82,0,0,1,6.25,3.4H77.73a2.82,2.82,0,0,1,2.85,2.85v52Z"/><path class="cls-1" d="M28.6,11.44H10V30H28.6ZM25.2,26.63H13.59V15H25.2Z"/><rect class="cls-1" x="11.8" y="38.96" width="36.98" height="3.57"/><rect class="cls-1" x="11.8" y="50.21" width="36.98" height="3.57"/></g></g></svg>