<svg xmlns="http://www.w3.org/2000/svg" viewBox="0 0 169 169"><defs><style>.cls-1{fill:#ea6416;}</style></defs><title>info1</title><g id="Capa_2" data-name="Capa 2"><g id="Capa_1-2" data-name="Capa 1"><path class="cls-1" d="M84.5,0A84.5,84.5,0,1,0,169,84.5,84.6,84.6,0,0,0,84.5,0Zm0,153.64A69.14,69.14,0,1,1,153.64,84.5,69.22,69.22,0,0,1,84.5,153.64Z"/><path class="cls-1" d="M84.5,35.85A10.24,10.24,0,1,0,94.74,46.1,10.25,10.25,0,0,0,84.5,35.85Z"/><path class="cls-1" d="M84.5,71.7a7.68,7.68,0,0,0-7.68,7.68v46.09a7.68,7.68,0,0,0,15.36,0V79.38A7.68,7.68,0,0,0,84.5,71.7Z"/></g></g></svg>