<svg xmlns="http://www.w3.org/2000/svg" viewBox="0 0 83.25 83.25"><defs><style>.cls-1{fill:#fff;fill-rule:evenodd;}</style></defs><title>instagram_1</title><g id="Capa_2" data-name="Capa 2"><g id="Layer_1" data-name="Layer 1"><path class="cls-1" d="M20.36,41.6A21.26,21.26,0,1,1,41.6,62.88,21.29,21.29,0,0,1,20.36,41.6ZM63.57,0H19.67A19.72,19.72,0,0,0,0,19.67v43.9A19.76,19.76,0,0,0,19.67,83.25h43.9A19.74,19.74,0,0,0,83.25,63.57V19.67A19.7,19.7,0,0,0,63.57,0ZM19.67,4.92h43.9A14.77,14.77,0,0,1,78.33,19.67v43.9A14.78,14.78,0,0,1,63.57,78.33H19.67A14.77,14.77,0,0,1,4.92,63.57V19.67A14.77,14.77,0,0,1,19.67,4.92Zm48.27,6.2a4.33,4.33,0,1,0,4.32,4.32,4.31,4.31,0,0,0-4.32-4.32Zm.51,30.48A26.85,26.85,0,1,0,41.6,68.45,26.85,26.85,0,0,0,68.45,41.6Z"/></g></g></svg>