<svg xmlns="http://www.w3.org/2000/svg" viewBox="0 0 33.25 33.25"><defs><style>.cls-1{fill:#e66416;fill-rule:evenodd;}</style></defs><title>instagram</title><g id="Capa_2" data-name="Capa 2"><g id="Layer_1" data-name="Layer 1"><path class="cls-1" d="M8.13,16.61a8.49,8.49,0,1,1,8.48,8.5,8.5,8.5,0,0,1-8.48-8.5ZM25.39,0H7.86A7.87,7.87,0,0,0,0,7.86V25.39a7.89,7.89,0,0,0,7.86,7.86H25.39a7.89,7.89,0,0,0,7.86-7.86V7.86A7.87,7.87,0,0,0,25.39,0ZM7.86,2H25.39a5.9,5.9,0,0,1,5.89,5.9V25.39a5.89,5.89,0,0,1-5.89,5.89H7.86A5.9,5.9,0,0,1,2,25.39V7.86A5.91,5.91,0,0,1,7.86,2ZM27.13,4.44a1.73,1.73,0,1,0,1.73,1.73,1.72,1.72,0,0,0-1.73-1.73Zm.21,12.17A10.73,10.73,0,1,0,16.61,27.34,10.73,10.73,0,0,0,27.34,16.61Z"/></g></g></svg>