<svg xmlns="http://www.w3.org/2000/svg" viewBox="0 0 105 129"><defs><style>.cls-1{fill:#fff;}.cls-2{fill:none;stroke:#fff;stroke-linecap:round;stroke-linejoin:round;stroke-width:2px;}</style></defs><title>insumosmedicosblanco</title><g id="Capa_2" data-name="Capa 2"><g id="Capa_1-2" data-name="Capa 1"><path class="cls-1" d="M69.88,24.12a2.13,2.13,0,1,1-2.13-2.19,2.16,2.16,0,0,1,2.13,2.19Z"/><path class="cls-1" d="M41.83,44.69a2.13,2.13,0,1,1-2.13-2.18,2.15,2.15,0,0,1,2.13,2.18Z"/><path class="cls-1" d="M41.83,84a2.13,2.13,0,1,1-2.13-2.18A2.16,2.16,0,0,1,41.83,84Z"/><path class="cls-2" d="M4.5,1h0A3.5,3.5,0,0,1,8,4.5V125.78a0,0,0,0,1,0,0H1a0,0,0,0,1,0,0V4.5A3.5,3.5,0,0,1,4.5,1Z"/><path class="cls-2" d="M8,6.28l51-.17s4,0,4,3.07v6.14"/><rect class="cls-2" x="31" y="15.32" width="64" height="86.94" rx="21.13" ry="21.13"/><ellipse class="cls-2" cx="62.5" cy="109.93" rx="6.5" ry="6.65"/><line class="cls-2" x1="52" y1="94.08" x2="74" y2="94.08"/><line class="cls-2" x1="40" y1="55.21" x2="40" y2="77.71"/><path class="cls-2" d="M40,35.78s2-13.3,15-11.26"/><line class="cls-2" x1="95" y1="38.9" x2="89" y2="38.84"/><line class="cls-2" x1="95" y1="45.83" x2="84" y2="46"/><line class="cls-2" x1="95" y1="52.48" x2="89" y2="52.48"/><polyline class="cls-2" points="95 59.03 95 59.3 84 59.3"/><line class="cls-2" x1="95" y1="65.61" x2="89" y2="65.61"/><line class="cls-2" x1="95" y1="71.92" x2="84" y2="71.92"/><line class="cls-2" x1="95" y1="78.39" x2="88" y2="78.39"/><path class="cls-2" d="M63,108.4v11.25c0,11.13,21,11.13,21,0v-7.16c0-11.14,20-11.14,20,0v15.34"/></g></g></svg>