<svg xmlns="http://www.w3.org/2000/svg" viewBox="0 0 79 69.01"><defs><style>.cls-1{fill:#ea6416;}</style></defs><title>inventarynaranja</title><g id="Capa_2" data-name="Capa 2"><g id="Layer_1" data-name="Layer 1"><path class="cls-1" d="M40,60.45a1.07,1.07,0,0,1-.39.07,1.15,1.15,0,0,1-.4-2.24,1.09,1.09,0,0,1,.4-.07A1.15,1.15,0,0,1,40,60.45Zm-.39-4.56a3.43,3.43,0,0,0-1.19.21,3.47,3.47,0,0,0,1.19,6.74,3.41,3.41,0,0,0,1.18-.21,3.47,3.47,0,0,0-1.18-6.74Z"/><path class="cls-1" d="M46.2,62.46a7.28,7.28,0,0,1-4.14,3.79,7.17,7.17,0,0,1-2.5.45,7.33,7.33,0,0,1-2.51-14.22,7.17,7.17,0,0,1,2.5-.45,7.35,7.35,0,0,1,6.89,4.83,7.26,7.26,0,0,1-.24,5.6ZM18.68,5.39l0,0,0-.06a.08.08,0,0,0,0,0l0-.06,0,0a.1.1,0,0,0,0,0l0,0,0-.06,0,0-.06-.06h0l-.07-.06h0l-.08,0h0a1.06,1.06,0,0,0-.52-.16h-.34l-.08,0h0l-13.76,5L2.64,7.49l13.76-5h0A3.48,3.48,0,0,1,20.85,4.6L37.37,50a9.32,9.32,0,0,0-2.18.8L18.68,5.39ZM38.33,32.31l8-2.9L48,34.12a1.16,1.16,0,0,0,1.09.76,1.07,1.07,0,0,0,.39-.07l5.8-2.11A1.15,1.15,0,0,0,56,31.22l-1.71-4.71,8-2.91,7.66,21L46.82,53a9.58,9.58,0,0,0-1.44-1.34L38.33,32.31Zm8.23-20.24-3.62,1.32L41.62,9.77l3.62-1.32,1.32,3.62ZM49.8,32.24l-1.32-3.62L52.1,27.3l1.32,3.62L49.8,32.24ZM48.62,56.07c-.14-.37-.29-.72-.46-1.07L75.57,45l.79,2.17L49,57.18a10.86,10.86,0,0,0-.33-1.11Zm30-7.33.07-.07h0l.06-.08h0l.06-.08v0l0-.08,0,0a.19.19,0,0,0,0-.07l0,0a.14.14,0,0,1,0-.06s0,0,0-.08v0a1.08,1.08,0,0,0-.06-.56l-1.58-4.35a1.15,1.15,0,0,0-.59-.65h0l0,0,0,0h0a1.13,1.13,0,0,0-.77,0l-3.78,1.37L64,21.72h0L60.86,13a1.16,1.16,0,0,0-1.08-.76,1.34,1.34,0,0,0-.4.07,1.16,1.16,0,0,0-.69,1.49l2.77,7.61L46.6,26.84h0l-9.06,3.29L31.47,13.46l8-2.9,1.72,4.71a1.14,1.14,0,0,0,1.08.76,1.09,1.09,0,0,0,.4-.07l5.8-2.11a1.17,1.17,0,0,0,.75-1.25h0s0-.06,0-.09v0a.49.49,0,0,0,0-.11L47.42,7.66l8-2.9,1.72,4.71a1.16,1.16,0,0,0,1.08.76,1.09,1.09,0,0,0,.4-.07,1.16,1.16,0,0,0,.69-1.49l-2.11-5.8a1.17,1.17,0,0,0-.91-.74l-.18,0a1.28,1.28,0,0,0-.39.07L45.54,5.88h0L39.75,8h0L29.59,11.68a1.16,1.16,0,0,0-.65.6,1.15,1.15,0,0,0,0,.89L35.76,32l6.59,18.13a9.44,9.44,0,0,0-2.61-.42L23,3.81A5.8,5.8,0,0,0,15.61.35h0L.76,5.7h0l-.08,0h0l-.07,0,0,0-.06,0,0,0-.06,0,0,0L.32,6l0,0,0,.06,0,0a.21.21,0,0,1,0,.06l0,0,0,.06,0,0,0,.06s0,0,0,0a.08.08,0,0,0,0,0s0,0,0,0a.13.13,0,0,1,0,.06s0,0,0,0v.06a.11.11,0,0,0,0,.05v.12a.13.13,0,0,0,0,.06V7S0,7,0,7a.11.11,0,0,1,0,.05.19.19,0,0,1,0,.07s0,0,0,.05h0l1.58,4.35,0,.09a.3.3,0,0,1,0,.08l.06.09,0,.06a.3.3,0,0,0,.08.08L2,12l.1.08,0,0,.12.06,0,0,.13.05,0,0,.14,0H3l.07,0,.06,0h0l13.76-5L33.22,52.1A9.64,9.64,0,1,0,48.3,63.44a9.83,9.83,0,0,0,.9-3.89L78.24,49h0l.09,0h0l.07,0,0,0a.1.1,0,0,0,.05,0h0l.07-.06Z"/></g></g></svg>