<svg xmlns="http://www.w3.org/2000/svg" viewBox="0 0 111 111"><defs><style>.cls-1{fill:#e46416;}</style></defs><title>lapicito</title><g id="Capa_2" data-name="Capa 2"><g id="Layer_1" data-name="Layer 1"><path class="cls-1" d="M105,6A20.39,20.39,0,0,0,76.19,6l-61.28,61a3.4,3.4,0,0,0-.84,1.27L.2,106.34A3.48,3.48,0,0,0,3.47,111a3.29,3.29,0,0,0,1-.16L39,100.26a3.72,3.72,0,0,0,1.44-.86L105,34.8A20.35,20.35,0,0,0,105,6ZM35,94.21l-12.92,4a14.77,14.77,0,0,0-3.53-5.77,18.86,18.86,0,0,0-4.69-3.34l5.9-16.24h8v6.93a3.47,3.47,0,0,0,3.47,3.47h6.13ZM86.05,44,43.8,86.2,45,80.49a3.46,3.46,0,0,0-3.39-4.17h-7V69.37a3.47,3.47,0,0,0-3.47-3.47H25.74L67,24.88l0,.05a13.45,13.45,0,1,1,19,19Zm14.06-14-3.24,3.24a20.31,20.31,0,0,0-19-19l3.25-3.22v0a13.46,13.46,0,0,1,19,19ZM77.33,28.76,42.64,63.44a3.47,3.47,0,0,0,4.9,4.92L82.22,33.67a3.46,3.46,0,1,0-4.89-4.91Z"/></g></g></svg>