<svg xmlns="http://www.w3.org/2000/svg" viewBox="0 0 146 126"><defs><style>.cls-1{fill:none;stroke:#fff;stroke-linecap:round;stroke-linejoin:round;stroke-width:2px;}</style></defs><title>licoresytabacoblanco</title><g id="Capa_2" data-name="Capa 2"><g id="Capa_1-2" data-name="Capa 1"><path class="cls-1" d="M13,120s28-13,56,0"/><rect class="cls-1" x="27" y="76" width="28" height="21"/><path class="cls-1" d="M12,125H69s12-6,12-16c0,0-4-26-15-46,0,0-3-8-11-7,0,0-6,1-7-5V44a5.57,5.57,0,0,0,2-6s-3-3-2-5l2-6s3-7-3-9c-2,0-5-2-11,0,0,0-5,1-5,6l3,8a7.35,7.35,0,0,1-1,6s-2,2,1,6v7s0,5-7,5c0,0-8,0-10,7,0,0-13,24-16,47C1,110,3,121,12,125Z"/><line class="cls-1" x1="33" y1="38" x2="48.81" y2="38"/><line class="cls-1" x1="34" y1="48" x2="48" y2="48"/><path class="cls-1" d="M111.27,11A4.27,4.27,0,0,1,107,6.73V5.27A4.27,4.27,0,0,1,111.27,1h24.46A4.27,4.27,0,0,1,140,5.27V6.73A4.27,4.27,0,0,1,135.73,11H125.12"/><path class="cls-1" d="M115.27,21h-25A4.27,4.27,0,0,1,86,16.73V15.27A4.27,4.27,0,0,1,90.27,11h19.85"/><path class="cls-1" d="M126.73,11A4.27,4.27,0,0,1,131,15.27v1.46A4.27,4.27,0,0,1,126.73,21h-1.11"/><path class="cls-1" d="M126.73,21h11C141,21,142,25,142,25"/><path class="cls-1" d="M142,25c2,4,3,25,3,25a39.72,39.72,0,0,0-7.27-19H115.27A4.27,4.27,0,0,1,111,26.73V25.27A4.27,4.27,0,0,1,115.27,21"/><ellipse class="cls-1" cx="106" cy="50.5" rx="39" ry="10.5"/><line class="cls-1" x1="129.89" y1="42.2" x2="129.89" y2="58.8"/><path class="cls-1" d="M110.13,40.06a42.72,42.72,0,0,0,10.76,20.15"/><path class="cls-1" d="M96.13,41.06s1.81,10.2,10.92,20"/><path class="cls-1" d="M82.13,43s.61,7.36,9.71,17.16"/></g></g></svg>