<svg id="Layer_1" data-name="Layer 1" xmlns="http://www.w3.org/2000/svg" viewBox="0 0 65.5 67.5"><defs><style>.cls-1{fill:#e46416;}.cls-2{fill:#fff;}</style></defs><title>iconos</title><path class="cls-1" d="M34,3.69c.6.1,1.2.19,1.8.3a16.08,16.08,0,0,1,13,15.49c0,1.42,0,2.84,0,4.25,0,.19,0,.39,0,.64H52c1,0,1.44.39,1.44,1.42q0,14.14,0,28.27a4.58,4.58,0,0,1-4.79,4.77H16.86a4.59,4.59,0,0,1-4.79-4.77q0-14.14,0-28.27c0-1,.4-1.42,1.44-1.42h3.16c0-1.44,0-2.82,0-4.19A25.16,25.16,0,0,1,17,16.49,16.07,16.07,0,0,1,31,3.79a4.19,4.19,0,0,0,.47-.1Zm-19.69,23c0,.23,0,.41,0,.59q0,13.35,0,26.7A2.36,2.36,0,0,0,17,56.55H48.53A2.36,2.36,0,0,0,51.14,54q0-13.35,0-26.7c0-.19,0-.38,0-.58Zm9.18-2.34H41.84a53.52,53.52,0,0,0,0-5.87,9,9,0,0,0-8.29-7.87A9.22,9.22,0,0,0,24,17C23.24,19.4,23.71,21.87,23.54,24.34Zm-2.29,0c0-.29,0-.54,0-.79,0-1.7-.06-3.42.11-5.11a11.46,11.46,0,0,1,22.78,0c.17,1.74.08,3.51.11,5.27,0,.21,0,.41,0,.62h2.29c0-1.2,0-2.36,0-3.53a23.2,23.2,0,0,0-.3-3.85,13.76,13.76,0,0,0-27.15,1.26C18.91,20,19,21.84,19,23.65c0,.23,0,.45,0,.7Z"/><path class="cls-2" d="M23.54,24.34c.17-2.47-.3-4.94.45-7.35a9.22,9.22,0,0,1,9.51-6.39,9,9,0,0,1,8.29,7.87,53.52,53.52,0,0,1,0,5.87Z"/><path class="cls-1" d="M32.74,49.65H30.8c-1.15,0-1.6-.52-1.46-1.65.22-1.89.42-3.78.64-5.67a.78.78,0,0,0-.3-.78,4.59,4.59,0,1,1,6.16,0,.84.84,0,0,0-.32.83c.22,1.89.42,3.78.64,5.67.13,1.1-.32,1.62-1.43,1.63Zm1-2.35c-.2-1.84-.36-3.63-.61-5.4A1.6,1.6,0,0,1,34,40a2.19,2.19,0,0,0,.82-2.83,2.27,2.27,0,0,0-2.63-1.27,2.27,2.27,0,0,0-.59,4.18,1.4,1.4,0,0,1,.76,1.61c-.12.76-.19,1.53-.27,2.3-.12,1.08-.24,2.16-.36,3.28Z"/></svg>