<svg xmlns="http://www.w3.org/2000/svg" viewBox="0 0 300 230"><defs><style>.cls-1{fill:#ea6416;}</style></defs><title>lote</title><g id="Capa_2" data-name="Capa 2"><g id="Capa_1-2" data-name="Capa 1"><path class="cls-1" d="M295,180H275V5a5,5,0,0,0-5-5H30a5,5,0,0,0-5,5V180H5a5,5,0,0,0-5,5v40a5,5,0,0,0,5,5H45a5,5,0,0,0,5-5V210h75v15a5,5,0,0,0,5,5h40a5,5,0,0,0,5-5V210h75v15a5,5,0,0,0,5,5h40a5,5,0,0,0,5-5V185a5,5,0,0,0-5-5ZM70,110H35V100H70ZM35,30H70V45a5,5,0,0,0,7.77,4.16L90,41l12.23,8.15A5,5,0,0,0,110,45V30h35V90H35ZM80,10h20V35.65l-7.23-4.81a5,5,0,0,0-5.54,0L80,35.65ZM265,110H230V100h35Zm-75,0H155V100h35Zm10-10h20v25.65l-7.23-4.81a5,5,0,0,0-5.54,0L200,125.65Zm65-10H155V30h35V45a5,5,0,0,0,7.77,4.16L210,41l12.23,8.15A5,5,0,0,0,230,45V30h35ZM220,35.65l-7.23-4.81a5,5,0,0,0-5.54,0L200,35.65V10h20ZM190,20H155V10h35ZM80,100h20v25.65l-7.23-4.81a5,5,0,0,0-5.54,0L80,125.65Zm30,0h35v10H110Zm45,20h35v15a5,5,0,0,0,7.77,4.16L210,131l12.23,8.15A5,5,0,0,0,230,135V120h35v60H155ZM265,20H230V10h35ZM145,20H110V10h35ZM70,10V20H35V10ZM35,120H70v15a5,5,0,0,0,7.77,4.16L90,131l12.23,8.15A5,5,0,0,0,110,135V120h35v60H35ZM10,190H290v10H10Zm30,30H10V210H40Zm125,0H135V210h30Zm95,0V210h30v10Z"/></g></g></svg>