<svg xmlns="http://www.w3.org/2000/svg" viewBox="0 0 89 126"><defs><style>.cls-1,.cls-2{fill:none;stroke:#fff;stroke-width:2px;}.cls-1{stroke-linecap:round;stroke-linejoin:round;}.cls-2{stroke-miterlimit:10;}</style></defs><title>lubricantesblanco</title><g id="Capa_2" data-name="Capa 2"><g id="Capa_1-2" data-name="Capa 1"><rect class="cls-1" x="5" y="1" width="29.5" height="8" rx="1.87" ry="1.87"/><rect class="cls-1" x="1" y="18" width="87" height="107" rx="10.34" ry="10.34"/><path class="cls-1" d="M69.66,117H19.43A10.28,10.28,0,0,1,9.1,106.78V35.22A10.28,10.28,0,0,1,19.43,25H34.56L80,71.65v35.13A10.28,10.28,0,0,1,69.66,117Z"/><line class="cls-1" x1="40" y1="18" x2="88" y2="66.5"/><path class="cls-1" d="M52,30H70s5,0,5,6l.11,17.48"/><line class="cls-1" x1="9.63" y1="18.15" x2="9.63" y2="9"/><line class="cls-1" x1="30.63" y1="18" x2="30.63" y2="9"/><path class="cls-2" d="M41.16,64.72c.66-1,1.25-1.91,1.84-2.72.59.81,1.18,1.76,1.84,2.72C50.35,73,58.65,85.15,58.65,91.32a15.87,15.87,0,0,1-4.55,11.1A15.57,15.57,0,0,1,43,107a15.87,15.87,0,0,1-11.1-4.55,15.57,15.57,0,0,1-4.55-11.1c0-6.17,8.3-18.44,13.81-26.6Z"/><path class="cls-1" d="M54,94s-1,6-6,7"/></g></g></svg>