<svg xmlns="http://www.w3.org/2000/svg" viewBox="0 0 129 129"><defs><style>.cls-1{fill:#fff;}.cls-2{fill:none;stroke:#fff;stroke-linecap:round;stroke-linejoin:round;stroke-width:2px;}</style></defs><title>maquinariasblanco</title><g id="Capa_2" data-name="Capa 2"><g id="Capa_1-2" data-name="Capa 1"><path class="cls-1" d="M108.28,117.23a2.56,2.56,0,1,0,2.56-2.56,2.56,2.56,0,0,0-2.56,2.56Z"/><path class="cls-1" d="M94.71,114.67a2.56,2.56,0,1,0,2.56,2.56,2.55,2.55,0,0,0-2.56-2.56Z"/><path class="cls-1" d="M79.35,114.67a2.56,2.56,0,1,0,2.56,2.56,2.55,2.55,0,0,0-2.56-2.56Z"/><path class="cls-1" d="M62.45,114.67A2.56,2.56,0,1,0,65,117.23a2.56,2.56,0,0,0-2.56-2.56Z"/><path class="cls-1" d="M47.09,114.67a2.56,2.56,0,1,0,2.56,2.56,2.56,2.56,0,0,0-2.56-2.56Z"/><path class="cls-1" d="M31.73,114.67a2.56,2.56,0,1,0,2.56,2.56,2.56,2.56,0,0,0-2.56-2.56Z"/><path class="cls-1" d="M16.37,114.67a2.56,2.56,0,1,0,2.56,2.56,2.56,2.56,0,0,0-2.56-2.56Z"/><rect class="cls-2" x="1" y="107.52" width="127" height="20.48" rx="9.07" ry="9.07"/><rect class="cls-2" x="90.1" y="78.84" width="20.48" height="28.68"/><polyline class="cls-2" points="92.15 63.48 81.91 52.21 87.03 42.99 112.64 42.99 117.76 52.21 107.52 63.48"/><circle class="cls-2" cx="99.32" cy="16.36" r="15.36"/><circle class="cls-2" cx="16.36" cy="26.6" r="15.36"/><circle class="cls-2" cx="44.02" cy="70.13" r="18.95"/><circle class="cls-2" cx="16.36" cy="26.6" r="6.15"/><circle class="cls-2" cx="99.32" cy="16.36" r="6.15"/><circle class="cls-2" cx="43.5" cy="70.13" r="8.71"/><line class="cls-2" x1="26.6" y1="77.81" x2="26.6" y2="107.52"/><line class="cls-2" x1="62.45" y1="74.74" x2="62.45" y2="107.52"/><line class="cls-2" x1="28.65" y1="58.35" x2="16.36" y2="41.97"/><line class="cls-2" x1="47.09" y1="51.44" x2="30.06" y2="34.41"/><line class="cls-2" x1="30.7" y1="31.73" x2="87.27" y2="25.89"/><line class="cls-2" x1="22.51" y1="12.52" x2="84.84" y2="11.24"/><line class="cls-2" x1="93.76" y1="30.68" x2="93.18" y2="42.99"/><line class="cls-2" x1="106.05" y1="30.68" x2="105.47" y2="42.99"/></g></g></svg>