<svg xmlns="http://www.w3.org/2000/svg" viewBox="0 0 294.43 249"><defs><style>.cls-1{fill:none;stroke:#ea6416;stroke-linecap:round;stroke-linejoin:round;stroke-width:8px;}</style></defs><title>modelorange</title><g id="Layer_2" data-name="Layer 2"><g id="Capa_3" data-name="Capa 3"><polygon class="cls-1" points="151.72 4 172.02 45.15 217.43 51.75 184.57 83.78 192.33 129 151.72 107.65 111.1 129 118.86 83.78 86 51.75 131.41 45.15 151.72 4"/><polygon class="cls-1" points="69.72 120 90.02 161.15 135.43 167.75 102.58 199.78 110.33 245 69.72 223.65 29.1 245 36.86 199.78 4 167.75 49.41 161.15 69.72 120"/><polygon class="cls-1" points="224.72 120 245.02 161.15 290.43 167.75 257.57 199.78 265.33 245 224.72 223.65 184.1 245 191.86 199.78 159 167.75 204.41 161.15 224.72 120"/></g></g></svg>