<svg xmlns="http://www.w3.org/2000/svg" viewBox="0 0 164.57 185.31"><defs><style>.cls-1,.cls-10,.cls-3,.cls-5,.cls-6,.cls-7,.cls-9{fill:none;}.cls-1,.cls-2,.cls-4{stroke:#e36416;}.cls-1,.cls-10,.cls-2,.cls-3,.cls-4,.cls-5,.cls-6,.cls-7{stroke-linecap:round;stroke-linejoin:round;}.cls-1,.cls-2,.cls-3,.cls-4,.cls-5,.cls-6,.cls-7{stroke-width:2px;}.cls-2,.cls-8{fill:#424242;}.cls-3{stroke:#e16416;}.cls-4{fill:#3e424b;}.cls-5{stroke:#3e424b;}.cls-10,.cls-6,.cls-9{stroke:#424242;}.cls-7{stroke:#aa6414;}.cls-9{stroke-miterlimit:10;}.cls-10,.cls-9{stroke-width:0.5px;}</style></defs><title>motorizado</title><g id="Capa_2" data-name="Capa 2"><g id="Layer_1" data-name="Layer 1"><path class="cls-1" d="M80,122.23l-7.6,16s-3.69,12.93,4.93,17.24h37l3.38,6.16"/><path class="cls-1" d="M114.31,155.48s4.92-11.7,4.31-34.48h11.7s2.46,4.93,5.54,5.54h9.24"/><path class="cls-1" d="M145.1,113h-9.24s-5.54,1.24-5.54,8"/><ellipse class="cls-2" cx="145.1" cy="119.77" rx="3.39" ry="6.77"/><path class="cls-3" d="M137.9,126.54a37.35,37.35,0,0,1,1,12.87"/><path class="cls-1" d="M122.83,121C116,97,106.92,92.06,106.92,92.06s3.69-1.24,3.69-6.16h2.47s8.25,2.73,19.17,28.86"/><line class="cls-1" x1="66.48" y1="146.25" x2="20.71" y2="146.25"/><rect class="cls-4" x="18.86" y="146.25" width="11.42" height="6.77" rx="3.39" ry="3.39"/><line class="cls-5" x1="67.81" y1="112.69" x2="67.81" y2="119.46"/><line class="cls-6" x1="51.8" y1="112.69" x2="51.8" y2="119.46"/><line class="cls-7" x1="32.71" y1="120.33" x2="83.83" y2="120.33"/><path class="cls-6" d="M70.74,164.72l.15,4a7.24,7.24,0,0,1-6.77,6.16H48.72C36.41,194,6.85,179.81,15.47,158.25"/><path class="cls-6" d="M124.85,166c1.47,29.87,47.65,20.63,35.87-8.62"/><circle class="cls-6" cx="143.56" cy="166.26" r="9.24"/><path class="cls-4" d="M139.25,157.33l3.08,8.93c1,2.49,4.07,1.26,3.08-1.23l-2.62-7.7"/><path class="cls-6" d="M25.94,158.25c-10.47,12.94,10.47,25.87,16.63,7.39"/><path class="cls-4" d="M32.36,161.19,30.87,165A1.8,1.8,0,1,0,34,166.88L35.17,164"/><circle class="cls-2" cx="105.07" cy="85.9" r="2.77"/><path class="cls-1" d="M110.92,85.59V82.51l-3.69-3.69S106,76.35,93.06,83.13c0,0,1.23,3.08,0,5.54,0,0,7.7-3.23,8.93-2.23"/><path class="cls-1" d="M96.83,88.13s2.08,3.07,6.39.77"/><path class="cls-1" d="M101.68,89.9s4.31,0,4.93,1.85"/><polyline class="cls-1" points="92.75 112.38 83.52 142.55 89.67 142.55"/><path class="cls-1" d="M90.55,141l-.87,5.85s4.31,2.47,8,0l.62-4.92"/><path class="cls-1" d="M85.62,142.55l-1.18,4.62a2.7,2.7,0,0,0,3.7,1.23v-1.85h1.23"/><path class="cls-1" d="M87.52,149s-1.23,2.46,0,3.69h25.86s-3.54-6.15-15.62-6.46"/><path class="cls-1" d="M84.44,147.17s-4.93,1.23-4.31,5.54h7.39v2.47"/><line class="cls-3" x1="80.13" y1="152.71" x2="80.13" y2="155.18"/><path class="cls-6" d="M57.35,98.22s0,6.46,8,8.31l33.25,1.23s4.93,1.23,3.7,6.16L96.14,140.4"/><path class="cls-1" d="M84.13,112.38h8.62c4.31,0,2.78,4.62,2.78,4.62l-6.16,24h13.54c8-29.56,6.16-32.63,6.16-32.63-1.84-6.78-9.23-8-9.23-8l-11.09-.62L38.26,97.29s-1.13,7.7,6.36,15.09"/><circle class="cls-8" cx="49.34" cy="169.34" r="2.16"/><line class="cls-1" x1="9.62" y1="157.33" x2="31.17" y2="157.33"/><path class="cls-1" d="M121.08,161.64c-2.67-26.36,39.82-30.67,42.49-4.31H136.48c-4.31,1.85-4.93,8.62-4.93,8.62H121.08v-4.31h-4.93l-6.77,3.08H36.72s-4.93-1.23-5.55-7.39H60.12s5.54-1.23,6.15-8.62c0,0,3.08-17.24-14.16-22.78H38.56s-22.16,4.92-28.94,31.4H2.23c-1.64,0-1.64-4.93,0-4.93h3.7s5.54-25.24,26.48-30.17H81.05l3.08-3.08v-6.77H39.18s-4.31,0-6.16,6.77l-.61,3.08"/><path class="cls-8" d="M71.41,32.62,68.8,42.19s0,3.48,1.74,3.48l24.8.44-1.8-10,1.8-.44-1.8-4.1S87,29.69,83.32,38.33l-6.26-.06,2.61-13.49-2.61-.43s-.87,2.61,0,3.48C77.06,27.83,76.19,30.44,71.41,32.62Z"/><path class="cls-1" d="M94.16,20.47l3.08,8.63-3.08,2.46c0,1.23,1.84,4.31,1.84,4.31H93.54"/><path class="cls-1" d="M67.37,30.63c.81,1.67,8,1.85,9.24-2.46,0,0-1.24-5.54,3.69-8h8"/><path class="cls-1" d="M88.61,40.8c0-4.32,4.93-4.93,4.93-4.93L96,46.34H70.76c-2-.67-2.47-4.31-2.47-4.31s-3.37-8.61-21,1"/><path class="cls-1" d="M94.16,31.56s-8.62-2.46-10.47,6.77H78.76c-1.23,0-1.85-1.23-1.23-2.46L80,24.78"/><line class="cls-1" x1="76.72" y1="24.56" x2="84.3" y2="24.78"/><path class="cls-2" d="M84.77,20.17c-1.7,11.39,10.62,9.54,9.39,0Z"/><path class="cls-6" d="M60.6,29.57l6.77,1.06C57.92,15.65,79.5.4,87.51,18.26l8.7,0C88.59-11.14,53,0,60.6,29.4"/><path class="cls-1" d="M93.16,89.18,70.54,92.66c-14.8,0-13.06-16.53-13.06-16.53.87-19.15,2.61-28.28,2.61-28.28C72.28,49.15,74,56.11,74,56.11c1.74,7.84,0,20-1.74,27,7,2.61,20.88,0,20.88,0A12.94,12.94,0,0,1,93.16,89.18Z"/><rect class="cls-1" x="8.75" y="40.45" width="42.64" height="42.64" rx="11.88" ry="11.88" transform="translate(6.63 -2.81) rotate(6.01)"/><rect class="cls-1" x="16.19" y="50.9" width="27.59" height="23.41" transform="translate(6.71 -2.79) rotate(6.01)"/><path class="cls-1" d="M37.47,97A19.61,19.61,0,0,1,36.35,84"/><path class="cls-1" d="M63.58,38.71s2.61-.91,5.22-7"/><path class="cls-1" d="M70.54,46.54s1.74,1.74,1.1,6"/><path class="cls-1" d="M70.54,92.66s-1.74,2,0,6.21"/><circle class="cls-9" cx="66.79" cy="61.5" r="5.5"/><line class="cls-9" x1="61.29" y1="61.5" x2="72.29" y2="61.5"/><circle class="cls-9" cx="64.97" cy="59.22" r="1.44"/><circle class="cls-9" cx="64.97" cy="59.17" r="0.51"/><line class="cls-10" x1="70.83" y1="57.77" x2="67.62" y2="57.77"/><line class="cls-10" x1="71.57" y1="59.06" x2="69.21" y2="59.06"/><line class="cls-10" x1="72.16" y1="60.44" x2="70.61" y2="60.44"/><circle class="cls-8" cx="68.56" cy="59.08" r="0.19"/><circle class="cls-8" cx="69.4" cy="63.92" r="0.19"/><circle class="cls-8" cx="67.9" cy="65.97" r="0.19"/><line class="cls-10" x1="72.07" y1="62.81" x2="70.61" y2="62.81"/><line class="cls-10" x1="71.72" y1="63.93" x2="70.05" y2="63.93"/><line class="cls-10" x1="70.83" y1="65.23" x2="68.74" y2="65.23"/></g></g></svg>