<svg xmlns="http://www.w3.org/2000/svg" viewBox="0 0 76.65 86.12"><defs><style>.cls-1,.cls-18,.cls-22,.cls-8{fill:#d66d26;}.cls-2,.cls-3{fill:#b3bac2;}.cls-12,.cls-16,.cls-17,.cls-2,.cls-20,.cls-22,.cls-23,.cls-7,.cls-8{stroke:#424242;}.cls-16,.cls-2,.cls-22,.cls-23{stroke-miterlimit:10;}.cls-10,.cls-11,.cls-12,.cls-14,.cls-16,.cls-17,.cls-18,.cls-19,.cls-2,.cls-20,.cls-21,.cls-22,.cls-23,.cls-5,.cls-7,.cls-8,.cls-9{stroke-width:0.25px;}.cls-19,.cls-4{fill:#424242;}.cls-11,.cls-14,.cls-5,.cls-7{fill:none;}.cls-10,.cls-19,.cls-5{stroke:#d26416;}.cls-10,.cls-11,.cls-12,.cls-14,.cls-17,.cls-18,.cls-19,.cls-20,.cls-21,.cls-5,.cls-7,.cls-8,.cls-9{stroke-linecap:round;stroke-linejoin:round;}.cls-10,.cls-16,.cls-17,.cls-6{fill:#fff;}.cls-9{fill:#373f49;}.cls-11,.cls-21,.cls-9{stroke:#d66d26;}.cls-12{fill:#36b8ff;}.cls-13,.cls-21{fill:#3a3d3f;}.cls-14{stroke:#3a3d3f;}.cls-15,.cls-20,.cls-23{fill:#e19f81;}.cls-18{stroke:#424243;}</style></defs><title>Moto_1</title><g id="Layer_2" data-name="Layer 2"><g id="Capa_3" data-name="Capa 3"><path class="cls-1" d="M23.85,78.65a1,1,0,1,1-1-1A1,1,0,0,1,23.85,78.65Z"/><path class="cls-2" d="M58.44,58.54C54.75,45.47,49.9,42.79,49.9,42.79a3.34,3.34,0,0,0,2-3.35H53.2s3.54-.61,9.41,13.61"/><path class="cls-3" d="M63.51,58.48H67s-1.63-3.62,0-6.16H63.51A3.51,3.51,0,0,0,61,56,4.22,4.22,0,0,0,63.51,58.48Z"/><path class="cls-4" d="M58.62,77c-.21,4.08,1.76,6.78,5.5,8.35,4,1.06,7.24.37,9.71-1.77,2.92-3,3.06-6.54,1.22-10.54L65.27,73s7.4.06,6,5.84c0,0-.46,2.9-4.26,3.26a4.88,4.88,0,0,1-4.34-4.35,4.66,4.66,0,0,1,2.39-3.92V73l-1.31,0s-1.63-.13-2.53,4Z"/><path class="cls-5" d="M75.18,73.44c6.18,14.37-16.59,17.23-16.61,3.87C61.31,68.48,66.55,66.39,75.18,73.44Z"/><rect class="cls-6" x="37.44" y="70.97" width="3.26" height="1.09"/><polygon class="cls-6" points="40.91 70.84 40.88 72.06 52.83 72.06 52.83 70.84 40.91 70.84"/><path class="cls-4" d="M39.22,68.29s-2.14.87-1.78,2.5h3.08A2.53,2.53,0,0,1,40.64,69,4.77,4.77,0,0,1,39.22,68.29Z"/><path class="cls-4" d="M40.79,69.07s-.86,1.77.12,1.77l12-.06a8.69,8.69,0,0,0-7-2.79s-2.54,1.26-4,0h-.72l-.08.72S41.15,68.89,40.79,69.07Z"/><circle class="cls-6" cx="67.04" cy="77.76" r="4.25"/><path class="cls-4" d="M7,73.08s-3.32,7.58,3.53,11.61c0,0,6.85,4.39,12.1-3h7.24A3.82,3.82,0,0,0,33,78.27V76.48H19.66s-.58,4.08-4.49,4.42c0,0-4-.1-4.5-3.9,0,0-.33-1.44,1.36-3.92Z"/><path class="cls-3" d="M15.08,56.19s0-3.75,2.78-4.16H39l.16,2.84-1.34,1.54H15.08Z"/><path class="cls-6" d="M17.82,44.86l15.2.89S32,43.52,33,42.4l.37-19.62c-.29.34-.41-7.94-6.73-5.1C17,19.62,17.41,34.45,16.42,40.55,16.68,42.76,17.2,44.37,17.82,44.86Z"/><path class="cls-3" d="M56.85,77h4.62c.32-2.12,1.06-3.72,2.9-4H76.52c0,.12-1.13-8.8-10.18-8.29C66.1,64.38,54.42,65.54,56.85,77Z"/><path class="cls-3" d="M56.46,75H55l-1.38-2.9s2.23-5.23,1.74-16.35h5.47a4.73,4.73,0,0,0,3.81,3l.37,6C64.77,64.5,56.46,65.78,56.46,75Z"/><path class="cls-7" d="M67.84,52.18H63.5a3.61,3.61,0,0,0-2.61,3.76"/><ellipse class="cls-8" cx="67.84" cy="55.36" rx="1.59" ry="3.18"/><line class="cls-7" x1="31.52" y1="52.03" x2="31.52" y2="55.21"/><line class="cls-7" x1="24" y1="52.03" x2="24" y2="55.21"/><line class="cls-7" x1="15.36" y1="55.62" x2="38.37" y2="55.62"/><path class="cls-5" d="M32.9,76.93,33,78.58a3.5,3.5,0,0,1-3.18,3H22.55C16.76,91,2.87,84,6.93,73.44"/><circle class="cls-5" cx="67.12" cy="77.68" r="4.34"/><path class="cls-9" d="M65.09,73l1.45,4.2c.46,1.17,1.91.59,1.44-.58L66.75,73"/><path class="cls-10" d="M19.84,76.55C17,85.24,7.11,79.16,12,73.08,16,71.16,18.6,72.39,19.84,76.55Z"/><path class="cls-9" d="M14.86,74.82l-.7,1.81a.85.85,0,1,0,1.45.87l.57-1.34"/><path class="cls-11" d="M45.59,67.8c5.68.15,7.35,3,7.35,3H40.78c-.58-.58,0-1.74,0-1.74"/><polyline class="cls-11" points="37.31 70.84 37.31 72 40.78 72"/><path class="cls-11" d="M52.94,70.84V72H40.78V70.84H37.31c-.29-2,2-2.6,2-2.6"/><path class="cls-12" d="M39.19,51.89h4.05c2,0,1.3,2.17,1.3,2.17L41.65,65.34H48C51.78,51.45,50.91,50,50.91,50c-.87-3.18-4.34-3.76-4.34-3.76L41.36,46,17.63,44.8s-.53,3.61,3,7.09"/><path class="cls-13" d="M33.21,14,32,18.9s-.06,1.49.95,1.82l11.69,0-1-4.7,1-.2-.74-1.93s-3.16-1.1-4.87,3l-2.71.19.91-6.47-1.36-.07s-.6,1.41-.19,1.82C35.68,12.34,35.66,13.41,33.21,14Z"/><path class="cls-7" d="M17.63,44.8a8.71,8.71,0,0,1-.89-6.27"/><path class="cls-7" d="M32.9,20.85a3.9,3.9,0,0,1,.42,2.89"/><path class="cls-7" d="M32.8,42.62s-.82.86,0,2.86"/><path class="cls-14" d="M26.61,45.33s-.4,3.16,3.75,3.81L46,49.72a2.33,2.33,0,0,1,1.74,2.89L44.57,65.16"/><path class="cls-15" d="M37.32,10.55,36,16.61c.35.48,1.67.5,3,.48,0,0,.18-3.74,5-3.31l1.4-1.12L44.18,9.73s-2.1,5.09-4.84.79Z"/><path class="cls-7" d="M43.9,8.7l1.45,4.05L43.9,13.91a7.32,7.32,0,0,0,.77,2H43.61"/><polygon class="cls-15" points="35.42 10.37 36.84 8.7 38.27 8.7 39.69 8.7 39.69 11.24 35.42 10.37"/><path class="cls-11" d="M37.25,10.69l-1.16,5.24c-.29.58,0,1.16.58,1.16H39a3.82,3.82,0,0,1,4.92-3.18,5.48,5.48,0,0,0,.87,2H43.61"/><line class="cls-5" x1="35.88" y1="10.57" x2="39.69" y2="10.67"/><path class="cls-7" d="M65,64.59a17.82,17.82,0,0,0-.49-6.05"/><path class="cls-7" d="M67.84,58.54H63.5c-1.45-.29-2.61-2.6-2.61-2.6H55.4c.29,10.7-2,16.2-2,16.2"/><path class="cls-12" d="M43.34,51.8,38.86,66l3.07-.06,3.25-13.76S44.81,50.88,43.34,51.8Z"/><path class="cls-6" d="M30.92,13.18s-3.67-5.1,1.88-8.67c0,0,6-2.61,8,4H37.39s-1.46-.23-1.78,3.51C35.61,12.06,34.15,15.84,30.92,13.18Z"/><path class="cls-13" d="M28.13,13l3.18.5c-4.44-7,5.36-13.42,9.12-5l4.44,0C41.29-5.44,24.55-.95,28.13,12.89"/><path class="cls-15" d="M32,14s-1.7,3-2.15,3c.05,0,2.06.89,2.1,2.69l1.38-5.56Z"/><path class="cls-7" d="M29.63,17.17S30.76,16.84,32,14"/><path class="cls-7" d="M32.09,19.16s-1.09-5-10.38.94a8.68,8.68,0,0,0-1.3,1.46"/><path class="cls-5" d="M40.75,16.19c2.1.9,2.86-.26,2.86-.26l1.16,4.92H32.9A1.55,1.55,0,0,1,32,19.42L33.31,14"/><path class="cls-16" d="M42.21,65.34l-.41,2.75a3.85,3.85,0,0,0,3.76,0l.29-2.68-3.64-.07"/><path class="cls-17" d="M41.65,68l.24-1.76-2-.12-.55,2.17a1.26,1.26,0,0,0,1.73.57V68h.58"/><path class="cls-3" d="M3.47,73.08.51,73A1.83,1.83,0,0,1,.63,70.7l1.84-.07c0,.13,2.48-11.79,12.35-14.11l22.43.09c.17.13-4.09,7.12-3.93,9.82,0,0-.66,4.54,2.69,5.71l17.36.21,1.39,2.57-3.61,1.47h-35A4.89,4.89,0,0,1,14.3,72.9Z"/><line class="cls-7" x1="30.89" y1="67.8" x2="9.39" y2="67.8"/><rect class="cls-18" x="8.52" y="67.8" width="5.37" height="3.18" rx="1.23" ry="1.23"/><line class="cls-7" x1="4.18" y1="73.01" x2="14.3" y2="73.01"/><path class="cls-7" d="M14.88,56.52l.29-1.45c.87-3.18,2.9-3.18,2.9-3.18H39.19v3.18l-1.45,1.45H14.88C5,58.83,2.44,70.7,2.44,70.7H.7C-.07,70.7-.07,73,.7,73H4.18c3.18-12.44,13.6-14.76,13.6-14.76h6.36C32.25,60.86,30.8,69,30.8,69,30.51,72.43,27.91,73,27.91,73H14.3a3.8,3.8,0,0,0,2.61,3.47H51.06L54.24,75h2.31v2h4.92s.29-3.18,2.32-4H76.52c-1.26-12.39-21.22-10.36-20,2"/><path class="cls-7" d="M37.26,56.52,33.69,64S32,70.12,36,72.14H53.37L55,75"/><path class="cls-19" d="M39.49,8.55c-.8,5.36,5,4.49,4.41,0Z"/><path class="cls-5" d="M31.31,13.47c.38.79,3.77.87,4.34-1.15a3.48,3.48,0,0,1,1.74-3.77h3.76"/><path class="cls-20" d="M50.41,39.51l1.31-.14V37.92L50,36.18S49.6,34.85,43.4,38c0,0,.44,2.17,0,3a2.11,2.11,0,0,1,.94-.62s.24,1.34,2.53,1.41a1.15,1.15,0,0,0,.84.18,2.51,2.51,0,0,1,1.42.44c.54.5,1.16.24,1.16-.4,0,0-.18-.7-1.81-1.4"/><path class="cls-21" d="M50.33,39.44a1.3,1.3,0,1,1-1.3-1.3A1.3,1.3,0,0,1,50.33,39.44Z"/><rect class="cls-22" x="3.04" y="18.49" width="20.04" height="20.04" rx="4.87" ry="4.87" transform="translate(-16.66 38.51) rotate(-83.99)"/><path class="cls-6" d="M19,25.76l.61.07-.07.56-.6-.07ZM18.86,27l.61.07-.36,3.11-.61-.07Z"/><path class="cls-6" d="M20,25.87l.61.07-.07.57-.61-.07Zm-.13,1.29.6.07-.36,3.1-.6-.07Z"/><path class="cls-6" d="M17.13,27.08a1.49,1.49,0,0,0-.81.14l.2-1.73-.16,0-.44,0h-.06l-.34,2.95a1.45,1.45,0,1,0,1.61-1.28m-.25,2.24a.8.8,0,1,1,.88-.7.81.81,0,0,1-.88.7"/><path class="cls-6" d="M14.89,25.3l-.1.86-.22,1.89a1,1,0,0,1-.91.92h-.25l-.24,0a1.07,1.07,0,0,1-.69-1.11l.22-1.89.1-.86L12.19,25l-.33,2.91h0a1.67,1.67,0,0,0,3.3.38h0l.05-.41.29-2.5Z"/><path class="cls-6" d="M7,31.39l.18-1.52-.8,1.44H6.18l-.44-1.59-.18,1.51-.36,0,.24-2,.5.06.4,1.41.71-1.28.51.06-.24,2Z"/><path class="cls-6" d="M9.79,31.71l-.1-.41-.94-.1-.19.37-.41-.05,1-1.94.44.05.57,2.13ZM9.37,30l-.48.93.73.09Z"/><path class="cls-6" d="M12.2,32l-.37-.81-.35,0-.09.76-.36,0,.24-2,.89.1a.63.63,0,0,1,.6.72.59.59,0,0,1-.56.54l.41.86Zm.19-1.4a.32.32,0,0,0-.31-.36l-.49-.06-.08.65.49.06A.33.33,0,0,0,12.39,30.59Z"/><path class="cls-6" d="M14.78,32.29l-.58-.94-.2.19-.08.65-.36,0,.24-2,.36,0-.12,1,.91-.88.45.05-.94.87.76,1.18Z"/><path class="cls-6" d="M16.07,32.44l.24-2,1.39.16,0,.32-1-.12-.06.52,1,.12,0,.32-1-.12-.06.56,1,.12,0,.32Z"/><path class="cls-6" d="M18.93,32.77l.2-1.73L18.51,31l0-.31,1.59.18,0,.32-.61-.07-.2,1.72Z"/><path class="cls-6" d="M11.73,24.93l-.54-.06-.37,3.2a.76.76,0,0,1-.85.65l-3.34-.39A.76.76,0,0,1,6,27.51l.37-3.2-.55-.07a.44.44,0,0,0,0,.1l-.39,3.35a1.08,1.08,0,0,0,1.06,1.08l3.65.42a1.08,1.08,0,0,0,1.27-.81L11.73,25Z"/><rect class="cls-6" x="7.31" y="23.85" width="1" height="1.11" transform="translate(-17.33 29.37) rotate(-83.41)"/><rect class="cls-6" x="9.23" y="24.08" width="1" height="1.11" transform="translate(-15.85 31.47) rotate(-83.41)"/><path class="cls-4" d="M6.8,29.81a.38.38,0,0,0,0-.75.38.38,0,0,0,0,.75Z"/><path class="cls-23" d="M43.43,41,32.8,42.62c-6.95,0-6.13-7.77-6.13-7.77a107.06,107.06,0,0,1,1.22-13.29c5.73.61,6.55,3.89,6.55,3.89.82,3.68,0,9.4-.82,12.67,3.27,1.23,9.81,0,9.81,0A6.1,6.1,0,0,1,43.43,41Z"/><path class="cls-16" d="M35.39,30.43l-8.78-.64s.38-7.93.92-8.23C28.41,21.56,36,21,35.39,30.43Z"/><path class="cls-1" d="M23.69,78.5a.85.85,0,1,1-.85-.85A.85.85,0,0,1,23.69,78.5Z"/></g></g></svg>