<svg xmlns="http://www.w3.org/2000/svg" viewBox="0 0 92.01 88.6"><defs><style>.cls-1{fill:#e46416;}</style></defs><title>nombreempresa</title><g id="Capa_2" data-name="Capa 2"><g id="Layer_1" data-name="Layer 1"><path class="cls-1" d="M92,61.93V12.63a1.8,1.8,0,0,0-1.8-1.81H29v-9A1.8,1.8,0,0,0,27.24,0H1.8A1.81,1.81,0,0,0,0,1.8V61.93a1.81,1.81,0,0,0,1.8,1.8H49.71a19.39,19.39,0,0,0-3.57,11.21V86.8a1.8,1.8,0,0,0,1.8,1.8H90.1a1.8,1.8,0,0,0,1.81-1.8V74.94a19.4,19.4,0,0,0-3.58-11.21h1.88a1.8,1.8,0,0,0,1.8-1.8ZM3.61,3.61H25.44v7.21H3.61ZM88.3,85H79.8V81.26a1.8,1.8,0,1,0-3.6,0V85H61.85V73.86a1.81,1.81,0,1,0-3.61,0V85H49.75V74.94A15.78,15.78,0,0,1,60.31,60.05l2-.7,1.73,4.36,0,.07a5.19,5.19,0,0,0,9.36.24l0-.07,2.1-4.64,2.13.74A15.79,15.79,0,0,1,88.3,74.94ZM69.57,56H68.12a7.88,7.88,0,0,1-7.88-7.88V42.29A12.48,12.48,0,0,0,64,43a7.92,7.92,0,0,0,3.23-.67,12.57,12.57,0,0,1,9-.93,3.29,3.29,0,0,0,1,.06h.14v6.65A7.88,7.88,0,0,1,69.57,56Zm6.55-20.22a7.81,7.81,0,0,1,1,2.1H77A16.12,16.12,0,0,0,65.82,39c-.86.38-2.07.65-4.53-.15a3.64,3.64,0,0,0-.92-.18,7.72,7.72,0,0,1,1.15-2.86,8.3,8.3,0,0,1,6.9-3.58h.85a8.33,8.33,0,0,1,6.85,3.51Zm-8,23.83h1.45a11.38,11.38,0,0,0,2-.19l-1.38,3a1.56,1.56,0,0,1-1.43.83,1.6,1.6,0,0,1-1.4-.9L66.25,59.4a11.41,11.41,0,0,0,1.87.16Zm20.29.56H85a19.3,19.3,0,0,0-6.09-3.47l-1.25-.44a11.46,11.46,0,0,0,3.39-8.14v-8a11.32,11.32,0,0,0-.17-2c0-.16,0-.33-.07-.51a11.09,11.09,0,0,0-1.64-3.83,11.47,11.47,0,0,0-9.61-5.2H68.12a11.5,11.5,0,0,0-9.69,5.32,11,11,0,0,0-1.8,6v8.13a11.47,11.47,0,0,0,3.48,8.23l-1,.35A19.24,19.24,0,0,0,53,60.12H3.61V14.43h84.8Z"/><path class="cls-1" d="M6.84,19.83v8.08a1.81,1.81,0,0,0,1.8,1.8H46a1.81,1.81,0,0,0,1.81-1.8V19.83A1.81,1.81,0,0,0,46,18H8.64a1.81,1.81,0,0,0-1.8,1.8Zm3.61,1.81H44.18V26.1H10.45Z"/><path class="cls-1" d="M9,36.1H27.31a1.81,1.81,0,1,0,0-3.61H9A1.81,1.81,0,0,0,9,36.1Z"/><path class="cls-1" d="M46,38.85H8.64a1.81,1.81,0,0,0-1.8,1.81v8.07a1.81,1.81,0,0,0,1.8,1.81H46a1.81,1.81,0,0,0,1.81-1.81V40.66A1.81,1.81,0,0,0,46,38.85Zm-1.8,8.08H10.45V42.46H44.18Z"/><path class="cls-1" d="M34,53.31H9a1.81,1.81,0,0,0,0,3.61H34a1.81,1.81,0,0,0,0-3.61Z"/><path class="cls-1" d="M36.06,36.21a1.86,1.86,0,0,0,.68-.13,1.81,1.81,0,0,0,1-2.35l-.06-.16a1.81,1.81,0,0,0-3.35,1.35l.07.16a1.8,1.8,0,0,0,1.67,1.13Z"/><path class="cls-1" d="M79.35,73A1.81,1.81,0,0,0,76,74.37l.07.16a1.79,1.79,0,0,0,1.67,1.13,1.82,1.82,0,0,0,.68-.13,1.8,1.8,0,0,0,1-2.35Z"/></g></g></svg>