<svg xmlns="http://www.w3.org/2000/svg" viewBox="0 0 132 128"><defs><style>.cls-1{fill:none;stroke:#424242;stroke-miterlimit:10;stroke-width:2px;}</style></defs><title>nometales</title><g id="Capa_2" data-name="Capa 2"><g id="Capa_1-2" data-name="Capa 1"><path class="cls-1" d="M32,39.27a2.12,2.12,0,0,1-1.58-2V3.1A2.1,2.1,0,0,0,28.3,1H15.7a2.1,2.1,0,0,0-2.1,2.1V37.25a2.11,2.11,0,0,1-1.59,2A14.7,14.7,0,0,0,1,53.5v71.4A2.1,2.1,0,0,0,3.1,127H40.9a2.1,2.1,0,0,0,2.1-2.1V53.5A14.7,14.7,0,0,0,32,39.27Z"/><path class="cls-1" d="M79.19,48a31.5,31.5,0,0,1-4.79-16.7V3.1A2.1,2.1,0,0,0,72.3,1H59.7a2.1,2.1,0,0,0-2.1,2.1V31.26A31.46,31.46,0,0,1,52.82,48l-.29.46A35.69,35.69,0,0,0,47.1,67.34V124.9a2.1,2.1,0,0,0,2.1,2.1H82.8a2.1,2.1,0,0,0,2.1-2.1V67.34a35.67,35.67,0,0,0-5.43-18.93Z"/><path class="cls-1" d="M66,94a7.65,7.65,0,1,1,7.65-7.65A7.66,7.66,0,0,1,66,94Z"/><path class="cls-1" d="M118.84,21.17h0a1,1,0,0,1-.42-.81V3.1A2.1,2.1,0,0,0,116.3,1H103.7a2.1,2.1,0,0,0-2.1,2.1V20.35a1,1,0,0,1-.42.81h0A27.24,27.24,0,0,0,89,43.89v81a2.1,2.1,0,0,0,2.1,2.1h37.8a2.1,2.1,0,0,0,2.1-2.1v-81a27.24,27.24,0,0,0-12.16-22.72Z"/><rect class="cls-1" x="97.4" y="55.6" width="25.2" height="58.8" rx="2.1" ry="2.1"/><line class="cls-1" x1="13.5" y1="11" x2="30.4" y2="11"/><line class="cls-1" x1="1" y1="68.2" x2="43" y2="68.2"/><line class="cls-1" x1="1.5" y1="102" x2="43.5" y2="102"/><line class="cls-1" x1="57.6" y1="11.58" x2="74.4" y2="11.58"/><line class="cls-1" x1="101.5" y1="12" x2="118.4" y2="12"/></g></g></svg>