<svg xmlns="http://www.w3.org/2000/svg" viewBox="0 0 1049 316.19"><defs><style>.cls-1{fill:#ea6416;}</style></defs><title>p2c naranja</title><g id="Capa_2" data-name="Capa 2"><g id="Layer_1" data-name="Layer 1"><path class="cls-1" d="M380.79,36.19H346.14v204.2c0,25.84-21.64,46.78-48.35,46.78H84.36C57.65,287.17,36,266.23,36,240.39V36.19H.48A49.17,49.17,0,0,0,0,42.75V256.32c0,33.07,33.27,59.87,74.31,59.87H307c41,0,74.31-26.8,74.31-59.87V42.75A47.56,47.56,0,0,0,380.79,36.19Z"/><rect class="cls-1" x="95.43" width="70.01" height="63.39"/><rect class="cls-1" x="217.98" width="70.02" height="63.39"/><path class="cls-1" d="M841.05,180.55c0-67.24,50.84-113.16,116.44-113.16,48.21,0,76.09,26.24,91.51,53.46l-40,19.68c-9.18-17.71-28.86-31.81-51.49-31.81-39.69,0-68.55,30.5-68.55,71.83s28.86,71.83,68.55,71.83c22.63,0,42.31-13.77,51.49-31.82l40,19.36c-15.74,27.22-43.3,53.79-91.51,53.79C891.89,293.71,841.05,247.79,841.05,180.55Z"/><path class="cls-1" d="M649.65,281.77v-36.4c89.54-66.26,115.78-88.89,115.78-115.79,0-19-17.38-28.54-35.42-28.54-24.93,0-44,9.84-58.72,25.26L644.73,95.47c21.32-24.6,53.79-35.75,84.29-35.75,46.58,0,83.64,26.24,83.64,69.86,0,37.39-30.83,69.86-87.57,111.19H814.3v41Z"/><path class="cls-1" d="M458.68,284.77V66H561c47.56,0,73.47,32.14,73.47,70.52,0,38-26.24,70.52-73.47,70.52H505.25v77.73ZM586.92,136.52c0-18.37-13.77-29.52-32.14-29.52H505.25v59h49.53C573.15,166,586.92,154.56,586.92,136.52Z"/></g></g></svg>