<svg xmlns="http://www.w3.org/2000/svg" viewBox="0 0 408.8 197.6"><defs><style>.cls-1{fill:#ea6416;}</style></defs><title>password_1</title><g id="Layer_2" data-name="Layer 2"><g id="Layer_1-2" data-name="Layer 1"><path class="cls-1" d="M383.6,0H25.2A25.23,25.23,0,0,0,0,25.2V102a25.22,25.22,0,0,0,25.2,25.2h224a6,6,0,0,0,0-12H25.2A13.21,13.21,0,0,1,12,102V25.2A13.21,13.21,0,0,1,25.2,12H383.6a13.21,13.21,0,0,1,13.2,13.2V82.8a6,6,0,1,0,12,0V25.2A25.23,25.23,0,0,0,383.6,0Z"/><path class="cls-1" d="M383.2,97V89.2a50.8,50.8,0,0,0-101.6,0V97a18.83,18.83,0,0,0-12.8,17.81v64a18.82,18.82,0,0,0,18.8,18.8h89.6A18.82,18.82,0,0,0,396,178.8v-64A18.83,18.83,0,0,0,383.2,97ZM332.4,50.4a38.85,38.85,0,0,1,38.8,38.8V96H293.6V89.2a38.84,38.84,0,0,1,38.8-38.8ZM384,178.8a6.81,6.81,0,0,1-6.8,6.8H287.6a6.81,6.81,0,0,1-6.8-6.8v-64a6.81,6.81,0,0,1,6.8-6.8h89.6a6.81,6.81,0,0,1,6.8,6.8Z"/><path class="cls-1" d="M97.37,47.8a6,6,0,0,0-8.2-2.19L76,53.21V38a6,6,0,0,0-12,0V53.21l-13.17-7.6a6,6,0,1,0-6,10.39L58,63.6,44.83,71.2a6,6,0,0,0,6,10.4L64,74V89.2a6,6,0,0,0,12,0V74L89.17,81.6a6,6,0,1,0,6-10.4L82,63.6,95.17,56a6,6,0,0,0,2.2-8.2Z"/><path class="cls-1" d="M174.17,47.8a6,6,0,0,0-8.2-2.19l-13.17,7.6V38a6,6,0,0,0-12,0V53.21l-13.17-7.6a6,6,0,1,0-6,10.39l13.17,7.6-13.17,7.6a6,6,0,0,0,6,10.4L140.8,74V89.2a6,6,0,0,0,12,0V74L166,81.6a6,6,0,0,0,6-10.4L158.8,63.6,172,56a6,6,0,0,0,2.2-8.2Z"/><path class="cls-1" d="M251,47.8a6,6,0,0,0-8.19-2.19l-13.17,7.6V38a6,6,0,0,0-12,0V53.21l-13.17-7.6a6,6,0,1,0-6,10.39l13.17,7.6-13.17,7.6a6,6,0,0,0,6,10.4L217.6,74V89.2a6,6,0,1,0,12,0V74l13.17,7.61a6,6,0,0,0,6-10.4L235.6,63.6,248.77,56A6,6,0,0,0,251,47.8Z"/><path class="cls-1" d="M332.4,121.6a18.8,18.8,0,0,0-6,36.61V166a6,6,0,0,0,12,0v-7.79a18.8,18.8,0,0,0-6-36.61Zm0,25.6a6.8,6.8,0,1,1,6.8-6.8,6.81,6.81,0,0,1-6.8,6.8Z"/></g></g></svg>