<svg xmlns="http://www.w3.org/2000/svg" viewBox="0 0 63.31 131"><defs><style>.cls-1{fill:#424242;}.cls-2{fill:none;stroke:#424242;stroke-linecap:round;stroke-linejoin:round;stroke-width:2px;}</style></defs><title>plasticos_1</title><g id="Capa_2" data-name="Capa 2"><g id="Capa_1-2" data-name="Capa 1"><path class="cls-1" d="M42.24,2a6.35,6.35,0,0,1,6.35,6.35v8.47a2.11,2.11,0,0,1-2.12,2.11H42.24v4.91a2.08,2.08,0,0,0,.44,1.29L59.9,47.51a2.39,2.39,0,0,1,.21.34A6.32,6.32,0,0,1,59.85,54a5.58,5.58,0,0,1-.49.6,6.28,6.28,0,0,1,.28,8.77,6.26,6.26,0,0,1,0,8.47,6.26,6.26,0,0,1,0,8.47,6.34,6.34,0,0,1,1.65,4.23v33.87A10.6,10.6,0,0,1,50.7,129H12.6A10.6,10.6,0,0,1,2,118.42V84.55a6.29,6.29,0,0,1,1.65-4.23,6.26,6.26,0,0,1,0-8.47,6.26,6.26,0,0,1,0-8.47,6.29,6.29,0,0,1,.27-8.77,7,7,0,0,1-.48-.6,6.27,6.27,0,0,1-.26-6.16,1.94,1.94,0,0,1,.21-.34L20.63,25.14a2.13,2.13,0,0,0,.44-1.3V18.93H16.84a2.11,2.11,0,0,1-2.12-2.11V8.35A6.35,6.35,0,0,1,21.07,2H42.24m0-2H21.07a8.36,8.36,0,0,0-8.35,8.35v8.47a4.12,4.12,0,0,0,4.12,4.11h2.23v2.91a.14.14,0,0,1,0,.07L1.83,46.29a4,4,0,0,0-.41.65,8.31,8.31,0,0,0,0,7.55,8.22,8.22,0,0,0-.25,8.9,8.32,8.32,0,0,0,0,8.46,8.34,8.34,0,0,0,0,8.47A8.3,8.3,0,0,0,0,84.54v33.88A12.62,12.62,0,0,0,12.6,131H50.7a12.62,12.62,0,0,0,12.59-12.58V84.55a8.41,8.41,0,0,0-1.17-4.23,8.37,8.37,0,0,0,0-8.47,8.35,8.35,0,0,0,0-8.46,8.22,8.22,0,0,0-.25-8.9,8.34,8.34,0,0,0,0-7.55,3.52,3.52,0,0,0-.4-.63L44.26,23.91a.12.12,0,0,1,0-.07V20.93h2.23a4.12,4.12,0,0,0,4.12-4.11V8.35A8.36,8.36,0,0,0,42.24,0Z"/><line class="cls-2" x1="21.39" y1="20" x2="42.39" y2="20"/><line class="cls-2" x1="2.39" y1="55.5" x2="60.86" y2="55.5"/><line class="cls-2" x1="2.91" y1="64" x2="61.39" y2="64"/><line class="cls-2" x1="2.91" y1="72" x2="61.39" y2="72"/><line class="cls-2" x1="2.91" y1="81" x2="61.39" y2="81"/><path class="cls-2" d="M34.39,119h12s5,0,5-4V104"/></g></g></svg>