<svg xmlns="http://www.w3.org/2000/svg" viewBox="0 0 243.38 243.38"><defs><style>.cls-1{fill:#ea6416;}</style></defs><title>question</title><g id="Capa_2" data-name="Capa 2"><g id="Capa_1-2" data-name="Capa 1"><path class="cls-1" d="M84.61,243.38A4.8,4.8,0,0,1,81.25,242L61.73,222.46H33.27A33.31,33.31,0,0,1,0,189.19V116A33.31,33.31,0,0,1,33.27,82.71h48a4.76,4.76,0,1,1,0,9.51h-48A23.79,23.79,0,0,0,9.51,116v73.21A23.8,23.8,0,0,0,33.27,213H64.16a4.75,4.75,0,0,1,4.36,2.85l11.35,11.35v-9.45A4.76,4.76,0,0,1,84.63,213H136a23.81,23.81,0,0,0,23.77-23.77v-32.8a4.75,4.75,0,0,1,9.5,0v32.8A33.3,33.3,0,0,1,136,222.46H89.38v16.17A4.77,4.77,0,0,1,86.43,243a4.84,4.84,0,0,1-1.82.36Z"/><path class="cls-1" d="M193.21,125.84a4.78,4.78,0,0,1,3.36,1.39l11.63,11.63V120.51a4.75,4.75,0,0,1,1.9-3.8A59.58,59.58,0,0,0,174.29,9.51h-12a59.58,59.58,0,1,0,0,119.16h12a59.49,59.49,0,0,0,17.52-2.62,4.8,4.8,0,0,1,1.4-.21ZM213,155.08a4.72,4.72,0,0,1-3.36-1.39l-17.78-17.76a69.31,69.31,0,0,1-17.53,2.25h-12A69.09,69.09,0,1,1,162.26,0h12a69.17,69.17,0,0,1,69.09,69.09,68.37,68.37,0,0,1-7.51,31.35,69.8,69.8,0,0,1-18.16,22.39v27.5a4.75,4.75,0,0,1-2.93,4.39,4.65,4.65,0,0,1-1.82.36Z"/><path class="cls-1" d="M169.6,88.78A4.75,4.75,0,0,1,164.85,84V72.61a9,9,0,0,1,7.09-8.82A10.62,10.62,0,1,0,159,53.43a4.76,4.76,0,0,1-9.51,0A20.13,20.13,0,1,1,174.36,73V84a4.76,4.76,0,0,1-4.76,4.75Z"/><path class="cls-1" d="M169.6,107.59A4.76,4.76,0,1,1,173,106.2a4.81,4.81,0,0,1-3.36,1.39Z"/><path class="cls-1" d="M130.72,156.86H30.42a4.75,4.75,0,0,1,0-9.5h100.3a4.75,4.75,0,1,1,0,9.5Z"/><path class="cls-1" d="M130.72,183.48a4.75,4.75,0,1,1,3.36-1.39,4.75,4.75,0,0,1-3.36,1.39Z"/><path class="cls-1" d="M112,183.48H30.42a4.75,4.75,0,1,1,0-9.5H112a4.75,4.75,0,1,1,0,9.5Z"/><path class="cls-1" d="M99.82,130.25H30.42a4.76,4.76,0,0,1,0-9.51h69.4a4.76,4.76,0,1,1,0,9.51Z"/></g></g></svg>