<svg xmlns="http://www.w3.org/2000/svg" viewBox="0 0 134 129.01"><defs><style>.cls-1{fill:none;stroke:#424242;stroke-linecap:round;stroke-linejoin:round;stroke-width:2px;}</style></defs><title>quimicos_1</title><g id="Capa_2" data-name="Capa 2"><g id="Capa_1-2" data-name="Capa 1"><path class="cls-1" d="M128.46,28.52A15.93,15.93,0,0,0,133,17.39C133,8.35,125.36,1,116,1a17.45,17.45,0,0,0-10.35,3.42A13.09,13.09,0,0,0,96.81,1,12.55,12.55,0,0,0,84,13.29a11.84,11.84,0,0,0,1.28,5.33,13.24,13.24,0,0,0-3.41,9,13.15,13.15,0,0,0,4,9.63l-6.14,5.91L74.09,37.7a6.74,6.74,0,0,0-4.7-1.87,6.53,6.53,0,0,0-6.65,6.39,6.31,6.31,0,0,0,1.95,4.52l1.43,1.38L60,54a8.9,8.9,0,0,1-8.71,2.15,40,40,0,0,0-18.12-1.4C16.54,57.22,3.43,70.23,1.31,86.35a36,36,0,0,0,10.91,30.86A38.93,38.93,0,0,0,39.33,128a41.68,41.68,0,0,0,5-.3c16.75-2,30.27-14.65,32.87-30.69a35.6,35.6,0,0,0-1.45-17.43A8.12,8.12,0,0,1,78,71.2L84,65.36l1.43,1.37a6.75,6.75,0,0,0,4.7,1.88,6.53,6.53,0,0,0,6.65-6.4,6.31,6.31,0,0,0-2-4.52l-5.69-5.47,6.15-5.92a14.16,14.16,0,0,0,10,3.87,14.86,14.86,0,0,0,7.75-2.12,12.94,12.94,0,0,0,7.16,2.12A12.55,12.55,0,0,0,133,37.88a12,12,0,0,0-4.54-9.36Z"/><path class="cls-1" d="M1.5,89.06s5-12.51,21-9.63c0-20.87,34-20.87,34,0,0,0,13.67-2.36,20.84,7"/><path class="cls-1" d="M4.65,106.87S9,100.12,18,104.93c0,0,3-10.58,13-2.88,0-10.38,17-10.38,17,0,0,0,6-4.81,11,1.92,0,0,5.56-8.61,16.28,0"/><line class="cls-1" x1="84" y1="65.48" x2="65.79" y2="47.8"/><line class="cls-1" x1="80" y1="43.35" x2="89.61" y2="52.63"/><path class="cls-1" d="M85,18.33s3,5.78,12,3.85"/><path class="cls-1" d="M113,48.16s2-4.81-2-7.7"/><path class="cls-1" d="M119,6.79s7,1.92,8,7.69"/><ellipse class="cls-1" cx="39" cy="79.43" rx="6.5" ry="6.25"/><ellipse class="cls-1" cx="28" cy="112.63" rx="5" ry="4.81"/><ellipse class="cls-1" cx="53" cy="112.63" rx="5" ry="4.81"/></g></g></svg>