<svg xmlns="http://www.w3.org/2000/svg" viewBox="0 0 90.1 77.6"><defs><style>.cls-1{fill:#e46416;}</style></defs><title>representante</title><g id="Capa_2" data-name="Capa 2"><g id="Layer_1" data-name="Layer 1"><path class="cls-1" d="M79.4,2.73H10.7A1.37,1.37,0,0,1,10.7,0H79.4a1.37,1.37,0,0,1,0,2.73Z"/><path class="cls-1" d="M83.28,77.6H6.82A6.82,6.82,0,0,1,0,70.78V15.57A6.83,6.83,0,0,1,6.82,8.76H83.28a6.82,6.82,0,0,1,6.82,6.81V70.8a6.81,6.81,0,0,1-6.82,6.8ZM6.82,11.49a4.09,4.09,0,0,0-4.09,4.08V70.8a4.09,4.09,0,0,0,4.09,4.08H83.28a4.1,4.1,0,0,0,4.11-4.08V15.57a4.1,4.1,0,0,0-4.11-4.08Z"/><path class="cls-1" d="M68.47,11.49H21.63a1.37,1.37,0,0,1,0-2.73H68.47a1.37,1.37,0,1,1,0,2.73Z"/><path class="cls-1" d="M46.59,64.18H14.52a1.36,1.36,0,0,1-1.36-1.36V59.18a5.93,5.93,0,0,1,3.38-5.35l7.22-4.45a10.43,10.43,0,0,1-3.89-7.72l-.28-7.19a10,10,0,0,1,10-9.91h1.91a10,10,0,0,1,10,9.86l-.28,7.24a10.54,10.54,0,0,1-3.9,7.74l7.29,4.45a6,6,0,0,1,3.31,5.33v3.64a1.33,1.33,0,0,1-1.35,1.36ZM15.88,61.46H45.23V59.18a3.19,3.19,0,0,0-1.84-2.89l-.12-.07-9.21-5.64a1.39,1.39,0,0,1-.65-1.21,1.37,1.37,0,0,1,.76-1.17,7.77,7.77,0,0,0,4.34-6.64l.28-7.19a7.21,7.21,0,0,0-7.28-7.1H29.6a7.22,7.22,0,0,0-7.28,7.15l.28,7.14a7.81,7.81,0,0,0,4.33,6.64,1.38,1.38,0,0,1,.76,1.15A1.44,1.44,0,0,1,27,50.58l-9.19,5.63a3.28,3.28,0,0,0-2,3v2.29Z"/><path class="cls-1" d="M75.78,33.62H58.94a1.37,1.37,0,0,1,0-2.73H75.78a1.37,1.37,0,0,1,0,2.73Z"/><path class="cls-1" d="M75.78,45.72H58.94a1.36,1.36,0,1,1,0-2.71H75.78a1.36,1.36,0,1,1,0,2.71Z"/><path class="cls-1" d="M75.78,57.83H58.94a1.36,1.36,0,1,1,0-2.72H75.78a1.36,1.36,0,1,1,0,2.72Z"/></g></g></svg>