<svg xmlns="http://www.w3.org/2000/svg" viewBox="0 0 182 122.1"><defs><style>.cls-1{fill:none;stroke:#424242;stroke-linecap:round;stroke-linejoin:round;stroke-width:2px;}.cls-2{fill:#424242;}</style></defs><title>repuestos</title><g id="Capa_2" data-name="Capa 2"><g id="Capa_1-2" data-name="Capa 1"><rect class="cls-1" x="1" y="59" width="14" height="56" rx="4.9" ry="4.9"/><rect class="cls-1" x="167" y="35" width="14" height="56" rx="4.9" ry="4.9"/><path class="cls-1" d="M29,56v59s0,7,10,6h62l34-24s5-4,10-3c0,0,11,0,11-9V38s-2-7-9-6H80s-6,0-10,4L52,48a15.39,15.39,0,0,1-8,2S29,46,29,56Z"/><line class="cls-1" x1="42" y1="74" x2="42" y2="103"/><line class="cls-1" x1="15" y1="93" x2="29" y2="93"/><line class="cls-1" x1="15" y1="80.5" x2="29" y2="80.5"/><line class="cls-1" x1="156" y1="69" x2="167" y2="69"/><line class="cls-1" x1="156" y1="56.13" x2="167" y2="56.13"/><path class="cls-1" d="M81,53,74,77s0,4,5,4H90l-7,26,26-30s2-4-2-5H99s-4-2-3-6l3-12s1-3-3-4H86S82,50,81,53Z"/><path class="cls-1" d="M74,1H108a10,10,0,0,1,10,10v6.21A1.75,1.75,0,0,1,116.25,19H65.75A1.75,1.75,0,0,1,64,17.25V11A10,10,0,0,1,74,1Z"/><line class="cls-1" x1="85" y1="19" x2="85" y2="32"/><line class="cls-1" x1="98" y1="19" x2="98" y2="32"/><circle class="cls-2" cx="42" cy="63" r="2"/></g></g></svg>