<svg xmlns="http://www.w3.org/2000/svg" viewBox="0 0 134.85 100.5"><defs><style>.cls-1,.cls-3{fill:none;}.cls-1{stroke:#e46416;}.cls-1,.cls-3,.cls-4{stroke-linecap:round;stroke-linejoin:round;stroke-width:3px;}.cls-2{fill:#e46416;}.cls-3,.cls-4{stroke:#e66416;}.cls-4{fill:#fff;}</style></defs><title>retailnaranja</title><g id="Capa_2" data-name="Capa 2"><g id="Layer_1" data-name="Layer 1"><line class="cls-1" x1="123.76" y1="88.91" x2="123.66" y2="56.41"/><rect class="cls-2" x="22.21" y="55.88" width="24.17" height="32.41"/><rect class="cls-2" x="67.25" y="52.04" width="45.76" height="22.52"/><rect class="cls-3" x="1.5" y="88.91" width="130" height="10.09"/><line class="cls-3" x1="10.47" y1="19.43" x2="10.47" y2="88.91"/><line class="cls-3" x1="10.47" y1="48.01" x2="45.21" y2="48.01"/><polyline class="cls-3" points="10.47 55.29 46.89 55.29 46.89 88.91"/><line class="cls-3" x1="21.67" y1="55.29" x2="21.67" y2="88.91"/><line class="cls-3" x1="55.29" y1="54.23" x2="55.29" y2="88.91"/><rect class="cls-3" x="1.5" y="10.47" width="131.12" height="8.97"/><polyline class="cls-3" points="8.22 10.47 11.59 1.5 122.53 1.5 126.74 10.47"/><path class="cls-3" d="M56.63,32.88,47.26,46.54c-5.07,7.51,4,12.76,9.09,5.25L66.57,33.93,56.07,51.79h0C54,57.9,65,60.07,67.12,53.89v21h46.45V57.53"/><path class="cls-4" d="M66.5,55.29,78,32.88,69,50.81c-1.75,8.81,11.71,9.93,13.46,1.12l3.51-19"/><path class="cls-4" d="M84.29,33.79l-1,19.26c0,6.61,11.21,6.61,11.21,0L93.4,34l3.36,19c.58,6.39,12.91,5.27,12.33-1.12L102.36,34l6.73,17.93c1.12,5.6,12.32,6.73,12.32,0L113.57,34l7.84,17.93c5.61,7.85,14.57,3.36,11.21-4.48L121.41,32.88"/><polyline class="cls-3" points="123.76 19.43 123.76 32.88 10.47 32.88"/></g></g></svg>