<svg xmlns="http://www.w3.org/2000/svg" viewBox="0 0 136.12 102.5"><defs><style>.cls-1,.cls-3{fill:none;}.cls-1,.cls-3,.cls-4{stroke:#424242;stroke-linecap:round;stroke-linejoin:round;}.cls-1{stroke-width:5px;}.cls-2{fill:#424242;}.cls-3,.cls-4{stroke-width:3px;}.cls-4{fill:#fff;}</style></defs><title>retail2</title><g id="Capa_2" data-name="Capa 2"><g id="Layer_1" data-name="Layer 1"><line class="cls-1" x1="124.76" y1="89.91" x2="124.66" y2="57.41"/><rect class="cls-2" x="23.21" y="56.88" width="24.17" height="32.41"/><rect class="cls-2" x="68.25" y="53.04" width="45.76" height="22.52"/><rect class="cls-1" x="2.5" y="89.91" width="130" height="10.09"/><line class="cls-1" x1="11.47" y1="20.43" x2="11.47" y2="89.91"/><line class="cls-1" x1="11.47" y1="49.01" x2="46.21" y2="49.01"/><polyline class="cls-1" points="11.47 56.29 47.89 56.29 47.89 89.91"/><line class="cls-1" x1="22.67" y1="56.29" x2="22.67" y2="89.91"/><line class="cls-1" x1="56.29" y1="55.23" x2="56.29" y2="89.91"/><rect class="cls-1" x="2.5" y="11.47" width="131.12" height="8.97"/><polyline class="cls-1" points="9.22 11.47 12.59 2.5 123.53 2.5 127.74 11.47"/><path class="cls-3" d="M57.63,33.88,48.26,47.54c-5.07,7.51,4,12.76,9.09,5.25L67.57,34.93,57.07,52.79h0C55,58.9,66,61.07,68.12,54.89v21h46.45V58.53"/><path class="cls-4" d="M67.5,56.29,79,33.88,70,51.81c-1.75,8.81,11.71,9.93,13.46,1.12l3.51-19"/><path class="cls-4" d="M85.29,34.79l-1,19.26c0,6.61,11.21,6.61,11.21,0L94.4,35l3.36,19c.58,6.39,12.91,5.27,12.33-1.12L103.36,35l6.73,17.93c1.12,5.6,12.32,6.73,12.32,0L114.57,35l7.84,17.93c5.61,7.85,14.57,3.36,11.21-4.48L122.41,33.88"/><polyline class="cls-1" points="124.76 20.43 124.76 33.88 11.47 33.88"/></g></g></svg>