<svg xmlns="http://www.w3.org/2000/svg" viewBox="0 0 244.04 182.5"><defs><style>.cls-1,.cls-3{fill:none;}.cls-1,.cls-3,.cls-4{stroke:#fff;stroke-linecap:round;stroke-linejoin:round;}.cls-1{stroke-width:5px;}.cls-2{fill:#c7ced6;}.cls-3,.cls-4{stroke-width:3px;}.cls-4{fill:#ea6416;}</style></defs><title>retail</title><g id="Capa_2" data-name="Capa 2"><g id="Layer_1" data-name="Layer 1"><line class="cls-1" x1="225.08" y1="161.64" x2="224.89" y2="102.47"/><rect class="cls-2" x="40.19" y="101.5" width="44" height="59"/><rect class="cls-2" x="122.19" y="94.5" width="83.31" height="41"/><rect class="cls-1" x="2.5" y="161.64" width="236.67" height="18.36"/><line class="cls-1" x1="18.82" y1="35.14" x2="18.82" y2="161.64"/><line class="cls-1" x1="18.82" y1="87.17" x2="82.07" y2="87.17"/><polyline class="cls-1" points="18.82 100.43 85.13 100.43 85.13 161.64"/><line class="cls-3" x1="39.22" y1="100.43" x2="39.22" y2="161.64"/><line class="cls-1" x1="100.43" y1="98.5" x2="100.43" y2="161.64"/><rect class="cls-1" x="2.5" y="18.82" width="238.71" height="16.32"/><polyline class="cls-1" points="14.74 18.82 20.86 2.5 222.84 2.5 230.5 18.82"/><path class="cls-3" d="M102.87,59.63,85.8,84.49c-9.23,13.67,7.31,23.23,16.55,9.57L121,61.54,101.84,94.06h0c-3.77,11.12,16.27,15.06,20.13,3.82v38.26h84.55V104.51"/><path class="cls-4" d="M120.83,100.43l20.89-40.8L125.29,92.27c-3.19,16,21.32,18.08,24.5,2l6.4-34.68"/><path class="cls-4" d="M153.22,61.28l-1.78,35.07c0,12,20.4,12,20.4,0l-2-34.68,6.12,34.68c1.06,11.64,23.5,9.6,22.44-2L186.12,61.67l12.24,32.64c2,10.2,22.44,12.24,22.44,0L206.52,61.67,220.8,94.31c10.21,14.28,26.53,6.12,20.41-8.16L220.8,59.63"/><polyline class="cls-1" points="225.08 35.14 225.08 59.63 18.82 59.63"/></g></g></svg>