<svg xmlns="http://www.w3.org/2000/svg" viewBox="0 0 113 87.04"><defs><style>.cls-1{fill:#e56416;}</style></defs><title>rif</title><g id="Capa_2" data-name="Capa 2"><g id="Layer_1" data-name="Layer 1"><path class="cls-1" d="M104.61,0H8.41A8.36,8.36,0,0,0,0,8.41V78.63A8.35,8.35,0,0,0,8.41,87h96.18A8.55,8.55,0,0,0,113,78.4v-70A8.33,8.33,0,0,0,104.61,0Zm3.84,78.38a3.78,3.78,0,0,1-3.84,3.83H8.41a3.77,3.77,0,0,1-3.83-3.83v-70A3.77,3.77,0,0,1,8.41,4.58h96.18a3.77,3.77,0,0,1,3.83,3.83v70Z"/><path class="cls-1" d="M38.48,15.39h-25v25h25ZM33.91,35.83H18.28V20.2H33.91Z"/><rect class="cls-1" x="15.88" y="52.42" width="49.76" height="4.81"/><rect class="cls-1" x="15.88" y="67.56" width="49.76" height="4.81"/></g></g></svg>