<svg xmlns="http://www.w3.org/2000/svg" viewBox="0 0 1193.28 457.07"><defs><style>.cls-1{fill:#ea6416;}</style></defs><title>stripenaranja</title><g id="Capa_2" data-name="Capa 2"><g id="Capa_1-2" data-name="Capa 1"><path class="cls-1" d="M754,90.43c2.28-.05,3.19-1.65,4.42-2.65,38.62-31.14,91.35-29.21,127.75,4.57,23.71,22,36.53,49.79,42.1,81,7,38.95,5.33,77.66-7.66,115.33-9.38,27.22-24.74,50.52-50.54,64.65-35.26,19.32-70.53,19.5-104.72-3.44l-4.56-3.06c-1.5,1.81-.82,3.71-.82,5.42-.12,27.66-.23,55.32-.17,83,0,3.53-.69,5.12-4.59,5.91q-37.15,7.5-74.17,15.69c-4,.88-4.31-.35-4.3-3.72q.13-60.74.06-121.48,0-127.23-.11-254.45c0-4.94,1-6.53,6.26-6.45,20.66.33,41.33.22,62,.06,3.64,0,5.39.84,5.9,4.74C751.52,80.52,752.93,85.46,754,90.43Zm5.73,126.47H760c0,19,.08,38-.08,57a9.23,9.23,0,0,0,3.4,7.8c13.42,11.44,29,14.71,45.8,11,15-3.3,24.59-13.91,30.63-27.27,14.58-32.24,14.89-65,0-97.09-14.67-31.58-49.94-39-75.82-16.88a10.56,10.56,0,0,0-4.22,8.94C759.87,179.23,759.75,198.07,759.75,216.9Z"/><path class="cls-1" d="M1111.45,246.89c-25.33,0-50.66.08-76-.08-4.07,0-5,.9-4.31,5.08,4.49,28.08,23,41.73,49.47,44.57a169.74,169.74,0,0,0,90.93-15.2c4-1.87,4.55-.87,4.51,3.06q-.22,28.49,0,57c0,3.36-1.18,5.07-4.07,6.52a176,176,0,0,1-64.49,18c-21.85,1.92-43.59,1.8-65-3.92-43.55-11.66-72.55-39.2-86-82-14.84-47.35-13.74-94.68,6.32-140.5,14.4-32.88,37.93-57.21,73-67.92,57.89-17.68,117.44,3,143.6,68.15,8.14,20.27,12,41.43,13.43,63.18.89,13.19-.34,26.3-.09,39.44.07,3.93-1.35,4.64-4.92,4.62C1162.45,246.82,1137,246.89,1111.45,246.89Zm-39.14-61c12.82,0,25.63-.1,38.44.06,3.28,0,4.3-1,4.18-4.27a62.25,62.25,0,0,0-6.18-26c-9.13-18.29-28.13-26.81-47.18-21-23.88,7.29-31.39,29.79-31.86,48.55-.09,3.35,2.33,2.6,4.16,2.6C1046.69,185.91,1059.5,185.89,1072.31,185.89Z"/><path class="cls-1" d="M3.68,269.66a252.68,252.68,0,0,0,38.65,16.75c19.09,6.22,38.45,10.69,58.76,9.34a47.71,47.71,0,0,0,11.25-2.08c6.83-2.16,11.8-6.25,13.2-13.56,1.45-7.54-1.07-13.77-7-18.61-9-7.32-19.75-10.9-30.34-14.86-16-6-32.3-11.45-47.29-19.94C19.85,214.79,4.69,198.22,1.12,173.54c-5.64-39,9.67-78.36,52.83-96.89,23.32-10,47.81-12.09,72.9-10.47a229.31,229.31,0,0,1,61.88,12.55c4.12,1.45,5.91,3.31,5.84,8.13-.33,23.65-.15,47.3-.15,71-2.27.69-3.66-.83-5.22-1.57-25.47-12.12-52.18-18.78-80.49-18.57a42.87,42.87,0,0,0-12.28,1.94c-6.07,1.87-10.59,5.29-12.1,12s.77,11.76,5.6,16c6.91,6.12,15.46,9,23.91,12.08,16.41,5.93,33.2,10.91,48.82,18.9,22,11.23,39,27,44.92,51.85,10.85,45.52-7.64,91.44-61.19,109.08-21.78,7.17-44.17,8.94-67,7.29A241,241,0,0,1,8.18,350.48c-3.48-1.37-4.63-3.14-4.6-6.92C3.78,319.25,3.68,294.93,3.68,269.66Z"/><path class="cls-1" d="M226.93,154.27c0-43.49.09-87-.12-130.49,0-5.36,1.1-7.57,6.9-8.69C257.06,10.61,280.28,5.47,303.49.3c3.82-.85,4.44,0,4.41,3.59-.18,20.67,0,41.33-.34,62-.08,4.81,1.5,5.69,5.87,5.63,17.5-.23,35,0,52.5-.17,3.62,0,4.86.76,4.82,4.64q-.3,30.51,0,61c.05,4.16-1.4,4.9-5.12,4.86-17.83-.17-35.67,0-53.5-.15-3.42,0-4.56.83-4.55,4.42.14,38.66,0,77.33.17,116,.11,20.68,12.15,32.27,32.88,32.59a74.81,74.81,0,0,0,26-4.24c3.64-1.28,4.11-.18,4.09,3.12-.1,19.67-.14,39.33,0,59,0,3.29-1.3,4.73-4.05,5.87a116.69,116.69,0,0,1-31.41,7.66c-17.65,2-35.29,2.67-52.33-3.56-32-11.71-50.32-34.68-55.39-68.33a106.46,106.46,0,0,1-.85-16v-124Z"/><path class="cls-1" d="M473.61,95.4c4.24-6,7.64-11.11,12.46-15.07,16.09-13.19,34.27-14.85,53.7-9.92,1.81.46,3,1.16,2.94,3.3,0,24.46,0,48.91,0,73.73-14-3.8-27.44-3.86-40.73,1a54.36,54.36,0,0,0-11.06,5.71c-7.63,5-11.6,11-11.5,21.24.6,60.15.25,120.31.39,180.46,0,4.45-1,5.86-5.66,5.81-24.16-.25-48.33-.21-72.49,0-4,0-5-1.07-5-5q.16-140.24,0-280.45c0-3.6.75-4.87,4.63-4.83q31.5.28,63,0c3.48,0,4.6,1.34,5.17,4.34C470.65,81.86,472,88,473.61,95.4Z"/><path class="cls-1" d="M645.94,216.94c0,46.31-.07,92.63.11,138.94,0,4.62-1.27,5.78-5.81,5.74-24.15-.23-48.31-.18-72.46,0-3.79,0-5.09-.79-5.08-4.89q.18-140.19,0-280.37c0-4,1.09-5,5-5,24.32.18,48.65.23,73,0,4.68,0,5.35,1.58,5.34,5.7Q645.83,147,645.94,216.94Z"/></g></g></svg>