<svg xmlns="http://www.w3.org/2000/svg" viewBox="0 0 166.45 130"><defs><style>.cls-1{fill:none;stroke:#fff;stroke-linecap:round;stroke-linejoin:round;stroke-width:2px;}</style></defs><title>tecnologiablanco</title><g id="Capa_2" data-name="Capa 2"><g id="Capa_1-2" data-name="Capa 1"><line class="cls-1" x1="22.64" y1="1" x2="22.64" y2="28.5"/><line class="cls-1" x1="1" y1="12.84" x2="45.5" y2="12.84"/><polygon class="cls-1" points="14.18 29.56 32.16 29.56 32.16 51.78 23.7 58.12 14.18 51.78 14.18 29.56"/><path class="cls-1" d="M23.7,58.12c-1.06,20.1,13.75,16.93,28.56,16.93"/><line class="cls-1" x1="144.46" y1="1" x2="144.46" y2="28.5"/><line class="cls-1" x1="165.45" y1="12.84" x2="122.29" y2="12.84"/><polygon class="cls-1" points="152.67 29.56 135.23 29.56 135.23 51.78 143.44 58.12 152.67 51.78 152.67 29.56"/><path class="cls-1" d="M143.43,58.12c1,20.1-13.33,16.93-27.7,16.93"/><polygon class="cls-1" points="52.26 58.12 52.26 90.92 114.67 90.92 114.67 58.12 100.92 49.66 64.95 49.66 52.26 58.12"/><line class="cls-1" x1="69.19" y1="72.93" x2="96.69" y2="72.93"/><polyline class="cls-1" points="63.9 90.92 63.9 105.73 72.36 116.31 94.58 116.31 103.04 105.73 103.04 90.92"/><polyline class="cls-1" points="64.95 107.84 45.91 112.07 39.57 129"/><polyline class="cls-1" points="100.86 108.45 122.08 112.07 128.43 129"/></g></g></svg>