<svg xmlns="http://www.w3.org/2000/svg" viewBox="0 0 80.66 80.64"><defs><style>.cls-1{fill:#fff;}</style></defs><title>telefono_1</title><g id="Capa_2" data-name="Capa 2"><g id="Layer_1" data-name="Layer 1"><path class="cls-1" d="M64.82,80.64A34.64,34.64,0,0,1,53,78.11c-9.77-3.68-20.39-11-29.93-20.49S6.21,37.45,2.52,27.68C-.83,18.8-.83,11.51,2.49,8.17c.49-.48,1-1,1.48-1.53C7,3.44,10.54-.19,15,0c3.15.12,6.2,2.08,9.32,6,9.21,11.46,5.06,15.53.26,20.27l-.87.85c-.78.79-2.26,4.43,11.57,18.25a75.54,75.54,0,0,0,11.44,9.82c1.93,1.26,5.39,3.16,6.81,1.73l.86-.86c4.73-4.79,8.82-8.94,20.27.28,3.89,3.11,5.83,6.16,6,9.31.19,4.56-3.45,8-6.66,11.06-.51.5-1,1-1.51,1.46-1.66,1.67-4.31,2.5-7.65,2.5ZM14.7,2.71c-3.24,0-6.17,3.07-8.75,5.8-.53.54-1,1.09-1.54,1.58-2.48,2.47-2.22,9,.65,16.63,3.55,9.43,10.61,19.72,19.88,29S44.49,72,53.9,75.58c7.63,2.88,14.16,3.13,16.65.64.49-.49,1-1,1.57-1.51,2.79-2.65,5.94-5.66,5.81-9-.09-2.29-1.76-4.76-5-7.31-9.55-7.67-12.21-5-16.64-.48l-.87.87c-2.11,2.12-5.54,1.66-10.21-1.37A80.18,80.18,0,0,1,33.38,47.25C21.91,35.78,18.22,28.76,21.83,25.16l.86-.85c4.5-4.44,7.2-7.1-.46-16.65-2.57-3.19-5-4.86-7.32-4.95Z"/><path class="cls-1" d="M65.3,33.32a1.54,1.54,0,0,1-.52-.09A1.36,1.36,0,0,1,64,31.46,11.4,11.4,0,0,0,48.77,16.79a1.36,1.36,0,0,1-1.12-2.48A14.12,14.12,0,0,1,66.54,32.48a1.35,1.35,0,0,1-1.24.84Z"/><path class="cls-1" d="M77.4,38.23a1.39,1.39,0,0,1-.52-.09,1.35,1.35,0,0,1-.74-1.76A24.47,24.47,0,0,0,43.39,4.88a1.38,1.38,0,0,1-1.8-.69,1.35,1.35,0,0,1,.67-1.78,27.19,27.19,0,0,1,36.4,35,1.37,1.37,0,0,1-1.26.83Z"/></g></g></svg>