<svg xmlns="http://www.w3.org/2000/svg" viewBox="0 0 32.97 32.96"><defs><style>.cls-1{fill:#e66416;}</style></defs><title>telefono</title><g id="Capa_2" data-name="Capa 2"><g id="Layer_1" data-name="Layer 1"><path class="cls-1" d="M26.49,33a14.33,14.33,0,0,1-4.85-1A36.61,36.61,0,0,1,9.41,23.55,36.39,36.39,0,0,1,1,11.31C-.34,7.69-.34,4.7,1,3.34l.6-.62C2.87,1.41,4.31-.08,6.14,0,7.43.05,8.67.85,10,2.44c3.76,4.68,2.07,6.35.1,8.29l-.35.34c-.32.32-.92,1.81,4.73,7.46a31,31,0,0,0,4.67,4c.79.51,2.21,1.29,2.79.7l.35-.35c1.93-2,3.6-3.65,8.29.12,1.58,1.27,2.38,2.51,2.43,3.8.08,1.86-1.41,3.28-2.72,4.52l-.62.6a4.32,4.32,0,0,1-3.13,1ZM6,1.11c-1.33,0-2.52,1.25-3.58,2.37-.22.22-.42.44-.63.64-1,1-.91,3.69.27,6.8a35.14,35.14,0,0,0,8.12,11.85A35.2,35.2,0,0,0,22,30.89c3.12,1.18,5.79,1.28,6.81.26l.64-.61c1.14-1.09,2.43-2.32,2.37-3.67,0-.94-.72-1.95-2-3-3.9-3.14-5-2-6.8-.2l-.36.36c-.86.87-2.26.68-4.17-.56a33.34,33.34,0,0,1-4.86-4.17c-4.69-4.68-6.19-7.55-4.72-9l.35-.34c1.84-1.82,3-2.9-.19-6.81-1.05-1.3-2-2-3-2Z"/><path class="cls-1" d="M26.69,13.62a.52.52,0,0,1-.21,0,.56.56,0,0,1-.31-.72,4.66,4.66,0,0,0-6.24-6,.56.56,0,0,1-.73-.27.56.56,0,0,1,.28-.74,5.77,5.77,0,0,1,7.72,7.43.55.55,0,0,1-.51.34Z"/><path class="cls-1" d="M31.64,15.63a.52.52,0,0,1-.21,0,.55.55,0,0,1-.31-.72A10,10,0,0,0,17.73,2a.56.56,0,0,1-.46-1A11.12,11.12,0,0,1,32.15,15.29a.56.56,0,0,1-.51.34Z"/></g></g></svg>