<svg xmlns="http://www.w3.org/2000/svg" viewBox="0 0 78.12 78.1"><defs><style>.cls-1{fill:#e46416;}</style></defs><title>telefono_2</title><g id="Capa_2" data-name="Capa 2"><g id="Layer_1" data-name="Layer 1"><path class="cls-1" d="M62.78,78.1a33.56,33.56,0,0,1-11.5-2.45c-9.46-3.56-19.75-10.62-29-19.84S6,36.27,2.44,26.8c-3.25-8.59-3.25-15.66,0-18.89.48-.46.95-1,1.44-1.48C6.8,3.33,10.21-.19,14.55,0c3.05.11,6,2,9,5.77,8.91,11.1,4.9,15,.24,19.64l-.83.82c-.76.76-2.2,4.28,11.2,17.68a73.24,73.24,0,0,0,11.08,9.5c1.87,1.22,5.22,3.07,6.59,1.68l.84-.83c4.57-4.65,8.54-8.66,19.63.27,3.76,3,5.65,6,5.78,9,.18,4.41-3.35,7.76-6.46,10.71-.49.49-1,.94-1.46,1.41C68.58,77.29,66,78.1,62.78,78.1ZM14.24,2.62c-3.14,0-6,3-8.48,5.62-.51.53-1,1-1.49,1.53-2.4,2.4-2.15,8.74.63,16.11C8.34,35,15.17,45,24.15,54S43.09,69.76,52.21,73.2c7.39,2.79,13.71,3,16.12.62.48-.48,1-1,1.52-1.47,2.7-2.56,5.75-5.47,5.63-8.69-.09-2.22-1.71-4.61-4.8-7.08-9.25-7.43-11.83-4.8-16.11-.46l-.85.84c-2,2.06-5.36,1.61-9.89-1.33a77.23,77.23,0,0,1-11.5-9.86C21.22,34.66,17.65,27.85,21.14,24.37l.83-.82c4.37-4.3,7-6.88-.44-16.13C19,4.33,16.65,2.71,14.44,2.62Z"/><path class="cls-1" d="M63.24,32.27a1.47,1.47,0,0,1-.5-.09A1.31,1.31,0,0,1,62,30.47,11,11,0,0,0,47.23,16.26a1.31,1.31,0,0,1-1.73-.65,1.33,1.33,0,0,1,.65-1.75,13.68,13.68,0,0,1,18.3,17.6,1.32,1.32,0,0,1-1.21.81Z"/><path class="cls-1" d="M75,37a1.41,1.41,0,0,1-.49-.09,1.3,1.3,0,0,1-.72-1.71A23.7,23.7,0,0,0,42,4.73a1.33,1.33,0,0,1-1.74-.67,1.31,1.31,0,0,1,.65-1.73A26.33,26.33,0,0,1,76.18,36.22,1.32,1.32,0,0,1,75,37Z"/></g></g></svg>