<svg xmlns="http://www.w3.org/2000/svg" viewBox="0 0 113.5 128.14"><defs><style>.cls-1{fill:none;stroke:#424242;stroke-linecap:round;stroke-linejoin:round;stroke-width:2px;}</style></defs><title>textiles_1</title><g id="Capa_2" data-name="Capa 2"><g id="Capa_1-2" data-name="Capa 1"><path class="cls-1" d="M23.2,97.87v24.22s-1,5,4,5H84.75s4.54.51,4.54-5.55V59"/><path class="cls-1" d="M89.29,78.19l20.18-6s3-1,3-6.06l-4-21.19s0-4-5-6l-7.06-3"/><line class="cls-1" x1="89.29" y1="70.49" x2="112.02" y2="63.56"/><line class="cls-1" x1="89.29" y1="115.53" x2="23.12" y2="115.53"/><line class="cls-1" x1="23.2" y1="91.81" x2="23.2" y2="60.53"/><path class="cls-1" d="M34.3,28.24,11.09,38.33C5,40.35,4,47.42,4,47.42L1,66.59c0,5,4,6,4,6l18.16,5"/><line class="cls-1" x1="2.01" y1="64.57" x2="23.12" y2="70.49"/><polygon class="cls-1" points="40.35 22.19 34.3 28.24 48.42 45.4 56.5 40.35 63.56 45.4 78.7 28.24 73.65 22.19 40.35 22.19"/><polyline class="cls-1" points="39.34 23.2 56.5 40.35 74.18 22.82"/><polyline class="cls-1" points="46.28 30.14 56.5 22.19 66.6 30.34"/><line class="cls-1" x1="56.5" y1="40.35" x2="56.5" y2="67.6"/><line class="cls-1" x1="78.7" y1="28.24" x2="89.8" y2="33.29"/><path class="cls-1" d="M48.93,8.57a7.57,7.57,0,1,1,7.57,7.57v5"/></g></g></svg>