<svg xmlns="http://www.w3.org/2000/svg" viewBox="0 0 113.5 127.13"><defs><style>.cls-1{fill:none;stroke:#fff;stroke-linecap:round;stroke-linejoin:round;stroke-width:2px;}</style></defs><title>textilesblanco</title><g id="Capa_2" data-name="Capa 2"><g id="Capa_1-2" data-name="Capa 1"><path class="cls-1" d="M23.2,97.09v24s-1,5,4,5H84.75s4.54.5,4.54-5.5V58.56"/><path class="cls-1" d="M89.29,77.57l20.18-6s3-1,3-6l-4-21s0-4-5-6l-7.06-3"/><line class="cls-1" x1="89.29" y1="69.93" x2="112.02" y2="63.06"/><line class="cls-1" x1="89.29" y1="114.61" x2="23.12" y2="114.61"/><line class="cls-1" x1="23.2" y1="91.09" x2="23.2" y2="60.06"/><path class="cls-1" d="M34.3,28,11.09,38C5,40,4,47,4,47l-3,19c0,5,4,6,4,6l18.16,5"/><line class="cls-1" x1="2.01" y1="64.06" x2="23.12" y2="69.93"/><polygon class="cls-1" points="40.35 22.02 34.3 28.03 48.42 45.04 56.5 40.04 63.56 45.04 78.7 28.03 73.65 22.02 40.35 22.02"/><polyline class="cls-1" points="39.34 23.02 56.5 40.04 74.18 22.65"/><polyline class="cls-1" points="46.28 29.9 56.5 22.02 66.6 30.1"/><line class="cls-1" x1="56.5" y1="40.04" x2="56.5" y2="67.06"/><line class="cls-1" x1="78.7" y1="28.03" x2="89.8" y2="33.03"/><path class="cls-1" d="M48.93,8.51A7.57,7.57,0,1,1,56.5,16v5"/></g></g></svg>