<svg xmlns="http://www.w3.org/2000/svg" viewBox="0 0 69.53 61"><defs><style>.cls-1{fill:#ea6416;}</style></defs><title>tiendanaranja</title><g id="Capa_2" data-name="Capa 2"><g id="Layer_1" data-name="Layer 1"><path class="cls-1" d="M13.89,40.73H8.39a1,1,0,0,0-1,1v7.94a1,1,0,0,0,1,1h5.5a1,1,0,0,0,1-1V41.75a1,1,0,0,0-1-1Zm-1,8H9.4V42.77h3.47Z"/><path class="cls-1" d="M55.65,40.73a1,1,0,0,0-1,1v7.94a1,1,0,0,0,1,1h5.5a1,1,0,0,0,1-1V41.75a1,1,0,0,0-1-1Zm4.48,8H56.67V42.77h3.46Z"/><path class="cls-1" d="M24.45,6.18a1,1,0,0,0,1,1H44.07a1,1,0,1,0,0-2H25.46a1,1,0,0,0-1,1Z"/><path class="cls-1" d="M65.6,42.46a1,1,0,0,0,1-1V36.62h1.91a1,1,0,0,0,1-1V31.08a1,1,0,0,0-1-1H52.22v-1a3.37,3.37,0,0,0,2.4-3.22V22.5h1.67a1,1,0,0,0,1-1V17a1,1,0,0,0-1-1H47.42V13.26h3.8a1,1,0,0,0,1-1V1a1,1,0,0,0-1-1H29.54a1,1,0,1,0,0,2H50.2v9.19H19.33V2h6.41a1,1,0,0,0,0-2H18.31a1,1,0,0,0-1,1V12.25a1,1,0,0,0,1,1h3.8v2.68H13.24a1,1,0,0,0-1,1v4.53a1,1,0,0,0,1,1h1.68v3.33a3.36,3.36,0,0,0,2.4,3.22v1H10a1,1,0,0,0,0,2h7.36v2.49H2V32.1H6.16a1,1,0,0,0,0-2H1a1,1,0,0,0-1,1V35.6a1,1,0,0,0,1,1h1.9v18.2H1a1,1,0,0,0-1,1V60a1,1,0,0,0,1,1h67.5a1,1,0,0,0,1-1V55.84a1,1,0,0,0-1-1H66.61V45.25a1,1,0,1,0-2,0v9.57H52.22V36.62H64.58v4.82a1,1,0,0,0,1,1ZM67.5,32.1v2.49H52.22V32.1ZM46.6,54.82V40a1,1,0,0,0-1-1H24a1,1,0,0,0-1,1V54.82H19.35V34.36H50.18V54.82ZM25,54.82V41h8.78V54.82ZM35.79,41h8.78V54.82H35.79ZM24.33,22.5v3.33a1.34,1.34,0,0,1-2.67,0V22.5Zm4.71,0v3.33a1.34,1.34,0,0,1-2.67,0V22.5Zm4.71,0v3.33a1.34,1.34,0,0,1-2.67,0V22.5Zm4.71,0v3.33a1.34,1.34,0,0,1-2.67,0V22.5Zm4.7,0v3.33a1.34,1.34,0,0,1-2.67,0V22.5Zm4.71,0v3.33a1.34,1.34,0,0,1-2.67,0V22.5ZM19.35,29a3.49,3.49,0,0,0,1.29-.79,3.38,3.38,0,0,0,4.71,0,3.38,3.38,0,0,0,4.71,0,3.38,3.38,0,0,0,4.71,0,3.36,3.36,0,0,0,4.7,0,3.37,3.37,0,0,0,4.71,0,3.37,3.37,0,0,0,4.71,0,3.49,3.49,0,0,0,1.29.79v3.29H19.35V29Zm33.23-3.2a1.34,1.34,0,0,1-2.67,0V22.5h2.67Zm-7.2-9.9H44V13.26h1.36ZM42,13.26v2.67H27.55V13.26Zm-17.84,0h1.36v2.67H24.15ZM14.26,18h41v2.49h-41ZM17,22.5h2.67v3.33a1.34,1.34,0,0,1-2.67,0V22.5ZM5,36.62H17.32v18.2H5ZM67.5,59H2v-2.1H67.5Z"/></g></g></svg>