<svg xmlns="http://www.w3.org/2000/svg" viewBox="0 0 51.74 51.74"><defs><style>.cls-1{fill:#424242;}</style></defs><title>transfer_1</title><g id="Capa_2" data-name="Capa 2"><g id="Layer_1" data-name="Layer 1"><path class="cls-1" d="M10.35,50V48.29H50V50Zm0-8.63H50v1.73H10.35V41.39Zm0,3.45H50v1.73H10.35V44.84ZM50.88,17.25H9.49a.86.86,0,0,0-.87.86v8.62h1.73V19H50v20.7H10.35V31.91H8.62v19a.87.87,0,0,0,.87.86H50.88a.87.87,0,0,0,.86-.86V18.11a.86.86,0,0,0-.86-.86Z"/><path class="cls-1" d="M9.49,30.18H20.34l-2,2,1.22,1.22L23,29.93a.86.86,0,0,0,0-1.22l-3.45-3.45-1.22,1.22,2,2H9.49a7.76,7.76,0,1,1,0-15.52H29.75a3.89,3.89,0,0,0,0-7.77H17.25a1.73,1.73,0,1,1,0-3.45H41.39V0H17.25a3.45,3.45,0,1,0,0,6.9h12.5a2.16,2.16,0,1,1,0,4.31H9.49a9.49,9.49,0,1,0,0,19Z"/><polygon class="cls-1" points="43.12 0 44.84 0 44.84 1.73 43.12 1.73 43.12 0 43.12 0"/><polygon class="cls-1" points="46.57 0 48.29 0 48.29 1.73 46.57 1.73 46.57 0 46.57 0"/><polygon class="cls-1" points="50.02 0 51.74 0 51.74 1.73 50.02 1.73 50.02 0 50.02 0"/><path class="cls-1" d="M12.07,31.91v1.72a.86.86,0,0,0,.87.86,2.59,2.59,0,0,1,2.58,2.59.86.86,0,0,0,.86.86H44a.85.85,0,0,0,.86-.86,2.59,2.59,0,0,1,2.59-2.59.85.85,0,0,0,.86-.86V25a.86.86,0,0,0-.86-.86,2.6,2.6,0,0,1-2.59-2.59A.86.86,0,0,0,44,20.7H16.38a.86.86,0,0,0-.86.86,2.59,2.59,0,0,1-2.58,2.59.86.86,0,0,0-.87.86v1.72H13.8v-.95a4.31,4.31,0,0,0,3.36-3.36h26a4.33,4.33,0,0,0,3.37,3.36v7.07a4.35,4.35,0,0,0-3.37,3.37h-26a4.34,4.34,0,0,0-3.36-3.37v-.94Z"/><path class="cls-1" d="M26.73,29.32a3.45,3.45,0,1,1,3.45,3.45,3.46,3.46,0,0,1-3.45-3.45Zm8.63,0a5.18,5.18,0,1,0-5.18,5.17,5.18,5.18,0,0,0,5.18-5.17Z"/><polygon class="cls-1" points="40.53 28.46 42.25 28.46 42.25 30.18 40.53 30.18 40.53 28.46 40.53 28.46"/></g></g></svg>