<svg xmlns="http://www.w3.org/2000/svg" viewBox="0 0 37.95 27.6"><defs><style>.cls-1{fill:none;stroke:#e66416;stroke-miterlimit:10;stroke-width:2px;fill-rule:evenodd;}</style></defs><title>twitter_1</title><g id="Capa_2" data-name="Capa 2"><g id="Layer_1" data-name="Layer 1"><path class="cls-1" d="M35.21,4.68a13.64,13.64,0,0,1-3.66,1,6.33,6.33,0,0,0,2.82-3.49A13,13,0,0,1,30.3,3.72,6.4,6.4,0,0,0,19.26,8a6.67,6.67,0,0,0,.19,1.44A18.1,18.1,0,0,1,6.3,2.88,6.32,6.32,0,0,0,5.42,6a6.29,6.29,0,0,0,2.83,5.23,6.25,6.25,0,0,1-2.88-.78v.09a6.07,6.07,0,0,0,.44,2.26A6.37,6.37,0,0,0,10.5,16.7a6.39,6.39,0,0,1-1.69.24,5.39,5.39,0,0,1-1.2-.14,6.44,6.44,0,0,0,6,4.39,13,13,0,0,1-7.91,2.68c-.52,0-1,0-1.53-.09A18.39,18.39,0,0,0,13.9,26.6,17.75,17.75,0,0,0,31.62,12.54,17.74,17.74,0,0,0,32,8.75V7.94a13.26,13.26,0,0,0,3.17-3.26Z"/></g></g></svg>