<svg xmlns="http://www.w3.org/2000/svg" viewBox="0 0 110.15 83.19"><defs><style>.cls-1{fill:none;stroke:#fff;stroke-miterlimit:10;stroke-width:3px;fill-rule:evenodd;}</style></defs><title>twitter_2</title><g id="Capa_2" data-name="Capa 2"><g id="Layer_1" data-name="Layer 1"><path class="cls-1" d="M106,11.3a43.72,43.72,0,0,1-11.75,3.19,20.15,20.15,0,0,0,9-11.21,41.65,41.65,0,0,1-13,4.93A20.57,20.57,0,0,0,54.81,22a20.77,20.77,0,0,0,.6,4.61A58.16,58.16,0,0,1,13.17,5.5a20.38,20.38,0,0,0-2.81,10.13,20.14,20.14,0,0,0,9.09,16.78,19.78,19.78,0,0,1-9.26-2.49v.27a19,19,0,0,0,1.41,7.26A20.4,20.4,0,0,0,26.66,49.9a20.1,20.1,0,0,1-5.42.76,18.32,18.32,0,0,1-3.85-.43A20.67,20.67,0,0,0,36.51,64.31a41.44,41.44,0,0,1-25.4,8.6c-1.68,0-3.24-.11-4.92-.27a59.08,59.08,0,0,0,31.4,9c32,0,51.76-22.15,56.9-45.16a55.12,55.12,0,0,0,1.36-12.18v-2.6A42.63,42.63,0,0,0,106,11.3Z"/></g></g></svg>