<svg xmlns="http://www.w3.org/2000/svg" viewBox="0 0 66.8 95"><defs><style>.cls-1{fill:#e46416;}</style></defs><title>ubicacion</title><g id="Capa_2" data-name="Capa 2"><g id="Layer_1" data-name="Layer 1"><path class="cls-1" d="M57.31,47.65,33.82,86.87,9.72,48a27.85,27.85,0,1,1,47.59-.38ZM33.4,0A33.4,33.4,0,0,0,5,51L31.5,93.68A2.78,2.78,0,0,0,33.86,95h0a2.8,2.8,0,0,0,2.37-1.35L62.09,50.51A33.41,33.41,0,0,0,33.4,0Z"/><path class="cls-1" d="M33.4,44.57A11.17,11.17,0,1,1,44.55,33.4,11.18,11.18,0,0,1,33.4,44.57Zm0-27.87A16.7,16.7,0,1,0,50.1,33.4,16.72,16.72,0,0,0,33.4,16.7Z"/></g></g></svg>