<svg xmlns="http://www.w3.org/2000/svg" viewBox="0 0 1417.64 754.29"><defs><style>.cls-1{fill:#3e424b;}.cls-2{fill:#e36416;}.cls-3{fill:#fff;}.cls-4{fill:#424242;}</style></defs><title>ubiimarket_1</title><g id="Capa_2" data-name="Capa 2"><g id="Capa_1-2" data-name="Capa 1"><path class="cls-1" d="M313,545.77A104.26,104.26,0,1,0,417.23,650,104.26,104.26,0,0,0,313,545.77Zm0,156.39A52.13,52.13,0,1,1,365.1,650,52.13,52.13,0,0,1,313,702.16Z"/><path class="cls-1" d="M1139.55,545.37a104.27,104.27,0,1,0,104.26,104.28A104.27,104.27,0,0,0,1139.55,545.37Zm0,156.39a52.13,52.13,0,1,1,52.13-52.12A52.12,52.12,0,0,1,1139.55,701.76Z"/><path class="cls-2" d="M236.47,545.37s-25.4,8.91-47.41,53.1H23.86l-.28-53.1Z"/><path class="cls-2" d="M392.81,545.37s28.92,10.47,47.28,53.1l569.07,0s39.43-87.54,129.57-87.54c0,0,87.32-7.82,126.64,87.57l137.38-.06s13,0,14.86-26.33c0,0,1.78-26.73-20.88-26.73h-23.85V510.86h21.85l-.58-96.54h-19.39l2.41-59.24s6.22-33.25-21.48-71.37-162.13-232.8-162.13-232.8S1161.34,0,1068.84,0s-97.2,0-97.2,0-52.89,6.43-51.85,66.71l3.34,478.53Z"/><path class="cls-3" d="M1066.76,326a11.92,11.92,0,0,1-11.93,11.93h-38.3A11.93,11.93,0,0,1,1004.6,326h0a11.93,11.93,0,0,1,11.93-11.93h38.3A11.92,11.92,0,0,1,1066.76,326Z"/><path class="cls-3" d="M1143.27,66.36l35.33,212H974.9s-15.06.53-14.54-24.42l0-163.17s-4.15-24.42,18.73-24.42Z"/><path class="cls-3" d="M1166.71,74.54,1200.45,276H1249s43-9,11.79-49.19Z"/><path class="cls-4" d="M785.39,77.56h36.05V111.1H785.39Zm.93,76.37h36.06V338.07H786.32Z"/><path class="cls-4" d="M845.71,77.56h36.07V111.1H845.71Zm.94,76.37H882.7V338.07H846.65Z"/><path class="cls-4" d="M685.48,167.81A85.08,85.08,0,0,0,639,181.63V78.73H599.86V253.45a85.62,85.62,0,1,0,85.62-85.64m0,132.67a47,47,0,1,1,47-47,47,47,0,0,1-47,47"/><path class="cls-4" d="M542.15,78.72V241.77A62.08,62.08,0,0,1,494.93,302a93.53,93.53,0,0,1-14.86,1.16,96.45,96.45,0,0,1-14.53-1.08A62.06,62.06,0,0,1,418,241.77v-163H381.92V251.18h.46a98.13,98.13,0,0,0,195.36,0h.48V78.72Z"/><path class="cls-4" d="M118.82,488.81V399L81.64,488.81H72.57L35.57,399v89.77H14.35v-121H44.28l32.83,79.62,33-79.62H140v121Z"/><path class="cls-4" d="M286.76,488.81l-8.89-23.21h-55.5l-8.89,23.21H189.36l47.52-121h26.48l47.52,121Zm-36.64-99.57-21.76,57.68h43.53Z"/><path class="cls-4" d="M429.48,488.81l-26.84-45.16h-21v45.16H360.38v-121h53.14c23.94,0,39.54,15.6,39.54,37.91,0,21.58-14.15,33.19-28.65,35.54L454,488.81Zm1.82-83.06c0-11.61-8.71-19.23-20.68-19.23h-29V425h29C422.59,425,431.3,417.35,431.3,405.75Z"/><path class="cls-4" d="M582.91,488.81l-40.62-51-10.52,12.33v38.63H510.55v-121h21.22v57.68l47.33-57.68h26.3L556.25,425,609,488.81Z"/><path class="cls-4" d="M659.44,488.81v-121h82.88v18.68H680.66V417.9h60.39v18.68H680.66v33.55h61.66v18.68Z"/><path class="cls-4" d="M829.19,488.81V386.52H792.56V367.84h94.49v18.68H850.41V488.81Z"/><path class="cls-4" d="M354.48,78.41H322.22V268.5c0,24-20.15,43.54-45,43.54H78.53c-24.87,0-45-19.5-45-43.54V78.41H.45A45.62,45.62,0,0,0,0,84.51V283.32c0,30.78,31,55.73,69.18,55.73H285.75c38.21,0,69.18-24.95,69.18-55.73V84.51A45.62,45.62,0,0,0,354.48,78.41Z"/><rect class="cls-4" x="88.83" y="44.72" width="65.18" height="59.01"/><rect class="cls-4" x="202.92" y="44.72" width="65.18" height="59.01"/></g></g></svg>