<svg xmlns="http://www.w3.org/2000/svg" viewBox="0 0 58.45 55.66"><defs><style>.cls-1{fill:#424242;}</style></defs><title>user</title><g id="Capa_2" data-name="Capa 2"><g id="Layer_1" data-name="Layer 1"><path class="cls-1" d="M2.06,55.66H56.38a2,2,0,0,0,2.07-2.06A19.65,19.65,0,0,0,38.82,34H19.63A19.66,19.66,0,0,0,0,53.6a2,2,0,0,0,2.06,2.06ZM19.63,38.1H38.82A15.5,15.5,0,0,1,54.18,51.54H4.27A15.53,15.53,0,0,1,19.63,38.1Z"/><path class="cls-1" d="M29.13,0a15.61,15.61,0,0,0-3.94,30.73V26.4a11.5,11.5,0,1,1,8.4-.19v4.38A15.62,15.62,0,0,0,29.13,0Z"/></g></g></svg>