<svg id="Layer_1" data-name="Layer 1" xmlns="http://www.w3.org/2000/svg" viewBox="0 0 65.5 67.5"><defs><style>.cls-1{fill:#e46416;}</style></defs><title>iconos</title><path class="cls-1" d="M40.67,8.66c.18,1.8.36,3.49.52,5.18A1.57,1.57,0,0,0,42,15.18a7.21,7.21,0,0,1,3.46,5.55c.22,1.63.17,3.29.27,4.94a2.62,2.62,0,0,0,.25.75A6.17,6.17,0,0,1,46.63,28a8,8,0,0,1-1.13,5.08,9.78,9.78,0,0,1-1.1,1.17,3,3,0,0,0-.6.78,17.91,17.91,0,0,1-2.92,4.91c-.08.1-.15.2-.25.34C46,42,50.28,45,53,50a16.29,16.29,0,0,1,2,8.84H12.79a14,14,0,0,1,.44-4.5c.41-1.44.95-2.84,1.45-4.31a6.78,6.78,0,0,1-4-8.12,6.77,6.77,0,0,1,13-.28l3.56-1.4c-.24-.3-.48-.59-.7-.89a21.79,21.79,0,0,1-2.63-4.64,1.43,1.43,0,0,0-.48-.57,4.21,4.21,0,0,1-1.55-1.8,8,8,0,0,1-.58-4.65,2.79,2.79,0,0,1,.49-1.21,2,2,0,0,0,.37-1.41c0-1.8-.07-3.6.08-5.39a5.71,5.71,0,0,1,3.37-4.79,18.72,18.72,0,0,1,5.67-1.47c1.61-.25,3.21-.58,4.79-1a3.88,3.88,0,0,0,1.49-.87c1-.82,1.84-1.71,2.76-2.58Zm-1.29,3.42c-.23.21-.37.32-.49.45a4.94,4.94,0,0,1-2.71,1.58c-1.48.33-3,.64-4.47.88a21,21,0,0,0-5,1.13,4.61,4.61,0,0,0-3,4.21c0,.62-.07,1.24-.06,1.86,0,1.39.07,2.78.08,4.17a.8.8,0,0,1-.25.57,1.77,1.77,0,0,0-.69,1.2,7,7,0,0,0,.3,3A2.56,2.56,0,0,0,24.77,33c.15.05.27.26.35.42.45,1,.84,2,1.34,2.89a11.71,11.71,0,0,0,3.79,4.43,6.33,6.33,0,0,0,5.66.86,7.75,7.75,0,0,0,3.18-2.06,15.52,15.52,0,0,0,3.47-5.8,1.69,1.69,0,0,1,.47-.56A6.11,6.11,0,0,0,44.22,32,6.48,6.48,0,0,0,45,28a.91.91,0,0,0-.35-.66c-.55-.25-.52-.67-.51-1.14,0-.67,0-1.34,0-2a31.5,31.5,0,0,0-.32-3.65A5.37,5.37,0,0,0,41,16.45a2.09,2.09,0,0,1-1.25-1.69c-.06-.35-.12-.71-.17-1.06S39.44,12.7,39.37,12.08ZM24.67,57.21c.18,0,.3,0,.43,0H42.77c.38,0,.47-.13.46-.48,0-1.16,0-2.32,0-3.48,0-.61.31-1,.81-1s.79.36.8,1c0,1.13,0,2.26,0,3.39,0,.43.11.56.55.55,2.52,0,5,0,7.56,0l.47,0c-.08-5.48-4.06-11.22-9.64-13.9a2.16,2.16,0,0,1-.15.22l-6.12,7.16c-.95,1.11-1.89,2.22-2.84,3.31a.82.82,0,0,1-1.35,0c-.13-.13-.24-.27-.36-.4L24.4,43.94a1.63,1.63,0,0,1-.2-.44l-.2.17c0,.08,0,.16,0,.24a6.78,6.78,0,0,1-7.22,6.61.63.63,0,0,0-.48.28,13.87,13.87,0,0,0-1.54,4.12c-.16.75-.24,1.51-.37,2.3H23c0-.76,0-1.49,0-2.23s0-1.18,0-1.77a.8.8,0,0,1,.78-.88.81.81,0,0,1,.84.88c0,.21,0,.43,0,.64C24.67,55,24.67,56.08,24.67,57.21ZM17.11,38.6a5.16,5.16,0,0,0-5,5.34,5.11,5.11,0,0,0,5.19,5,5.06,5.06,0,0,0,5.09-5.25A5.13,5.13,0,0,0,17.11,38.6ZM36,49.89l6.29-7.35c-1.05-.33-2-.64-2.91-.91a.6.6,0,0,0-.4.1l-2.63,1.54a1.48,1.48,0,0,1-.24.39c-.37.35-.77.66-1.14,1-.1.09-.22.28-.19.39C35.19,46.64,35.6,48.21,36,49.89Zm-4.43-.21c.06-.08.1-.12.11-.16.38-1.47.77-2.94,1.13-4.41a.58.58,0,0,0-.18-.45c-.35-.34-.75-.63-1.1-1a1.94,1.94,0,0,1-.28-.51l-2.4-1.43c-.11-.06-.25-.16-.35-.14-1,.31-2,.64-3.15,1Z"/><path class="cls-1" d="M16.12,43.84l-2.35-2.27L15,40.48l2.19,2.23,2.29-2.4,1.15,1.22-2.32,2.21L20.7,45.9l-1.21,1.27-2.27-2.36-2.31,2.33L13.83,46Z"/></svg>