<svg id="Layer_1" data-name="Layer 1" xmlns="http://www.w3.org/2000/svg" viewBox="0 0 65.5 63.72"><defs><style>.cls-1{fill:#e46416;}.cls-2{fill:none;stroke:#e46416;stroke-linecap:round;stroke-linejoin:round;stroke-width:2px;}</style></defs><title>iconos</title><path class="cls-1" d="M40.25,6.76c.17,1.7.34,3.3.5,4.9a1.49,1.49,0,0,0,.8,1.27,6.83,6.83,0,0,1,3.27,5.25c.21,1.54.16,3.12.26,4.67a2.48,2.48,0,0,0,.24.71,5.85,5.85,0,0,1,.58,1.49,7.53,7.53,0,0,1-1.07,4.81,9.27,9.27,0,0,1-1,1.11,2.81,2.81,0,0,0-.57.74,17,17,0,0,1-2.77,4.65c-.08.09-.14.19-.24.32A19.58,19.58,0,0,1,52,45.92a15.43,15.43,0,0,1,1.92,8.37h-40A13.22,13.22,0,0,1,14.26,50c.39-1.36.9-2.69,1.37-4.08a6.42,6.42,0,0,1-3.78-7.69A6.41,6.41,0,0,1,24.12,38l3.37-1.33c-.23-.29-.45-.56-.66-.84a20.64,20.64,0,0,1-2.49-4.4,1.35,1.35,0,0,0-.46-.54,4,4,0,0,1-1.47-1.7,7.6,7.6,0,0,1-.55-4.4,2.64,2.64,0,0,1,.46-1.15,1.9,1.9,0,0,0,.35-1.33c0-1.7-.07-3.41.08-5.1a5.41,5.41,0,0,1,3.19-4.54,17.73,17.73,0,0,1,5.37-1.4c1.53-.24,3-.55,4.54-.92a3.68,3.68,0,0,0,1.41-.83c.9-.78,1.75-1.62,2.62-2.44ZM39,10c-.22.2-.35.3-.46.43A4.68,4.68,0,0,1,36,11.92c-1.4.31-2.81.61-4.23.84a19.94,19.94,0,0,0-4.7,1.07,4.37,4.37,0,0,0-2.86,4c0,.59-.06,1.18-.05,1.76,0,1.32.07,2.63.08,3.95a.75.75,0,0,1-.24.54,1.68,1.68,0,0,0-.65,1.14A6.64,6.64,0,0,0,23.62,28a2.42,2.42,0,0,0,1.57,1.76c.14,0,.26.24.33.4.43.91.8,1.85,1.27,2.74a11.1,11.1,0,0,0,3.59,4.2,6,6,0,0,0,5.36.81,7.34,7.34,0,0,0,3-2A14.7,14.7,0,0,0,42,30.5a1.6,1.6,0,0,1,.45-.53,5.79,5.79,0,0,0,1.13-1.06,6.14,6.14,0,0,0,.74-3.81.86.86,0,0,0-.33-.62c-.52-.23-.5-.63-.48-1.08,0-.63,0-1.27,0-1.91a29.84,29.84,0,0,0-.3-3.46,5.08,5.08,0,0,0-2.7-3.9,2,2,0,0,1-1.19-1.6c-.06-.34-.12-.67-.16-1S39.08,10.58,39,10ZM25.1,52.75c.17,0,.29,0,.41,0H42.24c.36,0,.44-.12.44-.46,0-1.1,0-2.2,0-3.3,0-.58.29-.91.76-.9s.75.34.75.92c0,1.07,0,2.14,0,3.21,0,.41.1.53.52.53,2.39,0,4.77,0,7.16,0l.45,0c-.07-5.19-3.85-10.63-9.13-13.17a2,2,0,0,1-.14.21l-5.8,6.78c-.9,1-1.79,2.1-2.69,3.14a.77.77,0,0,1-1.28,0c-.12-.12-.23-.25-.34-.38l-8.07-9.18a1.55,1.55,0,0,1-.19-.42l-.19.17c0,.07,0,.15,0,.22a6.42,6.42,0,0,1-6.84,6.26.59.59,0,0,0-.45.27,13.14,13.14,0,0,0-1.45,3.9c-.15.71-.23,1.43-.35,2.18h8.2c0-.72,0-1.42,0-2.11s0-1.12,0-1.67a.75.75,0,0,1,.74-.84.77.77,0,0,1,.8.83c0,.2,0,.4,0,.6C25.1,50.63,25.1,51.68,25.1,52.75ZM17.93,35.12a4.89,4.89,0,0,0-4.78,5.06,4.84,4.84,0,0,0,4.91,4.7,4.79,4.79,0,0,0,4.82-5A4.86,4.86,0,0,0,17.93,35.12ZM35.86,45.81l6-7c-1-.32-1.87-.6-2.76-.87a.56.56,0,0,0-.38.09l-2.49,1.46a1.4,1.4,0,0,1-.22.37c-.35.33-.73.62-1.08,1-.1.09-.21.26-.18.37C35.06,42.73,35.45,44.23,35.86,45.81Zm-4.2-.2c.06-.08.09-.11.1-.15.36-1.39.73-2.78,1.07-4.18a.55.55,0,0,0-.17-.42c-.33-.32-.71-.6-1-.92a1.84,1.84,0,0,1-.26-.48L29.08,38.1c-.1-.06-.24-.16-.33-.13-1,.29-1.93.61-3,.94Z"/><polyline class="cls-2" points="15.52 40.39 16.59 41.91 20.67 38.36"/></svg>