<svg xmlns="http://www.w3.org/2000/svg" viewBox="0 0 69.13 65.87"><defs><style>.cls-1{fill:#424242;}</style></defs><title>usuario</title><g id="Capa_2" data-name="Capa 2"><g id="Layer_1" data-name="Layer 1"><path class="cls-1" d="M2.44,65.87l64.26-.06a2.41,2.41,0,0,0,2.43-2.44A23.23,23.23,0,0,0,45.89,40.18l-22.7,0A23.24,23.24,0,0,0,0,63.44a2.41,2.41,0,0,0,2.44,2.43ZM23.2,45.08l22.7,0A18.31,18.31,0,0,1,64.08,60.93L5.05,61A18.37,18.37,0,0,1,23.2,45.08Z"/><path class="cls-1" d="M34.39,0a18.47,18.47,0,0,0-4.62,36.36V31.23A13.6,13.6,0,1,1,39.7,31v5.19A18.47,18.47,0,0,0,34.39,0Z"/></g></g></svg>