<svg xmlns="http://www.w3.org/2000/svg" viewBox="0 0 195.09 177.69"><defs><style>.cls-1{fill:#fff;}</style></defs><title>vender_1</title><g id="Capa_2" data-name="Capa 2"><g id="Layer_1" data-name="Layer 1"><path class="cls-1" d="M2.59,177.69H190.32a2.59,2.59,0,0,0,2.59-2.59V131a2.59,2.59,0,0,0-2.59-2.59H176.48V70.8a8.11,8.11,0,0,0-8.11-8.11H153.53V21.28h15.33v.81a13.12,13.12,0,1,0,26.23,0V10.73a2.59,2.59,0,0,0-2.59-2.59H173.15A12.87,12.87,0,0,0,161.2,0H113.53a12.81,12.81,0,0,0-12.79,12.8V62.69H75.11V43H94.58a2.59,2.59,0,0,0,2.59-2.59V24a2.59,2.59,0,0,0-2.59-2.59H38.26A2.59,2.59,0,0,0,35.67,24V40.4A2.59,2.59,0,0,0,38.26,43H57.73V62.68H34.45a8.12,8.12,0,0,0-7.87,6.13l-15,59.58h-9A2.59,2.59,0,0,0,0,131V175.1a2.59,2.59,0,0,0,2.59,2.59Zm185.14-5.18H176.48V133.57h11.25ZM171.3,70.8v57.59H149.37l15.41-60.52h3.59a2.93,2.93,0,0,1,2.93,2.93ZM174,13.32h15.87v8.77a7.94,7.94,0,1,1-15.87,0ZM161.2,5.18a7.67,7.67,0,0,1,7.66,7.66V16.1H153.53V12.84a7.68,7.68,0,0,1,7.67-7.66ZM105.92,12.8a7.62,7.62,0,0,1,7.61-7.62H150.9a12.74,12.74,0,0,0-2.54,7.66V76.23H105.92ZM40.85,26.56H92V37.81H40.85ZM62.91,43h7V62.68h-7ZM31.6,70.08a2.94,2.94,0,0,1,2.85-2.22h66.29v11a2.59,2.59,0,0,0,2.59,2.59H151a2.59,2.59,0,0,0,2.58-2.59V67.87h5.91L144,128.39H16.91ZM5.18,133.57H171.3v38.94H5.18Z"/><path class="cls-1" d="M92.05,75.36H43.81a2.59,2.59,0,0,0-2.5,1.9L35.24,99.32a2.59,2.59,0,0,0,2.5,3.28h47.7a2.59,2.59,0,0,0,2.48-1.85l6.61-22.06a2.57,2.57,0,0,0-.4-2.29,2.61,2.61,0,0,0-2.08-1ZM83.51,97.42H41.14l4.64-16.88H88.57Z"/><path class="cls-1" d="M116.41,90.62A2.59,2.59,0,0,0,113.82,88h-2.35a2.59,2.59,0,0,0,0,5.18h2.35a2.59,2.59,0,0,0,2.59-2.59Z"/><path class="cls-1" d="M130.49,90.62A2.59,2.59,0,0,0,127.9,88h-2.82a2.59,2.59,0,0,0,0,5.18h2.82a2.59,2.59,0,0,0,2.59-2.59Z"/><path class="cls-1" d="M144.1,90.62A2.59,2.59,0,0,0,141.51,88h-2.82a2.59,2.59,0,0,0,0,5.18h2.82a2.59,2.59,0,0,0,2.59-2.59Z"/><path class="cls-1" d="M110.54,100.23h-2.35a2.59,2.59,0,0,0,0,5.18h2.35a2.59,2.59,0,0,0,0-5.18Z"/><path class="cls-1" d="M124.62,100.23H121.8a2.59,2.59,0,1,0,0,5.18h2.82a2.59,2.59,0,1,0,0-5.18Z"/><path class="cls-1" d="M138.23,100.23h-2.82a2.59,2.59,0,1,0,0,5.18h2.82a2.59,2.59,0,1,0,0-5.18Z"/><path class="cls-1" d="M105.84,111.5H103a2.59,2.59,0,1,0,0,5.18h2.82a2.59,2.59,0,0,0,0-5.18Z"/><path class="cls-1" d="M119.45,111.5h-2.81a2.59,2.59,0,0,0,0,5.18h2.81a2.59,2.59,0,1,0,0-5.18Z"/><path class="cls-1" d="M133.53,111.5h-2.81a2.59,2.59,0,0,0,0,5.18h2.81a2.59,2.59,0,0,0,0-5.18Z"/><path class="cls-1" d="M88,112.43H79.56a2.59,2.59,0,1,0,0,5.18H88a2.59,2.59,0,1,0,0-5.18Z"/><path class="cls-1" d="M67.83,112.43H58a2.59,2.59,0,0,0,0,5.18h9.86a2.59,2.59,0,1,0,0-5.18Z"/><path class="cls-1" d="M45.77,112.43H35.91a2.59,2.59,0,0,0,0,5.18h9.86a2.59,2.59,0,0,0,0-5.18Z"/><path class="cls-1" d="M80.45,141a9.63,9.63,0,1,0,9.63,9.63A9.63,9.63,0,0,0,80.45,141Zm0,14.08a4.45,4.45,0,1,1,4.45-4.45,4.45,4.45,0,0,1-4.45,4.45Z"/><path class="cls-1" d="M142.82,15.3h-4.24a2.59,2.59,0,0,0,0,5.18h4.24a2.59,2.59,0,1,0,0-5.18Z"/><path class="cls-1" d="M110.79,20.48h20.47a2.59,2.59,0,1,0,0-5.18H110.79a2.59,2.59,0,0,0,0,5.18Z"/><path class="cls-1" d="M142.82,63.86h-17a2.59,2.59,0,1,0,0,5.18h17a2.59,2.59,0,0,0,0-5.18Z"/><path class="cls-1" d="M118.28,63.86h-.12a2.59,2.59,0,0,0,0,5.18h.12a2.59,2.59,0,0,0,0-5.18Z"/><path class="cls-1" d="M110.79,63.86a2.59,2.59,0,0,0,0,5.18h0a2.59,2.59,0,1,0,0-5.18Z"/><path class="cls-1" d="M110.79,32.35h20.47a2.59,2.59,0,1,0,0-5.18H110.79a2.59,2.59,0,0,0,0,5.18Z"/><path class="cls-1" d="M142.82,39h-4.24a2.59,2.59,0,0,0,0,5.18h4.24a2.59,2.59,0,1,0,0-5.18Z"/><path class="cls-1" d="M110.79,44.21h20.47a2.59,2.59,0,1,0,0-5.18H110.79a2.59,2.59,0,0,0,0,5.18Z"/><path class="cls-1" d="M142.82,50.89h-4.24a2.59,2.59,0,0,0,0,5.18h4.24a2.59,2.59,0,1,0,0-5.18Z"/><path class="cls-1" d="M110.79,56.07h20.47a2.59,2.59,0,1,0,0-5.18H110.79a2.59,2.59,0,0,0,0,5.18Z"/></g></g></svg>