<?xml version="1.0" encoding="utf-8"?>
<!-- Generator: Adobe Illustrator 21.0.2, SVG Export Plug-In . SVG Version: 6.00 Build 0)  -->
<svg version="1.1" id="Layer_1" xmlns="http://www.w3.org/2000/svg" xmlns:xlink="http://www.w3.org/1999/xlink" x="0px" y="0px"
	 viewBox="0 0 263.1 266" style="enable-background:new 0 0 263.1 266;" xml:space="preserve">
<style type="text/css">
	.st0{fill:#EA6416;}
	.st1{fill:none;stroke:#CBD2DA;stroke-width:2;stroke-miterlimit:10;}
	.st2{fill:#E46416;}
	.st3{fill:#424242;}
	.st4{fill:#FFFFFF;}
	.st5{fill:#E66416;}
	.st6{fill:none;stroke:#EA6416;stroke-linecap:round;stroke-miterlimit:10;}
	.st7{fill:#CBD2DA;stroke:#CBD2DA;stroke-width:2;stroke-miterlimit:10;}
	.st8{fill:none;stroke:#AB6416;stroke-width:3;stroke-miterlimit:10;}
	.st9{fill:none;stroke:#AB6416;stroke-width:5;stroke-miterlimit:10;}
	.st10{fill:none;stroke:#AB6416;stroke-miterlimit:10;}
	.st11{fill:none;stroke:#424242;stroke-width:2;stroke-linecap:round;stroke-linejoin:round;stroke-miterlimit:10;}
	.st12{fill:none;stroke:#424242;stroke-width:2;stroke-miterlimit:10;}
	.st13{fill:none;stroke:#424242;stroke-miterlimit:10;}
	.st14{opacity:0.6;fill:#CBD2DA;stroke:#CBD2DA;stroke-width:2;stroke-miterlimit:10;}
	.st15{opacity:0.6;}
	.st16{fill:none;stroke:#E46416;stroke-width:3;stroke-linecap:round;stroke-linejoin:round;stroke-miterlimit:10;}
	.st17{fill:#FFFFFF;stroke:#E46416;stroke-width:3;stroke-linecap:round;stroke-linejoin:round;stroke-miterlimit:10;}
	.st18{fill:#C7CED6;}
	.st19{fill:#CBD2DA;}
	.st20{fill:none;stroke:#E46416;stroke-linecap:round;stroke-miterlimit:10;}
	.st21{fill:#E6E6E6;}
	.st22{fill:#CCCCCC;}
	.st23{fill:#B96416;}
	.st24{fill:#863E02;}
	.st25{fill:#718080;}
	.st26{fill:none;stroke:#EA6416;stroke-width:2;stroke-linecap:round;stroke-miterlimit:10;}
	.st27{fill:none;stroke:#EA6416;stroke-width:2;stroke-miterlimit:10;stroke-dasharray:9;}
	.st28{fill:none;stroke:#EA6416;stroke-width:2;stroke-miterlimit:10;stroke-dasharray:8.8334,8.8334;}
	.st29{fill:none;stroke:#424242;stroke-width:3;stroke-linecap:round;stroke-linejoin:round;stroke-miterlimit:10;}
	.st30{fill:#CBD2DA;stroke:#424242;stroke-width:3;stroke-linecap:round;stroke-linejoin:round;stroke-miterlimit:10;}
	.st31{fill:none;stroke:#E46416;stroke-width:2;stroke-miterlimit:10;}
	.st32{opacity:0.52;fill:#EA6416;}
	.st33{fill:#FFFFFF;stroke:#EA6416;stroke-miterlimit:10;}
	.st34{fill:#424242;stroke:#424242;stroke-linecap:round;stroke-linejoin:round;stroke-miterlimit:10;}
	.st35{fill:#CBD1D9;stroke:#424242;stroke-linecap:round;stroke-linejoin:round;stroke-miterlimit:10;}
	.st36{fill:#B9C0C6;stroke:#424242;stroke-linecap:round;stroke-linejoin:round;stroke-miterlimit:10;}
	.st37{fill:#E96415;stroke:#424242;stroke-linecap:round;stroke-linejoin:round;stroke-miterlimit:10;}
	.st38{fill:#5B6976;}
	.st39{fill:#FFFFFF;stroke:#424242;stroke-miterlimit:10;}
	.st40{opacity:0.51;fill:#464747;stroke:#424242;stroke-linecap:round;stroke-linejoin:round;stroke-miterlimit:10;}
	.st41{fill:#FFFFFF;stroke:#E46416;stroke-width:2;stroke-miterlimit:10;}
	.st42{fill:#EA6416;stroke:#E46416;stroke-width:2;stroke-miterlimit:10;}
	.st43{fill:none;stroke:#E46416;stroke-width:2;stroke-linecap:round;stroke-linejoin:round;stroke-miterlimit:10;}
	.st44{fill:none;stroke:#E46416;stroke-linecap:round;stroke-linejoin:round;stroke-miterlimit:10;}
	.st45{fill:#FFFFFF;stroke:#424242;stroke-width:2;stroke-miterlimit:10;}
	.st46{fill:#FFFFFF;stroke:#EA6416;stroke-width:2;stroke-miterlimit:10;}
	.st47{fill:#3E424B;}
	.st48{fill:none;stroke:#424242;stroke-linecap:round;stroke-linejoin:round;stroke-miterlimit:10;}
	.st49{fill:#E66417;}
	.st50{fill:none;stroke:#EA6416;stroke-width:2;stroke-miterlimit:10;}
	.st51{fill:#FFFFFF;stroke:#E46416;stroke-width:4;stroke-miterlimit:10;}
	.st52{fill:none;stroke:#FFFFFF;stroke-width:2;stroke-miterlimit:10;}
	.st53{fill:#FFFFFF;stroke:#DE6416;stroke-width:2;stroke-miterlimit:10;}
	.st54{fill:#AE6416;}
	.st55{fill:none;stroke:#000000;stroke-miterlimit:10;}
	.st56{opacity:0.4;fill:#E46416;}
	.st57{opacity:0.34;}
	.st58{fill:none;stroke:#E46416;stroke-width:2;stroke-miterlimit:10;stroke-dasharray:12.0239,12.0239;}
	.st59{fill:none;stroke:#CBD2DA;stroke-width:2;stroke-linecap:round;stroke-linejoin:round;stroke-miterlimit:10;}
	.st60{fill:none;stroke:#E46416;stroke-width:2;stroke-linecap:round;stroke-miterlimit:10;}
	.st61{opacity:0.41;}
	.st62{fill:none;stroke:#EA6416;stroke-miterlimit:10;}
	.st63{fill:#EA6416;stroke:#EA6416;stroke-width:2;stroke-miterlimit:10;}
	.st64{fill:none;stroke:#424242;stroke-width:2;stroke-linecap:round;stroke-miterlimit:10;}
	.st65{fill:none;stroke:#E46416;stroke-width:2;stroke-miterlimit:10;stroke-dasharray:12.0574,12.0574;}
	.st66{fill:none;stroke:#E66416;stroke-width:2;stroke-linecap:round;stroke-linejoin:round;stroke-miterlimit:10;}
	.st67{fill:#E66416;stroke:#E66416;stroke-width:4;stroke-linecap:round;stroke-miterlimit:10;}
	.st68{fill:#333333;stroke:#424242;stroke-miterlimit:10;}
	.st69{fill:#424242;stroke:#424242;stroke-miterlimit:10;}
	.st70{fill:#697784;stroke:#424242;stroke-miterlimit:10;}
	.st71{fill:#718091;stroke:#424242;stroke-miterlimit:10;}
	.st72{fill:#D15518;stroke:#424242;stroke-miterlimit:10;}
	.st73{fill:#EA6416;stroke:#424242;stroke-miterlimit:10;}
	.st74{opacity:0.5;}
	.st75{opacity:0.5;fill:#424242;}
	.st76{fill:none;stroke:#E66416;stroke-miterlimit:10;}
	.st77{fill-rule:evenodd;clip-rule:evenodd;fill:none;stroke:#424242;stroke-width:3;stroke-miterlimit:10;}
	.st78{fill-rule:evenodd;clip-rule:evenodd;fill:#424242;}
	.st79{fill:none;stroke:#E66416;stroke-width:3;stroke-miterlimit:10;}
	.st80{fill:none;stroke:#71808D;stroke-width:3;stroke-miterlimit:10;}
	.st81{fill:none;stroke:#838384;stroke-width:5;stroke-linecap:round;stroke-linejoin:round;stroke-miterlimit:10;}
	.st82{fill:#838384;}
	.st83{fill:#DBDBDB;}
	.st84{fill:none;stroke:#424242;stroke-width:0.5;stroke-miterlimit:10;}
	.st85{fill:none;stroke:#E56413;stroke-linecap:round;stroke-linejoin:round;stroke-miterlimit:10;}
	.st86{fill:none;stroke:#E56412;stroke-miterlimit:10;}
	.st87{fill:none;stroke:#E56412;stroke-width:2;stroke-miterlimit:10;}
	.st88{fill:#E56412;}
	.st89{fill:#FFFFFF;stroke:#E56413;stroke-linecap:round;stroke-linejoin:round;stroke-miterlimit:10;}
	.st90{fill:#E56413;}
	.st91{fill:#72808C;stroke:#72808C;stroke-width:2;stroke-linecap:round;stroke-linejoin:round;stroke-miterlimit:10;}
	.st92{fill:none;stroke:#E56415;stroke-width:2;stroke-miterlimit:10;}
	.st93{fill:none;stroke:#E56413;stroke-width:2;stroke-miterlimit:10;}
	.st94{fill:#FFFFFF;stroke:#72808C;stroke-width:2;stroke-linecap:round;stroke-linejoin:round;stroke-miterlimit:10;}
	.st95{fill:none;stroke:#72808C;stroke-width:2;stroke-miterlimit:10;}
	.st96{fill:none;stroke:#73808C;stroke-width:2;stroke-miterlimit:10;}
	.st97{fill:none;stroke:#424242;stroke-width:0.75;stroke-miterlimit:10;}
	.st98{fill:none;stroke:#E56413;stroke-miterlimit:10;}
	.st99{fill:#424242;stroke:#6E6E6E;stroke-width:0.5;stroke-linecap:round;stroke-linejoin:round;stroke-miterlimit:10;}
	.st100{fill:#424242;stroke:#6E6E6E;stroke-width:0.5;stroke-linejoin:round;stroke-miterlimit:10;}
	.st101{fill:#FFFFFF;stroke:#72808C;stroke-width:0.75;stroke-miterlimit:10;}
	.st102{fill:#E56415;}
	.st103{fill:#FFFFFF;stroke:#72808C;stroke-miterlimit:10;}
	.st104{fill:#FFFFFF;stroke:#72808C;stroke-linecap:round;stroke-linejoin:round;stroke-miterlimit:10;}
	.st105{fill:none;stroke:#72808C;stroke-width:0.75;stroke-linecap:round;stroke-linejoin:round;stroke-miterlimit:10;}
	.st106{fill:#FFFFFF;stroke:#E56415;stroke-width:2;stroke-miterlimit:10;}
	.st107{fill:#FFFFFF;stroke:#72808C;stroke-width:2;stroke-miterlimit:10;}
	.st108{fill:#424242;stroke:#424242;stroke-width:0.75;stroke-linecap:round;stroke-linejoin:round;stroke-miterlimit:10;}
	.st109{fill:#72808C;}
	.st110{fill:none;stroke:#C6CDD5;stroke-width:0.25;stroke-miterlimit:10;}
	.st111{fill:#73808C;}
	.st112{fill:none;stroke:#73808C;stroke-width:2;stroke-linecap:round;stroke-linejoin:round;stroke-miterlimit:10;}
	.st113{fill:none;stroke:#72808C;stroke-width:2;stroke-linecap:round;stroke-linejoin:round;stroke-miterlimit:10;}
	.st114{fill:#FFFFFF;stroke:#E66416;stroke-width:2;stroke-linecap:round;stroke-linejoin:round;stroke-miterlimit:10;}
	.st115{fill:none;stroke:#EA6416;stroke-width:3;stroke-linecap:round;stroke-linejoin:round;stroke-miterlimit:10;}
	.st116{fill:none;stroke:#E66416;stroke-width:3;stroke-linecap:round;stroke-linejoin:round;stroke-miterlimit:10;}
	.st117{fill:#FFFFFF;stroke:#E66416;stroke-width:3;stroke-linecap:round;stroke-linejoin:round;stroke-miterlimit:10;}
	.st118{fill:none;stroke:#E66416;stroke-width:2;stroke-miterlimit:10;}
</style>
<path class="st49" d="M227.8,197.4c-0.2,0.7-0.5,1.4-0.7,2.1c-1.6,4.9-5.6,8.2-10.6,8.4c-1.2,0.1-2.5-0.3-3.5-0.8
	c-11-5.4-22-10.9-33-16.3c-0.7-0.4-1.4-0.7-2.4-1.1c-0.1,0.7-0.2,1.2-0.3,1.7c-0.8,11.1-8.2,18.2-19.4,18.3c-8.1,0.1-16.3,0-24.4,0
	c-24.3,0-48.6,0-73,0c-7.8,0-14.3-2.7-19.1-9.2c-2.2-3-3.3-6.3-3.3-10c0-16.1,0-32.2,0-48.3c0-8.2,5.4-15.8,13.3-18.8
	c0.9-0.3,1.7-0.6,2.9-1c-8.3-8-11.2-17.6-9.4-28.7c1.1-6.8,4.5-12.4,9.6-17.1c10-9.3,28.7-11.9,42.1,0.8
	c5.1-14.1,14.6-23.6,29.3-27.2c11.1-2.7,21.6-0.9,31.2,5.4c11.6,7.6,17.9,18.6,18.4,32.5c0.5,13.8-5.3,24.9-16.2,33.8
	c10.1,1.4,16.2,6.9,18.8,16.5c2.5-1.2,4.9-2.4,7.3-3.6c9-4.5,18-9,26.9-13.7c3.7-2,6.9-1.2,10.1,0.9c3.1,2,4.4,5.2,5.3,8.6
	C227.8,152.7,227.8,175,227.8,197.4z M107.6,200c16.1,0,32.2,0,48.3,0c7.5,0,11.8-4.4,11.8-11.8c0-15.3,0-30.6,0-45.9
	c0-7.5-4.4-11.8-11.9-11.8c-32.1,0-64.2,0-96.3,0c-7.4,0-11.9,4.4-11.9,11.9c0,15.2,0.1,30.5-0.1,45.7c-0.1,6.8,4.7,12.2,12.1,12.1
	C75.7,199.8,91.7,200,107.6,200z M166,89.5c0.2-16.8-13.5-30.8-30.1-31c-17.2-0.2-31.4,13.4-31.5,30.2c0,18,13.9,31.2,30.7,31.4
	C151.9,120.2,165.9,106.4,166,89.5z M218.2,163.9c0-9.9,0-19.9,0-29.8c0-0.7,0-1.5-0.1-2.2c-0.4-2.2-1.6-2.7-3.5-1.8
	c-11.9,6-23.8,12-35.7,17.9c-1.1,0.6-1.5,1.2-1.5,2.4c0,8.8,0.1,17.5,0,26.3c0,1.4,0.4,2.2,1.7,2.8c11.8,5.9,23.6,11.9,35.3,17.8
	c2.1,1.1,3.3,0.5,3.7-1.9c0.1-0.7,0.1-1.4,0.1-2C218.2,183.7,218.2,173.8,218.2,163.9z M54,98.9c-0.1,11.6,9.2,21,20.8,21.1
	c11.5,0.1,21.2-9.3,21.1-20.8C95.7,86,85.5,78.2,75.1,78.1C63.5,78,54.1,87.3,54,98.9z M101.8,113c-1.4,1.9-3.5,4.8-5.6,7.6
	c4.8,0,9.6,0,14.3,0C107.4,118,104.5,115.4,101.8,113z"/>
</svg>
