<svg xmlns="http://www.w3.org/2000/svg" viewBox="0 0 313.46 286.55"><defs><style>.cls-1{fill:#ea6416;}</style></defs><title>warning</title><g id="Capa_2" data-name="Capa 2"><g id="Capa_1-2" data-name="Capa 1"><path class="cls-1" d="M156.73,201.37a16.11,16.11,0,1,0,0,32.21c8.44,0,16.11-7.34,15.72-15.72A15.72,15.72,0,0,0,156.73,201.37Z"/><path class="cls-1" d="M305.83,258.46a55,55,0,0,0,.13-55.68L205.06,28A55.6,55.6,0,0,0,108.53,28L7.49,202.91a55.8,55.8,0,0,0,48.33,83.64H257.38A55.48,55.48,0,0,0,305.83,258.46Zm-21.9-12.63a30.47,30.47,0,0,1-26.62,15.4H55.75a30,30,0,0,1-26.29-15.08,30.51,30.51,0,0,1-.06-30.74l101-174.88a30.34,30.34,0,0,1,52.71.07l101,174.88A30.1,30.1,0,0,1,283.93,245.83Z"/><path class="cls-1" d="M152.73,88.28c-7.67,2.19-12.43,9.15-12.43,17.59.38,5.09.7,10.25,1.09,15.34,1.1,19.39,2.19,38.4,3.29,57.8a11.8,11.8,0,0,0,12,11.34,12.05,12.05,0,0,0,12.05-11.73c0-4,0-7.67.38-11.73.71-12.43,1.49-24.87,2.19-37.31.39-8.05,1.1-16.11,1.49-24.16a19.86,19.86,0,0,0-1.49-8.06A16.14,16.14,0,0,0,152.73,88.28Z"/></g></g></svg>