<svg xmlns="http://www.w3.org/2000/svg" viewBox="0 0 82.76 86"><defs><style>.cls-1{fill:none;stroke:#fff;stroke-miterlimit:10;stroke-width:3px;}</style></defs><title>whatsapp_1</title><g id="Capa_2" data-name="Capa 2"><g id="Layer_1" data-name="Layer 1"><path class="cls-1" d="M36.64,1.78A39.9,39.9,0,0,0,7.2,61.94L4.42,82.74a1.55,1.55,0,0,0,2,1.69l19.76-6.18A39.88,39.88,0,1,0,36.64,1.78Z"/><path class="cls-1" d="M64.35,51.86l-9.07-2.61a3.39,3.39,0,0,0-3.35.89L49.71,52.4a3.31,3.31,0,0,1-3.59.76c-4.29-1.74-13.32-9.77-15.63-13.79a3.29,3.29,0,0,1,.26-3.66l1.94-2.51a3.37,3.37,0,0,0,.42-3.43l-3.82-8.64A3.39,3.39,0,0,0,24,19.92c-2.53,2.14-5.53,5.4-5.9,9-.64,6.35,2.08,14.37,12.39,24C42.41,64,52,65.51,58.16,64c3.52-.85,6.33-4.27,8.11-7.07a3.38,3.38,0,0,0-1.92-5.07Z"/></g></g></svg>