<svg xmlns="http://www.w3.org/2000/svg" viewBox="0 0 38.5 39.98"><defs><style>.cls-1{fill:none;stroke:#e66416;stroke-miterlimit:10;stroke-width:2px;}</style></defs><title>whatsapp</title><g id="Capa_2" data-name="Capa 2"><g id="Layer_1" data-name="Layer 1"><path class="cls-1" d="M17.08,1.13A18.26,18.26,0,0,0,3.61,28.66L2.34,38.17a.71.71,0,0,0,.91.78l9-2.83a18.25,18.25,0,1,0,4.79-35Z"/><path class="cls-1" d="M29.76,24l-4.15-1.19a1.54,1.54,0,0,0-1.53.4l-1,1a1.5,1.5,0,0,1-1.64.35,22.23,22.23,0,0,1-7.16-6.31,1.53,1.53,0,0,1,.12-1.68l.89-1.14a1.55,1.55,0,0,0,.19-1.58L13.71,10a1.54,1.54,0,0,0-2.41-.55c-1.16,1-2.54,2.47-2.7,4.12-.3,2.91,1,6.58,5.67,11,5.45,5.09,9.81,5.76,12.65,5.07,1.62-.39,2.9-2,3.72-3.24A1.56,1.56,0,0,0,29.76,24Z"/></g></g></svg>