<svg xmlns="http://www.w3.org/2000/svg" viewBox="0 0 1120.27 533.22"><defs><style>.cls-1{fill:#fff;}</style></defs><title>ubiimovil</title><g id="Capa_2" data-name="Capa 2"><g id="Layer_1" data-name="Layer 1"><rect class="cls-1" x="95.43" width="70.01" height="63.39"/><rect class="cls-1" x="217.98" width="70.02" height="63.39"/><path class="cls-1" d="M829.7,531.1c-8-.88-10.62-5-15.05-10.62a.28.28,0,0,0-.29-.29,6.56,6.56,0,0,1-.89-3.84c0-.29-2.06-.59-2.36-2.36,0-.59-.29-1.18,0-1.47,2.07-2.65-.29-3.54-1.47-5,0-.59.59-1.47.59-2.06-.3-7.38-1.48-15.34.29-23.31,1.48-6.49,2.07-12.38,3.54-18.58l6.2-25.67,5-23.59a32.19,32.19,0,0,0,.59-5.61l2.07-18a45.12,45.12,0,0,0,0-8.85c0-.89-4.43-3.84-6.79-3.25-.88.3-2.06.3-2.65.59-5.61,2.95-11.21,5.61-15.93,10-3.25,3.25-7.08,6.49-10.33,10-2.36,1.77-5.31,3.84-6.19,6.2-1.48,3.83-5.9,8-8.56,10.91C768,427,760.67,439.06,754.18,452L751.82,458c0,1.17-3,10.32-3.54,10.61a39,39,0,0,1-2.66,8.26c-.88,3-1.77,4.43-2.65,9.74A61.67,61.67,0,0,1,740.31,499c-2.95,2.06-2.06-.59-5-1.48-1.77-.59-8-.88-8-2.35a146.56,146.56,0,0,1,4.13-18.59c3.25-11.8,4.72-18.58,8-29.8l8.55-31c7.08-25.37,9.74-37.47,9.44-44.84-.29-8-1.18-10.32-5.6-10.32-3.84.88-4.13,2.36-5.9,3.54-5.61,3.83-9.44,9.14-12.69,14.45a37.32,37.32,0,0,0-3,4.13c-1.47,2.36-4.13,4.13-4.13,7.67,0,.3-.29.3-.29.59-3.54,3.84-5.9,8.85-8,13a21.11,21.11,0,0,1-2.65,3.83c-.59,1.78-.59,3.84-1.18,5.32l-16.82,42.77-9.44,23.31c-3.24,8.26-3.83,15.93-5.6,24.48-.59,2.65-1.18,3.83-4.43,2.95-1.47-.3-2.95-1.48-4.13-2.07a26.68,26.68,0,0,1-2.95-1.47c-3.24-.59-4.13-1.18-3.54-3.54.59-3,2.07-5.61,3.25-11.21,3.83-18.29,6.49-27.14,16.22-66.37.89-3.84,1.48-7.67,2.07-10.92,1.47-6.78,2.06-13,3.24-19.76A142.12,142.12,0,0,0,694,372.1c.59-6.19.59-12.09.88-18,.3-4.13-.59-7.38-1.47-11.51a18.12,18.12,0,0,0-2.36-4.72c-1.18-2.65-4.43-2.65-6.79-1.18a20.37,20.37,0,0,0-6.49,5A77.38,77.38,0,0,0,668,355.29c-3.25,3.83-5,9.14-8.85,13-1.77,1.77-3.25,4.13-4.72,3.83-2.07-.29-6.79-5.9-6.79-7.37,2.07-4.72,5.61-8.56,8.26-12.39a150.87,150.87,0,0,1,10.33-13,40.2,40.2,0,0,1,13-10.33c3.54-1.47,7.67-2.95,11.8-2.36a15.7,15.7,0,0,1,5.31,2.07c5.31,2.95,6.49,10.32,8.26,17.7l.88,10c.3,3.54.89,7.37-.29,10.62-1.48,3.24,0,6.49-.3,9.73-.59,1.77-.29,3.84-.59,5.61-3,8.85-2.65,18.28-5.31,27.43a60.1,60.1,0,0,0-1.77,12.39,50,50,0,0,0,3-7.08c4.43-8.55,8-17.7,12.39-26.25,4.13-8,8.56-15.64,14.16-22.13C732.05,360.3,737.36,355,745,352a14.71,14.71,0,0,1,7.08-.88c3.25,0,6.49,1.47,9.44,2.36,4.43,1.18,6.79,4.72,8,9.14a38.43,38.43,0,0,1,.88,11.8c0,7.38-.88,12.1-3.83,21-.3,4.13-9.15,25.37-7.67,29.5,1.77-2.66,6.19-8,7.67-10.92a122.82,122.82,0,0,1,18.29-24.48,79.76,79.76,0,0,1,26-18.3c2.06-1.47,5-1.76,7.67-2.06,6.49,0,11.8,2.06,15.63,3.54a3.64,3.64,0,0,1,1.48,1.48c2.95,5,4.72,10.32,3.83,16.22-.59,6.2-.29,12.69-1.47,18.58-.59,3.25-1.77,6.2-1.77,8.86-.59,3.54-1.48,7.08-2.07,10.62a21.35,21.35,0,0,1-3.54,7.37l.59,2.65c0,1.19-1.18,5.32-1.18,6.2a14.53,14.53,0,0,1-1.47,3.83,7.44,7.44,0,0,0-.59,1.78l-.89,7.08c-.88,3.83-2.36,8-3.54,12.39a3.51,3.51,0,0,1,0,4.42c-1.47,2.36-1.18,4.42-1.77,6.79a21.3,21.3,0,0,1-1.18,5.6c-.88,2.06,1.18,3.54-1.18,4.72.89.59,1.77,1.18-.29,1.18,1.18.59,2.06,1.77,1.47,3-.29.59-1.18,1.18-1.77,2.06.3.59,1.18,1.18,1.48,1.77.59.89.29,2.07.29,3.25a8.77,8.77,0,0,0,1.18,5.31c.59.88,0,2.36.3,3.83.29,1.18.29,2.66,1.18,3.25,2.36,1.47,2.65,4.72,4.42,6.78,3.25,3.55,7.08,5.9,13,5.61a42.48,42.48,0,0,0,16.52-4.13c5.31-2.36,6.79-4.13,10-5.9.59,1.47-3.24,1.77-2.65,4.42,0,.59-1.77,1.77-2.66,2.36-2.06,1.48-3.83,2.36-5,4.72a3,3,0,0,1-1.48,1.18c-7.08,2.66-14.16,4.72-21.83,2.07A9.07,9.07,0,0,0,829.7,531.1Z"/><path class="cls-1" d="M933.83,437.88v2.66a48.9,48.9,0,0,1-7.67,6.49c-1.18.89-1.18,2.07-2.36,2.07h-2.06c-.3,0-.59,0-.59.29-.3,1.77-2.66,1.77-4.13,2.36l-4.13,1.77a23.92,23.92,0,0,1-8.56,2.06c-.88,0-1.47.3-2.06.3-1.48,0-1.77.59-1.77,1.77a8.58,8.58,0,0,0-.89,3l.59.29v.3c-1.47,1.48-1.47,3.25-3.24,4.43-.3.29,0,1.47-.3,1.76-2.36,2.66-3.83,5.61-6.49,8.56l-.59.59a61.48,61.48,0,0,0-4.42,4.43,6.3,6.3,0,0,1-3.25,1.17,29.43,29.43,0,0,1-7.08,2.95,4.84,4.84,0,0,1-3,0c-3-.29-6.49-.29-8.85-1.47-3.54-.59-5.9-2.65-8-5.31-3.25-3.25-3.54-8.85-3.84-13.57-.29-5.61,2.36-11.21,3.84-16.52.59-1.77,1.18-5.6,1.47-5.6,2.07-2.95,3.25-6.49,5-8.26a34.93,34.93,0,0,1,9.14-6.79c2.66-1.18,5.61-.88,8-.88,1.47,0,2.06,1.47,3.24,2.65.3.29.89.29,1.48.59,3,1.18,7.08,1.18,10.62,4.13.29.3,1.47.3,2.06.59a17.72,17.72,0,0,1,4.43,6.19l2.06,6.5c0,.29-.29.59,0,.88,5.31-2.07,10.62-3.54,15.64-5.31,4.42-1.77,8-2.65,15.34-5.31Zm-45.72,18a16.93,16.93,0,0,1-5.31-.88,22.51,22.51,0,0,1-8.56-3.84,8.51,8.51,0,0,1-4.13-4.43,10.69,10.69,0,0,1-1.47-3.24c-1.48,3.54-2.95,5.9-4.43,8.85a12.71,12.71,0,0,0-1.77,4.13,31.74,31.74,0,0,0-.88,4.72c-1.18,2.95-1.18,6.49-1.18,9.44a28.84,28.84,0,0,0,.88,5.31c.3,2.36,3.84,3.54,7.67,2.06,4.43-1.18,8.56-4.12,11.8-7.37a35.94,35.94,0,0,0,5-6.19c1.18-1.77,1.77-4.14,3.24-6.2C890.17,456.77,889.58,456.47,888.11,455.88ZM873.06,414a1,1,0,0,0-.59-.29c.89-1.18,2.36-2.95,2.66-4.13.59-.6,1.77-1.78,1.47-2.66-.29-3.83,2.66-5.61,4.72-8.26,2.36-3.54,5.31-7.37,8-10.62,1.77-1.47,3.54-3.83,6.19-5,2.66-2.36,3.84-2.07,7.08,0a2.17,2.17,0,0,1,.59,1.18c-.88,4.42-3.24,7.67-5.9,10.62l-10.32,10c0,.29-.3.59-.89.59Zm18.59,30.39c-.59-2.36-.89-5.32-2.36-7.67-.59-.89-1.18-.89-2.07-.59a5.87,5.87,0,0,0-4.13,1.47c-1.77,1.47-3.83,2.66-4.13,5.31a9.39,9.39,0,0,0,1.18,4.72c.59,1.48,1.48,1.77,3.25,1.77h8.26A27.89,27.89,0,0,1,891.65,444.38Z"/><path class="cls-1" d="M923.5,499.83c0-.29-1.77-3.54-2.06-3.54-2.07,0-1.77-2.65-3-4.72-.3-1.77-.59-3.24-.59-3.83,0-4.72.59-9.15.29-13.57.59-2.95,1.77-4.72,2.07-7.08,0-3.25,1.47-6.2,2.36-8.55a31.21,31.21,0,0,1,1.77-9.15,33.64,33.64,0,0,1,1.47-7.08l2.66-10.92c1.47-.29,4.13,1.78,6.19,2.37.3.59,0,1.47.59,2.06,0,.59.59,1.18,1.18,1.77.59,5.9-1.18,11.8-2.06,17.7-1.48,6.19-2.66,11.8-4.72,18-.59,4.13-.89,8-1.77,12.09,3,0,5.31-2.66,7.67-4.42a32.37,32.37,0,0,0,6.78-7.38c1.77-1.47,3.54-4.13,5-6.2a47.65,47.65,0,0,0,8.85-13.27c2.36-4.42,5-8.56,7.67-13,.88-2.36,2.36-5.31,3.83-8.55.59-1.19,1.48-2.66,2.36-2.66.59,0,.89,1.47,1.77,2.07.3.59.3,1.18.89,1.47,1.47,2.07,1.77,5.31.88,8.26l-3.83,10c-3.54,8.55-3.84,10-4.72,11.5-.89,2.07-1.48,4.43-3.84,5.61a1.28,1.28,0,0,0-.88.29c-.59,3.84-2.66,6.2-4.43,9.15-1.47,2.07-3.54,3.83-5,5.6-2.07,2.36-4.13,5.31-7.08,7.08-1.48,2.66-3.84,4.73-5.61,6.49-3.54,2.07-7.08,2.66-10,4.43Z"/><path class="cls-1" d="M1041.21,445.26c-.3.29-6.79,10.62-8.56,12.69-1.18,1.47-1.77,4.13-5.9,10l-3.24,4.73c-.59.59-.89,1.47-1.48,2.06l-1.47,1.47a24.84,24.84,0,0,0-6.2,6.2,18.72,18.72,0,0,1-4.42,3.83c-1.18,1.19-3,1.48-4.72,2.07-1.77.88-3.84,1.77-5.9,2.95-2.36.59-3.84-.3-5.9-.89-2.95-.59-4.13-3.24-6.19-4.72-.59-.29-.59-1.18-.89-1.77a6.54,6.54,0,0,0-1.48-2.36c-.29-1.17-1.17-1.76-1.47-3-.59-5,.59-10.62,2.06-15.92a83.86,83.86,0,0,1,2.95-11.51c1.18-5.31,2.66-10.33,4.13-15.93v-2.36c-.29-1.18,0-2.07,1.18-2.07.89-.29,1.77-.88,2.66.59s3,2.37,3.83,3.84a11.39,11.39,0,0,1,3.25,3.24,7.41,7.41,0,0,1,.29,4.43,12.57,12.57,0,0,1-1.17,4.72c-.89,3.54-2.07,7.08-3.25,10.92a17.87,17.87,0,0,0-1.48,3.54c-.29.59-.59.88-.59,1.47.89,2.66-.88,5.31-1.18,8.26,0,2.65-.88,5.31-1.17,8.26a19.84,19.84,0,0,0,8.25-4.13c4.72-4.13,10-8.26,14.46-12.69,4.72-4.13,8.85-8.84,13.27-13,3.54-3.25,7.38-6.49,11.21-10.33.59.59.89,2.36-.59,5Zm-42.77-33.92a8.12,8.12,0,0,1-1.78-7.38c1.48-4.42,4.72-6.49,8.56-8.55.29-.3,1.47-.3,1.47-.3,3.25-.29,5,.59,5.61,2.66.89,2.94,2.06,6.19.89,9.44s-3.84,5-6.5,6.78a5.22,5.22,0,0,1-5-.59A19.68,19.68,0,0,1,998.44,411.34Z"/><path class="cls-1" d="M1120,313.1c0,2.36-2.06,2.07-1.18,4.43l-3,14.75c1.48,1.77-.59,4.13-1.18,4.42l.59.89-3.24,4.13-1.18,5a20.44,20.44,0,0,1-1.77,2.66c-.59.88,0,1.77.29,2.36a11.16,11.16,0,0,1-.88,5.31c-.3-.3-18.29,31.56-20.36,34.51l-15.93,20.06c-.59-.29-.88,0-.88,0-1.48,1.18-1.48,2.66-2.36,3.54l-5.9,5.61a151,151,0,0,1-11.8,11.8c-1.47,2.36-3,8-3.54,11.8-.59,4.72-1.77,12.68-1.47,17.7.29,8,1.47,14.74,3.83,20.35,1.18,2.95,3.84,7.08,5.9,8,4.72,2.07,7.37,0,12.09-3.24,4.72-2.07,1.48,9.73-4.72,11.5-3.83.89-6.49,1.18-11.8-1.18a17,17,0,0,1-4.42-3.24c-1.48-1.77-2.66-3.54-4.42-5.61-1.48-2.06-2.07-4.42-3.25-7.08a70.82,70.82,0,0,1-2.07-9.14,83.23,83.23,0,0,1,0-20.94,141,141,0,0,1,2.36-18.59l1.77-9.74a13.06,13.06,0,0,1,.6-4.12c.88-3.25,1.17-4.72,2.06-8.85.88-3.25,1.47-7.38,2.95-11.21,1.18-4.43,3-9.15,4.13-13.28,1.18-2.06,2.07-4.72,3.24-7.08.59-1.77.59-3.54,1.77-5.31.3-.59,7.38-18.58,7.38-19.17.59-.3,2.95-4.13,3.24-5.31l2.07-6.79,2.36-5c.29-.59.88-.59,1.18-1.18l11.5-21.24a46.23,46.23,0,0,1,7.38-10.33c2.65-2.36,5.31-5,7.67-7.37,3.24-3.25,6.78-2.36,10.91-1.18a38.84,38.84,0,0,1,3.54,1.77,13.24,13.24,0,0,1,4.13,2.95l1.77,1.47a.89.89,0,0,1,0,1.18c.3,2.36.3,3.84.89,5.31Zm-10.32-8a2.19,2.19,0,0,1-1.18-.3l-2.07,1.77a6.07,6.07,0,0,1-1.18,1.77c-2.65,2.66-5.6,5.31-7.37,8.56-2.66,3.24-5.31,6.49-6.78,10.32-1.19,3.84-4.14,7.08-6.2,10.33-1.48,3-3.54,5.9-4.72,8.85a100.2,100.2,0,0,0-4.13,10c-.59,1.18-1.18,2.65-1.77,3.54a59,59,0,0,0-3,7.08c-.89,2.06-1.77,3.83-1.77,5.31-.59,1.77-.3,3-.88,4.42-1.19,2.66-2.37,6.79-4.14,9.74-1.47,4.42-2.65,8.85-4.72,13-.29.88-1.18,1.76-1.77,3.54l-1.77,8.26c2.36-2.66,5.9-7.67,8.56-10.63,3.54-4.42,7.67-9.73,10.91-14.45a52.41,52.41,0,0,0,6.2-8c2.36-3.53,4.13-7.08,6.49-10.91,2.66-5.9,5.31-10.91,8.26-17.11a113.24,113.24,0,0,0,5.6-14.45,67.27,67.27,0,0,0,4.13-15.64C1108.17,315.46,1108.47,310.15,1109.65,305.14Z"/><path class="cls-1" d="M380.79,36.19H346.14v204.2c0,25.84-21.64,46.78-48.35,46.78H84.36C57.65,287.17,36,266.23,36,240.39V36.19H.48A49.17,49.17,0,0,0,0,42.75V256.32c0,33.07,33.27,59.87,74.31,59.87H307c41,0,74.31-26.8,74.31-59.87V42.75A47.56,47.56,0,0,0,380.79,36.19Z"/><path class="cls-1" d="M845.94,70.62V35h38.35V70.62Zm1,241.43V116.18h38.35V312.05Z"/><path class="cls-1" d="M910.1,70.62V35h38.35V70.62Zm1,241.43V116.18h38.36V312.05Z"/><path class="cls-1" d="M739.67,131a90.47,90.47,0,0,0-49.44,14.7V36.19H648.6V222A91.08,91.08,0,1,0,739.67,131Zm0,141.11a50,50,0,1,1,50-50A50,50,0,0,1,739.67,272.06Z"/><path class="cls-1" d="M587.2,36.19V209.61A66,66,0,0,1,537,273.66a99.38,99.38,0,0,1-15.82,1.23,103.21,103.21,0,0,1-15.46-1.14,66,66,0,0,1-50.58-64.14h0V36.19H416.77V219.64h.49a104.39,104.39,0,0,0,207.81,0h.49V36.19Z"/></g></g></svg>